<svg baseProfile="full" xmlns="http://www.w3.org/2000/svg" height="13" width="30"><path d="M28.845 3.238c-.168.571-.377 1.012-.601 1.527-.189.438-.549.944-.739 1.374.014.212-.214.003-.232.152-.063.142-.186.242-.277.382l-.185.267c-.059.07-.22.244-.231.382-.014.161.18.467.277.648l.369.572.047.192.093.153.093.152.093.038c.101.186.282.425.369.609l.231.078c.153.382.371.71.462 1.144.182.275.46.64.231 1.03-.275.111-.391.17-.785.116l-.37-.038-.046-.078-.51-.153-.509-.266c-.808-.4-1.78-1.047-2.313-1.527-.677-.355-1.217-.826-1.802-1.258-.389-.225-.699-.564-1.064-.839l-.231-.155c-.199-.156-.361-.276-.463-.494-.066-.022-.112-.06-.139-.114.186-.065.034-.185.046-.268.015-.082.053-.222.093-.305.121-.267.477-.435.741-.649l.045-.114.139-.038.093-.077.047-.114c.126-.114.288-.175.37-.306l.832-.458.185-.153.233-.076v-.076l.184-.038.093-.076.275-.191.233-.076.368-.268.14-.038.092-.076.231-.076c.25-.132.476-.334.741-.496.36-.222.808-.42 1.202-.687l.37-.268.278-.19c.262-.133.484-.481.97-.419l.325.114c.304.353.058 1.017-.094 1.525zm-2.497.535c-.317.303-.715.524-1.11.763l-.278.19-.37.192-.093.038c-.196.094-.305.176-.46.267-.394.227-.796.466-1.156.725-.183.131-.338.281-.509.42-.175.141-.415.257-.508.458l-.047.077.139.075c.234.164.431.357.647.535.213.175.432.36.693.495.194.196.399.382.693.496.037.148.226.17.323.268.158.047.177.211.371.229.654.529 1.352 1.022 2.035 1.526l.37.229c.096.053.364.261.371.114-.03-.341-.221-.623-.371-.878-.162-.275-.314-.543-.508-.801l-.139-.266c-.039-.107-.211-.106-.233-.229l-.414-.841c-.09-.173-.246-.316-.279-.495v-.42c.388-.545.789-1.08.972-1.793.271-.268.368-.615.555-.916l.184-.19.094-.268c.074-.164.172-.336.185-.535-.471.109-.725.394-1.157.535zm-8.317.489c-.19.437-.55.945-.741 1.373.016.212-.214.003-.231.153-.063.141-.186.242-.277.383l-.185.266c-.06.071-.22.245-.232.381-.013.161.18.469.278.648l.369.572.047.192.092.153.092.152.093.038c.104.188.284.425.371.611l.231.076c.153.382.372.711.463 1.144.181.276.459.642.23 1.031-.276.112-.392.17-.786.115l-.37-.038-.046-.077-.509-.153-.508-.265c-.809-.402-1.782-1.048-2.313-1.527-.678-.356-1.218-.826-1.802-1.26-.39-.225-.701-.562-1.065-.839l-.231-.154c-.2-.155-.362-.277-.464-.495-.066-.02-.111-.059-.138-.114.187-.063.034-.183.046-.268.014-.081.053-.221.092-.305.123-.267.478-.434.742-.649l.046-.114.139-.038.091-.076.048-.115c.126-.112.287-.175.369-.306l.834-.457.184-.152.233-.076v-.077l.183-.038.093-.076.276-.192.233-.076.367-.266.141-.038.092-.077.231-.077c.25-.131.476-.333.74-.495.361-.223.808-.419 1.203-.687l.369-.267.278-.19c.263-.134.485-.481.972-.421l.324.114c.303.353.058 1.018-.094 1.527-.169.569-.376 1.012-.6 1.526zm-1.896-.992c-.318.304-.715.523-1.111.764l-.277.19-.372.19-.092.039c-.196.095-.305.177-.46.266-.395.227-.796.467-1.156.725-.183.131-.338.283-.509.421-.176.14-.415.258-.51.457l-.045.077.139.076c.232.165.431.356.647.534.212.175.433.36.694.496.193.195.399.382.692.497.037.146.225.168.324.266.156.049.176.211.371.229.654.529 1.35 1.022 2.034 1.526l.37.229c.095.052.363.262.369.115-.028-.342-.219-.624-.369-.877-.162-.277-.314-.543-.509-.803l-.138-.266c-.039-.107-.211-.106-.232-.229l-.416-.841c-.09-.172-.245-.316-.277-.495v-.419c.387-.546.787-1.081.971-1.794.271-.267.368-.615.555-.916l.184-.19.093-.267c.076-.165.174-.337.185-.534-.471.107-.723.394-1.155.534zm-8.089.829c-.189.437-.548.944-.739 1.373.016.211-.214.003-.232.154-.062.14-.186.24-.277.381l-.184.268c-.059.07-.221.243-.233.381-.013.161.18.467.279.647l.369.573.046.19.094.154.092.152.092.038c.103.188.283.425.371.61l.23.078c.153.382.371.71.464 1.143.18.275.458.642.23 1.03-.276.113-.391.17-.785.116l-.372-.038-.045-.078-.509-.152-.51-.267c-.808-.4-1.78-1.046-2.311-1.526-.68-.356-1.218-.825-1.802-1.26-.39-.224-.701-.562-1.065-.838l-.232-.153c-.199-.157-.361-.277-.462-.496-.067-.022-.113-.06-.139-.114.186-.063.033-.184.046-.268.014-.081.054-.221.093-.305.122-.266.476-.433.741-.65l.046-.113.138-.038.093-.076.046-.114c.127-.115.289-.176.37-.306l.833-.459.185-.151.231-.077v-.077l.185-.038.092-.074.276-.192.234-.076.367-.269.141-.038.091-.076.231-.076c.251-.132.478-.334.741-.495.361-.223.808-.421 1.202-.687l.371-.268.277-.191c.262-.131.485-.479.972-.419l.323.115c.304.353.058 1.016-.093 1.526-.169.569-.376 1.011-.602 1.526zm-1.896-.993c-.316.304-.714.525-1.109.765l-.279.19-.37.191-.092.038c-.196.095-.305.176-.46.266-.394.226-.797.468-1.157.726-.182.128-.338.282-.508.42-.175.141-.416.256-.509.457l-.047.078.139.076c.233.162.431.356.647.533.214.176.434.359.694.495.195.196.4.382.692.497.038.148.226.17.325.266.157.049.175.213.369.23.655.529 1.352 1.023 2.034 1.527l.372.228c.096.053.362.262.37.114-.03-.341-.22-.622-.37-.877-.162-.275-.314-.543-.51-.801l-.139-.267c-.038-.107-.21-.105-.231-.228l-.415-.841c-.09-.173-.245-.317-.278-.495v-.419c.387-.547.787-1.081.971-1.795.271-.266.369-.615.555-.915l.185-.191.093-.268c.074-.164.173-.335.185-.533-.471.107-.725.393-1.157.533z"/></svg>