<svg baseProfile="full" xmlns="http://www.w3.org/2000/svg" height="22" width="28"><path d="M25.275 18.899c-2.118 2.118-5.068 2.603-6.621 1.099l-.013-.009-.006-.008-.014-.013.002-.002c-.065-.082-.068-.194.002-.262l7.457-7.456c.068-.07.179-.066.26 0l.003-.004.013.014.007.006.011.013c1.502 1.552 1.017 4.504-1.101 6.622zm-.194-7.651l-7.457 7.457c-.067.068-.181.065-.261.002l-.003.001-.013-.013-.006-.007-.011-.013c-1.503-1.551-1.018-4.503 1.1-6.622 2.118-2.118 5.069-2.602 6.622-1.099l.013.011.007.007.013.013h-.002c.064.082.066.195-.002.263zm-9.879.167l-.016.002h-.026999999999999996v-.002c-.103-.012-.183-.089-.183-.184v-10.339c0-.094.08-.17.183-.181v-.003l.017.001h.026000000000000002c2.119.033 3.829 2.416 3.828 5.353.001 2.938-1.709 5.319-3.828 5.353zm-1.791 0v.002h-.026999999999999996l-.019-.002c-2.117-.034-3.826-2.414-3.825-5.353-.001-2.937 1.707-5.32 3.825-5.353l.019-.001h.009l.018.001v.002c.101.011.18.087.18.181v10.339c0 .095-.078.173-.18.184zm-2.954.733c2.132 2.133 2.622 5.105 1.109 6.667l-.011.015-.007.006-.013.012h-.002c-.083.065-.196.067-.264-.001l-7.512-7.51c-.067-.07-.064-.181 0-.264l-.001-.002.014-.014.006-.006.014-.012c1.563-1.515 4.535-1.025 6.667 1.109zm-.193 7.969l.001.002-.012.013-.007.006-.015.012c-1.562 1.513-4.534 1.025-6.667-1.107-2.134-2.135-2.622-5.106-1.109-6.67l.01-.014.007-.005.014-.015.004.002c.08-.065.194-.067.262 0l7.51 7.512c.069.068.067.182.002.264z"/></svg>