<svg xmlns="http://www.w3.org/2000/svg" viewBox="-221.099 270.082 512.233 20.773" enable-background="new -221.099 270.082 512.233 20.773"><style type="text/css">.st0{fill:#FBB040;}</style><path class="st0" d="M291.039 290.855l-512.138-.187s.215-14.277.215-14.905c0-.626.506-1.136 1.129-1.136 2.219 0 3.294-.926 4.539-1.999 1.385-1.194 2.954-2.546 6.008-2.546s4.622 1.352 6.007 2.545c1.243 1.074 2.318 2 4.537 2 2.218 0 3.293-.926 4.538-1.999 1.384-1.194 2.952-2.546 6.007-2.546 3.055 0 4.624 1.352 6.009 2.545 1.246 1.074 2.322 2 4.541 2 2.219 0 3.293-.926 4.538-2 1.383-1.193 2.952-2.545 6.006-2.545s4.624 1.352 6.009 2.545c1.245 1.074 2.32 2 4.541 2 2.22 0 3.294-.926 4.539-2 1.384-1.193 2.953-2.545 6.007-2.545 3.055 0 4.625 1.352 6.01 2.546 1.245 1.073 2.32 1.999 4.54 1.999 2.218 0 3.294-.926 4.538-1.999 1.385-1.194 2.955-2.546 6.01-2.546 3.056 0 4.625 1.352 6.01 2.545 1.245 1.074 2.321 2 4.541 2 2.219 0 3.296-.926 4.54-2 1.385-1.193 2.955-2.545 6.009-2.545 3.055 0 4.625 1.352 6.01 2.545 1.245 1.074 2.32 2 4.54 2 2.221 0 3.298-.926 4.543-2 1.385-1.193 2.954-2.545 6.011-2.545 3.056 0 4.625 1.352 6.011 2.546 1.246 1.073 2.321 1.999 4.541 1.999s3.295-.926 4.54-1.999c1.386-1.194 2.955-2.546 6.012-2.546 3.056 0 4.625 1.352 6.012 2.546 1.245 1.073 2.32 1.999 4.54 1.999 2.222 0 3.297-.926 4.544-2 1.385-1.193 2.955-2.545 6.012-2.545 3.053 0 4.623 1.352 6.007 2.546 1.245 1.073 2.32 1.999 4.539 1.999 2.221 0 3.297-.926 4.543-2 1.385-1.193 2.955-2.545 6.009-2.545 3.056 0 4.625 1.352 6.011 2.545 1.245 1.074 2.321 2 4.541 2s3.297-.926 4.543-2c1.385-1.193 2.954-2.545 6.011-2.545 3.056 0 4.625 1.352 6.011 2.545 1.246 1.074 2.321 2 4.544 2 2.22 0 3.295-.926 4.54-2 1.386-1.193 2.954-2.545 6.009-2.545 3.057 0 4.628 1.352 6.014 2.545 1.246 1.074 2.322 2 4.544 2 2.225 0 3.302-.926 4.55-2 1.387-1.193 2.958-2.545 6.016-2.545 3.059 0 4.631 1.352 6.017 2.545 1.114.959 2.098 1.795 3.879 1.964 1.777-.169 2.759-1.005 3.871-1.963 1.385-1.194 2.954-2.546 6.008-2.546s4.622 1.352 6.007 2.545c1.243 1.074 2.318 2 4.537 2 2.218 0 3.293-.926 4.538-1.999 1.384-1.194 2.952-2.546 6.007-2.546 3.055 0 4.624 1.352 6.009 2.545 1.246 1.074 2.322 2 4.541 2s3.293-.926 4.538-2c1.384-1.193 2.952-2.545 6.005-2.545 3.055 0 4.625 1.352 6.01 2.545 1.245 1.074 2.32 2 4.541 2 2.219 0 3.294-.926 4.539-2 1.384-1.193 2.953-2.545 6.007-2.545 3.055 0 4.625 1.352 6.01 2.546 1.245 1.073 2.32 1.999 4.54 1.999 2.218 0 3.294-.926 4.538-1.999 1.385-1.194 2.955-2.546 6.01-2.546 3.056 0 4.625 1.352 6.01 2.545 1.245 1.074 2.321 2 4.541 2 2.219 0 3.295-.926 4.54-2 1.385-1.193 2.955-2.545 6.009-2.545 3.055 0 4.625 1.352 6.01 2.545 1.245 1.074 2.32 2 4.54 2 2.222 0 3.298-.926 4.543-2 1.385-1.193 2.954-2.545 6.011-2.545 3.056 0 4.625 1.352 6.011 2.546 1.246 1.073 2.321 1.999 4.541 1.999s3.295-.926 4.54-1.999c1.386-1.194 2.955-2.546 6.012-2.546 3.056 0 4.625 1.352 6.012 2.546 1.245 1.073 2.32 1.999 4.54 1.999 2.222 0 3.298-.926 4.544-2 1.385-1.193 2.955-2.545 6.012-2.545 3.054 0 4.623 1.352 6.007 2.546 1.245 1.073 2.32 1.999 4.539 1.999 2.221 0 3.297-.926 4.543-2 1.385-1.193 2.955-2.545 6.009-2.545 3.056 0 4.625 1.352 6.011 2.545 1.245 1.074 2.321 2 4.541 2 2.221 0 3.297-.926 4.543-2 1.385-1.193 2.954-2.545 6.011-2.545 3.056 0 4.625 1.352 6.011 2.545 1.246 1.074 2.322 2 4.544 2 2.22 0 5.79-2 5.79-2l-.095 18.228z"/></svg>