<svg xmlns="http://www.w3.org/2000/svg" viewBox="421.053 447.881 120.88 112.119" enable-background="new 421.053 447.881 120.88 112.119"><path d="M477.765 555.47l6.535 4.53 6.391-4.543-12.926.013zm-6.453-88.251c2.781-.706 5.353-1.614 8.662-1.78v-11.56h3.12v11.332c3.089.528 6.336.921 8.882 2.008 3.503-6.135 6.404-12.862 9.552-19.338 1.172.083 1.736.787 2.67 1.11-2.929 6.629-6.186 12.934-9.327 19.332 1.987 1.488 4.424 2.536 5.992 4.448 1.547-1.475 8.668-8.665 8.668-8.665l2.005 1.77-8.455 8.893c1.312 1.886 2.753 3.622 3.777 5.775 6.388-2.06 12.538-4.352 18.895-6.44.929.401.929 1.736 1.327 2.668-6.466 2.044-12.564 4.468-19.107 6.448.611 1.682 1.141 3.452 1.33 5.55 3.276.515 7.48.083 11.12.225v2.882h-77.338v-2.882h11.11c.595-1.635.823-3.625 1.34-5.335-6-2.52-12.543-4.494-18.895-6.66-.072-1.263.652-1.721.668-2.893 6.523 2.142 12.942 4.396 19.335 6.665 1.402-1.78 2.228-4.14 4-5.552-2.719-3.203-6.132-5.723-8.67-9.107.688-.499 1.281-1.094 1.775-1.783 3.312 2.466 5.762 5.801 8.895 8.448 1.964-1.369 3.578-3.084 5.997-4-2.887-6.815-6.481-12.926-9.338-19.78.867-.318 1.842-.53 2.45-1.11 3.374 6.247 6.321 12.927 9.56 19.331zm-50.259 41.816c10.072-.924 20.15-1.408 30.22-1.736 10.075-.36 20.145-.453 30.22-.499 10.072.039 20.15.135 30.223.492 10.072.329 20.142.815 30.217 1.744-10.072.934-20.145 1.42-30.217 1.752-10.072.354-20.15.448-30.223.486-10.075-.041-20.145-.14-30.22-.497-10.072-.329-20.148-.813-30.22-1.742zm29.1 23.881c5.286-.926 10.569-1.41 15.858-1.741 5.281-.357 10.567-.448 15.853-.494 5.286.039 10.572.135 15.86.492 5.283.331 10.569.815 15.858 1.744-5.288.931-10.574 1.42-15.858 1.746-5.289.36-10.574.453-15.86.492-5.286-.047-10.569-.14-15.853-.497-5.289-.329-10.57-.816-15.858-1.742zm20.147 11.938c2.145-.931 4.29-1.397 6.437-1.754 2.142-.329 4.287-.484 6.432-.486 2.147-.003 4.29.153 6.432.479 2.147.354 4.292.823 6.44 1.759-2.147.937-4.292 1.405-6.44 1.759-2.142.329-4.287.481-6.432.481-2.145-.003-4.29-.155-6.432-.486-2.147-.355-4.292-.821-6.437-1.752zm-32.833-23.881c7.552-.926 15.11-1.408 22.665-1.739 7.555-.36 15.107-.453 22.665-.497 7.555.041 15.107.132 22.662.489 7.552.329 15.113.815 22.665 1.746-7.552.931-15.113 1.418-22.665 1.749-7.555.354-15.107.45-22.662.489-7.558-.044-15.11-.137-22.665-.494-7.555-.331-15.113-.814-22.665-1.743z"/></svg>