<svg xmlns="http://www.w3.org/2000/svg" viewBox="0.6 0.2 188 99.7" enable-background="new 0.6 0.2 188 99.7"><path d="M180.2 48.6c-.3 0-.5-.2-.5-.4v-22.9c0-.2.2-.4.4-.4 4.7.1 8.5 5.4 8.5 11.9 0 6.4-3.8 11.7-8.4 11.8zm-4 0c-4.8-.1-8.6-5.4-8.6-11.9s3.8-11.8 8.5-11.9c.2 0 .4.2.4.4v22.9c.1.3-.1.5-.3.5zm-8.7-36.8c0 .2-.2.4-.4.4h-23.1c-.2 0-.4-.2-.4-.4.1-4.7 5.4-8.5 11.9-8.5 6.6 0 11.9 3.8 11.9 8.5h.1zm-8.6 18.1c.2.2.2.5.1.6l-16 15.9c-.1.1-.4.1-.6 0-3.2-3.3-2.2-9.6 2.3-14.1 4.6-4.5 10.8-5.6 14.2-2.4zm-13.7 18.7l15.8-15.9c.1-.1.4-.1.6 0 3.2 3.3 2.2 9.6-2.3 14.1s-10.8 5.5-14.1 2.3c-.2-.1-.2-.4 0-.5zm-1.6-32.8v-.1c0-.2.2-.4.4-.4h23.1c.2 0 .4.2.4.4-.1 4.7-5.4 8.5-11.9 8.5-6.6.2-12-3.7-12-8.4zm-97.9-7c0 .2-.2.4-.4.4h-23.1c-.2 0-.4-.2-.4-.4.1-4.7 5.4-8.5 11.9-8.5 6.6 0 11.9 3.8 11.9 8.5h.1zm-32.5 36.8c-.3 0-.5-.2-.5-.4v-22.9c0-.2.2-.4.4-.4 4.7.1 8.5 5.4 8.5 11.9 0 6.4-3.7 11.7-8.4 11.8zm-4 0c-4.8-.1-8.6-5.3-8.6-11.9 0-6.5 3.8-11.8 8.5-11.9.2 0 .4.2.4.4v22.9c.1.3-.1.5-.3.5zm12.6-32.9c0-.2.2-.4.4-.4h23.1c.2 0 .4.2.4.4-.1 4.7-5.4 8.5-11.9 8.5-6.6.1-11.9-3.7-12-8.5zm5.8 17c.2-.2.5-.2.6 0l15.9 15.9c.1.1.1.4 0 .6-3.3 3.2-9.6 2.2-14.1-2.3-4.6-4.6-5.6-10.8-2.4-14.2zm2.7-2.7c3.4-3.3 9.7-2.2 14.2 2.3s5.5 10.8 2.3 14.1c-.2.1-.4.1-.6 0l-15.9-15.8c-.1-.2-.1-.4 0-.6zm90.9 38.5c-.1.2-.3.2-.3.2-.2.6 0 .8-.4 1.3-.1.1-.2.7-.3.7-.9.6-2.2 1.8-3.3 2.5-.5.3-1 .8-1.7 1.1-.2.1 0 .2-.3.2-.4 0-.8.7-1.1.9-1.5 1.2-2.9 2.3-4.2 3.2l-1.1.9-.8.2c-.5.3-1.6 1.7-2.7 1.6l-5.5 4.2c-.2.6.4.8.7 1.1.1.1.3.5.5.6.1.1.5 0 .5 0v.3c.7.5 1.6.8 2.2 1.2.2.1.3.4.5.6l.5.3c.3.3.6.6 1 .9l.5.6c.1.1.5 0 .5 0v.3c.1.1.5 0 .5 0v.3c.1.1.5 0 .5 0v.3l1.2.6c.1.1-.1.2.2.3.1 0 .6.2.7.3.2.1.3.4.5.6l1 .3v.3c.1.1.5 0 .5 0v.3c1.2.7 3.2 1.3 4.7 2.2.7.4 1.5 1 1.9 1.5.7.8 1.2 1.2 1.1 2.2-.1.7-.4 1.3-.9 1.7l-1 .2-.6.5c-.7.1-1.7-.1-2.3-.2 0 0 0-.3-.2-.3-.6-.1-.9-.1-1.5-.4-.1-.1-.1-.5-.2-.5-.4-.2-1.4-.3-2-.7l-.5-.6c-.9-.5-2-1-3-1.6-1.3-.8-2.2-1.6-3.4-2.4l-.7-.3-.2-.5c-.1-.1-.4 0-.5 0-.2-.1-.3-.4-.5-.6l-.5-.3-.2-.3-.7-.3c-.2-.1-.3-.4-.5-.6-.2-.1-.6-.6-1-.6-.1 0-.4-.2-.5-.3l-.5-.6c-.4-.3-1-.3-1.5-.7-.1-.1-.1-.5-.2-.5-.1-.1-.4 0-.5 0-.2-.2-.2-.4-.5-.6-1.7-1.1-2.5-.5-4.2.9-.8.6-1.5 1.6-2.3 2.1h-.5c-.2.2-.5.7-.9 1l-.8.2-.6.5c-1 .6-2 .9-2.7 1.3l-.3.5c-.4.1-.6.1-1.1.4l-1.1.9h-.5c-.2.2-.5.7-.9 1l-1.3.7c-.4.2-.8.6-1.4.9l-.8.2-.6.3c-1.1.2-2.2.1-3.9-.1-.2-.8-1.3-1.2-1.4-2.2 0-.8.7-1.3 1.2-2s1.8-1.2 2.7-1.8l1.3-.9c.4-.2.7-.4 1.1-.7l1.1-.9.8-.2.3-.5c.3-.1.6-.1.8-.2l.6-.5.8-.2.3-.5c.2-.1.5-.1.8-.2l.6-.5c.7-.4 1.3-1.1 2.2-1.6.2-.1.6 0 .8-.2l2.3-2.1c.1-.7-.5-1.1-.9-1.4l-.7-.3c-.2-.2-.2-.4-.5-.6-.1-.1-.5 0-.5 0-.1-.1-.1-.5-.2-.5-.3-.3-.7-.5-1.2-.9-.2-.1-.6-.6-1-.6-.1 0-.4-.2-.5-.3l-.5-.6-.7-.3-.5-.6-.7-.3c-.4-.3-.7-.5-1.2-.9l-.5-.6-1-.3c-.2-.1-.2-.4-.5-.6-.6-.4-1-.7-1.7-1.2l-.2-.3c-.4-.3-.8-.5-1.2-.9l-.5-.6c-.1-.1-.5 0-.5 0-.3-.4-.4-.5-1-.9l-.5-.6c-.4-.3-1.3-.8-1.7-1.4-.3-.6-.4-.8-.4-1.6 0-.5.7-2.2 1.5-2.2.1 0 1.2-.4 2.1-.1.3.1 1.4.6 2 1 .1.1 0 .2.2.3.1 0 .4.2.5.3l.5.6 1 .3c.2.1.3.4.5.6.3.3.5.7 1 .9h.5l.4.8c.2.2.5.2.7.3l.7.6.7.3c.2.1.3.4.5.6.2.2.6.6 1 .6.2 0 .9.4 1.2.6.1.1-.1.2.2.3.1 0 .4.2.5.3l.5.6c.1.1.5 0 .5 0 .3.5.8.6 1.4 1.2l.2.3.7.3 1.2 1.1 1 .3c.2.1.2.4.5.6.8.6 1.7 1.3 2.7 1.8.7.2 1.1-.3 1.6-.6l.6-.5c.6-.3 1.1-.6 1.9-1.1.8-.6 1.6-1.2 2.5-1.8l1.1-.9c.4-.3 1-.4 1.3-.7l1.1-.9 2.5-1.8c.8-.6 1.5-1.3 2.2-1.9l1.3-.7.6-.5c.5-.5.7-1.1 1.4-1.7.3-.3.8-.7 1.1-.9l.6-.5h.5s.5-.9 1.1-.7c.6-.6 1.1-1.4 2.2-1.4.5 0 .6-.3 1-.2.7.2 1.4.3 2 .7.1.1.5 0 .5 0l.2.5c.3.4.3.4.4 1.1.2.7.5.9.4 1.3zm-11.8-10.4s-.2 0-.3.2v.3c-.1.2-.2.4-.3.7-.1.2-.3.2-.3.2l-.4 1.8c-.1.1-.5.1-.5.2-.1.2.1.6-.1.8-.1.1-.2-.1-.3.2 0 .3-.8.8-1.1 1.2-.9 1-1.2 1.7-2.3 2.6-.3.3-.8.7-1.1.9-.6.5-1.2.7-1.9 1.1-.4.3-1 .6-1.9.9-.1 0-.4-.1-.5 0v.3c-.1 0-.4-.1-.5 0-.3.3-.5.1-1 .2s-1.9.2-3.1 0c-1.2-.2-2.5-.8-3.8-1.4h-.5c-.2-.2-.2-.2-.5-.3l-.7-.3c-.2-.3-.4-.4-.7-.6l-.6-.7c-.1-.1-.4 0-.5 0l-.7-.3c-.3-.4-1.2-.8-2-1.2-.1-.1 0-.2-.2-.3-.4-.1-.5-.8-1-.9-.2 0-1.6-1.6-1.9-2l-1.3-2.4-.5-.6-.2-1c-.1-.1-.2 0-.2-.3 0-.4-.7-1.6-.8-2.1-.2-.8-.2-1.6-.3-2.4 0 0-.2-.1-.2-.3l.1-.8c-.2-2.9.4-7.2 1.4-9.9 0 0 .2-.1.3-.2.2-.7.6-1.9 1-2.8 0-.1.2 0 .3-.2.1-.1 0-.4 0-.5l.6-.5c.2-.5 0-.8.4-1.3.2-.2.2-.4.3-.7.1-.2.4-.6.6-1l.3-.7.6-.5c.3-.4.4-1 .7-1.5l.6-.5.3-.7c.5-.8 1.1-1.7 1.8-2.4.3-.4.8-.6 1.1-.9l.3-.7c.1-.2.4-.3.6-.5l.3-.7c.1-.2.4-.3.6-.5.6-.7.9-1 1.7-1.7.2-.2.4-.6.6-.7l1-.2c.2-.1.4-.5.6-.7 1.1-.8 1.9-1.8 2.8-2.3.2-.1.5-.4.8-.4 1-.1 2.1.1 2.8.8.4 2.8-.7 3.5-.3 5.9.1.8.7 1.8 1.1 2.7.5 1.2 1 2.3 1.5 3.2.1.2.2 0 .2.3 0 .7 1.1 2 1.6 2.7.7 1.1 1.2 2.1 1.8 3 .1.2.2 0 .2.3 0 .5.6.6.9 1.1v.5c.3.3.4.5.7 1.1.1.2.2 0 .2.3s.5.4.4.8c0 .4.4.8.7 1.3.1.2.4.7.4 1.1l.2.5.4 1.6c.1.3.1.4.2.8 0 .2.1.7.2 1 .1.3.1.6.2 1 .4 1.8 0 5-.4 7.5-.4.5-.4 1.1-.5 1.5zm-6.3-9.8c-.1-.4-.1-.5-.2-.8l-.2-1-.5-.6v-.5c0-.6-.3-.9-.4-1.3-.2-.8-.3-1-.7-1.3v-.5l-.7-.6v-.5l-.5-.3-.4-.8c-.4-.5-.9-.9-1.2-1.4l-.9-1.6-.7-.6v-.5l-.5-.3-.2-1-.2-.3c-.3-.5-.7-.8-.9-1.1l-.2-1-.2-.3c-.3-.6-.4-1.1-.6-1.6-.3 0-.3-.2-.5-.3 0-.2 0-.3-.2-.3-.8 1-1.5 2.3-2.3 2.9-.1.1 0 .4 0 .5h-.3c-.1.1 0 .4 0 .5l-.5.2c-.2.3-.6 1-.6 1.2 0 .3-.2.1-.3.2-.3.4-.4 1.4-.7 1.7h-.3c-.1.1 0 .4 0 .5-.1.1-.5.1-.5.2-.3.5-.6 1.3-1 2l-1 2.2c-.3.9-.6 2.2-1 2.5-.1.1 0 .4 0 .5-.9 1.7-.9 4.3-1.1 6.9.2.4.3.9.4 1.1.3.5.1 1.4.3 2.1 0-.1.2.3.2.3.2.3.3.5.4.8l.4.8.4.8c.7 1.4 1.7 2.4 2.5 3.6.7.1 1.6.8 2 1h.3c.3 0 .1.2.2.3.4.3 1.3.8 1.7.9.9.3 2.4.7 3.6.6.5-.1 1.1-.6 1.6-.9.8-.5 1.4-1 1.9-1.4v-.5l.8-.4.3-1c.1-.2.5-.1.6-.5 0-.3.2-.1.3-.2l.4-2c.2-.6.6-1.2.7-1.7.9-3 .8-5.7.5-7.2z"/></svg>