<svg xmlns="http://www.w3.org/2000/svg" viewBox="-454.703 255.577 49.521 49.724" enable-background="new -454.703 255.577 49.521 49.724"><style type="text/css">.st0{fill:#939394;stroke:#000000;stroke-width:2;stroke-miterlimit:10;}</style><path class="st0" d="M-452.434 289.859c-1.108-6.167-2.376-11.929.428-18.98 1.027-2.584 3.444-5.015 5.229-7.206 1.624-1.994 3.579-3.467 5.593-4.402 4.098-1.901 8.42-2.882 12.831-2.664 4.83 1.463 9.11 2.772 13.612 6.028 1.32.954 3.076 2.406 4.327 3.871.793.928 2.248 3.481 2.847 4.849 1.241 2.832 1.364 6.226 1.384 9.498.025 4.011-.625 7.109-3.526 11.393-.678 1.002-1.827 2.009-2.735 3.152-1.621 2.038-2.901 3.349-4.726 4.749-2.488 1.909-3.886 2.874-6.72 3.446-2.129.429-4.616.679-6.97.706-2.514.03-5.215-.237-7.291-.852-7.505-2.222-11.414-7.963-14.283-13.588z"/><path d="M-430.504 274.31c-.97.057-1.941.166-2.91.259-.97.087-1.94.089-2.91.003-.969-.088-1.939-.221-2.907-.431-.969-.201-1.938-.457-2.907-.866l.002-.284c.971-.403 1.941-.652 2.912-.845.97-.203 1.94-.328 2.911-.41.97-.079 1.94-.069 2.909.025.969.099 1.939.216 2.908.28 1.939.125 3.878.274 5.817.447 1.939.198 3.878.355 5.816.588v.283c-1.941.221-3.881.363-5.821.547-1.94.158-3.88.293-5.82.404zm8.728 6.985c-.97.203-1.941.328-2.911.41-.97.079-1.94.069-2.909-.025-.969-.1-1.939-.216-2.908-.28-1.939-.125-3.878-.274-5.817-.447-1.939-.198-3.878-.355-5.816-.588v-.283c1.941-.221 3.881-.363 5.821-.547 1.94-.158 3.88-.293 5.82-.404.97-.057 1.94-.166 2.91-.259.97-.087 1.94-.089 2.91-.003.969.088 1.938.221 2.907.431.969.201 1.938.456 2.907.866l-.002.284c-.971.403-1.942.652-2.912.845zm-17.448 5.033c.97-.204 1.94-.329 2.911-.41.97-.079 1.94-.069 2.909.025.969.099 1.939.216 2.908.28 1.939.125 3.878.274 5.817.446 1.939.198 3.878.356 5.816.588v.284c-1.941.22-3.881.363-5.821.547-1.94.158-3.88.293-5.82.404-.97.057-1.941.166-2.91.259-.97.086-1.94.089-2.91.003-.969-.089-1.939-.221-2.907-.431-.969-.201-1.938-.457-2.907-.867l.002-.284c.971-.402 1.941-.651 2.912-.844z"/></svg>