<svg baseProfile="full" xmlns="http://www.w3.org/2000/svg" height="25" width="33"><path d="M25.267 9.123c-.733.598-1.619 1.154-2.438 1.728.046.196.636.252.914.318 3.198-1.495 5.108 1.549 7.19 3.988-3.067.987-6.229.243-7.564-3.504-1.512-.909-3.901 1.268-5.938 2.211.045.195.635.252.912.318 3.307-1.737 5.226 1.412 7.332 3.909-2.687.688-5.035.558-6.656-1.711-.293-.411-.407-1.165-.791-1.582-1.244-1.353-3.993 1.023-6.126 2.039.058.15.659.168.912.319 3.306-1.733 5.26 1.293 7.332 3.909-2.885.772-5.443.351-7.009-2.343-.168-.288-.233-.771-.477-1.021-1.219-1.247-3.939 1.086-6.017 2.071.045.196.635.252.914.318 3.309-1.75 5.213 1.451 7.33 3.909-3.032.911-5.972.384-7.486-3.363-1.699-1.085-4.408 1.392-6.718 2.461l-.508-.911c2.122-1.385 5.542-2.401 5.661-4.355-2.346-3.244-1.255-6.021 1.069-8.136 1.07 3.086 2.649 6.602-.522 8.291-.269.239-.187.576-.358.844 1.913-1.022 5.07-2.175 5.07-3.933-2.298-3.465-1.18-5.962 1.069-8.136 1.125 3.133 2.764 6.41-.523 8.291-.102.266-.217.528-.286.804 1.934-1.026 5.142-2.199 5.03-4.003-2.303-3.212-1.173-5.958 1.108-8.066.866 2.396 2.158 5.614.802 7.368-.427.552-1.724.82-1.612 1.727 1.82-.98 4.908-2.109 5.077-3.753-2.464-3.109-1.43-6.169.991-8.277.973 3.069 2.643 6.337-.453 8.252-.128.279-.21.57-.247.875.884-.306 2.067-.583 2.712-1.238.326-.331.166-1.061.293-1.451.909-2.782 4.59-2.839 6.797-2.322-.046 2.634-4.131 6.476-6.786 4.155z"/></svg>