<svg baseProfile="full" xmlns="http://www.w3.org/2000/svg" height="32" width="38"><path d="M10.743 6.333c.921-.591-.022-1.954 1.177-2.648.747-.601 1.638.54 2.648.587 1.216-3.027-2.354-3.693-4.708-4.119-.839 1.884-2.215 5.825.883 6.18zm15.3-2.943c.525.652 1.159 1.195.883 2.649 3.601.447 2.301-4.863.883-5.886-2.155.591-4.86.633-4.708 3.532 1.032.884 1.771-.409 2.942-.295zm-3.236.589c-1.594-.144.657-2.383-.883-2.353-1.62 1.028-3.177 3.353-2.354 5.883 1.551-.704 1.599-2.912 3.237-3.53zm-4.414 3.53c.69-2.487-.613-5.177-2.942-5.59.474.947.243 1.95-.294 2.649 2.278-.22 1.378 2.74 3.236 2.941zm7.356-2.941c-2.247-.041-5.013.803-3.825 3.235.931.048.984-.781 2.06-.588.684.394.454 1.704.882 2.354 2.399-.523 1.54-3.198.883-5.001zm1.471 2.353c.872 1.821-1.209 2.528-1.471 4.12 2.006.522 5.243-3.064 3.531-5.298-.431.649-.779 1.379-2.06 1.178zm-15.3 4.414c.151-2.007-2.098-2.543-1.177-4.414-1.589.413-1.56-.793-2.648-.882-.033 3.071 1.449 4.63 3.825 5.296zm5.296-.883c-6.885 1.822-3.771 12.594 3.531 10.888 6.517-1.526 4.16-12.923-3.531-10.888zm-2.354 4.413c.146-.841.766-2.376 2.943-2.941 3.085-.804 5.64 1.067 5.296 4.413-.54 5.248-9.29 4.584-8.239-1.472zm11.769-2.354c3.077.296 4.044.928 6.474-.295-.938-2.354-5.648-1.547-6.474.295zm-20.008.883c1.325-1.218 4.101.304 4.708-1.178-1.231-1.028-5.529-2.164-6.473 0 .694.288 1.867.096 1.765 1.178zm25.011.295c.064 1.407 1.886 1.056 1.765 2.648-.211 1.063-1.709.841-1.765 2.059 1.905 2.199 4.898-.574 5.59-2.353-1.207-1.455-3.418-4.537-5.59-2.354zm-25.305 4.413c-.569-.706-1.651-.898-1.765-2.059.099-1.274 1.717-1.029 1.765-2.354-2.474-1.683-4.744.857-5.59 2.648.794 1.386 4.136 4.743 5.59 1.765zm21.186 0c1.902 1.53 3.824-.49 4.708-1.765-.533-1.391-3.069-4.271-4.414-2.06-.703.627 1.499.837 1.176 2.06-.11.967-1.564.593-1.47 1.765zm-17.066-3.825c-1.907-1.635-4.194.447-4.709 2.06.894 1.126 2.219 3.195 4.414 2.059.804-1.092-1.517-1.093-1.177-2.648.206-.775 1.34-.622 1.472-1.471zm16.182 5.59c1.081 1.556 5.236 2.179 6.474.294-1.068-.206-1.602-.948-2.354-1.47-.482 1.916-3.365-.395-4.12 1.176zm-20.008-.883c.252 1.428-1.907.447-1.765 1.766 2.166 1.167 5.06.836 6.473-.883-.986-.865-3.379.175-4.708-.883zm4.12 6.179c-.795-2.346 2.409-3.225.883-4.413-1.954.657-4.406 3.42-2.943 5.59.431-.647.78-1.378 2.06-1.177zm15.3-4.413c-.099 1.841 2.372 2.431 1.177 4.413 1.589-.411 1.56.795 2.649.884.206-3.247-1.468-4.614-3.826-5.297zm-13.829 6.767c2.121-.33 4.401-.502 4.414-2.943-1.396-.376-3.636 1.119-3.237-2.059-2.728-.225-1.627 3.532-1.177 5.002zm11.475-2.647c-.904.043-1.323-1.036-2.059-.296-.238 2.592 2.222 2.485 4.119 2.943.703-1.403 1.831-4.94-.883-5.002-.484.692-.092 2.262-1.177 2.355zm-5.884-.296c-.771.996-.701 2.831-2.354 2.943.777.894-.355 2.36.294 2.943 1.835-1.009 3.129-2.56 2.942-5.59-.376-.017-.407-.377-.882-.296zm1.765 0c-.382 3.035.989 5.874 3.237 5.297-.759-.403-.066-1.803 0-2.354-2.176.118-1.276-2.843-3.237-2.943zm-7.65 3.827c-1.363-.11-.194-2.749-1.766-2.648-2.168 1.048-1.135 4.263-.294 6.177 2.28-.66 5.401-.484 5.002-3.823-1.035-.726-2.029.988-2.942.294zm15.3-2.648c-.432 1.038-.22 2.722-1.471 2.943-1.04.053-1.61-1.247-2.354-.589-.95 2.837 2.506 3.486 5.002 3.823.514-1.94 2.126-6.079-1.177-6.177zm-10.886-17.95c.829-2.272-2.001-2.979-4.12-3.235-.43 1.875-1.823 4.97 1.177 5.001-.295-2.57 1.317-2.432 2.943-1.766z"/></svg>