<svg xmlns="http://www.w3.org/2000/svg" viewBox="-346.876 279.562 263.751 3.375" enable-background="new -346.876 279.562 263.751 3.375"><style type="text/css">.st0{fill:#FBB040;}</style><path class="st0" d="M-83.687 280.687c-1.108 0-1.644.459-2.265.99-.691.591-1.474 1.26-2.997 1.26s-2.305-.669-2.996-1.259c-.622-.532-1.158-.991-2.266-.991-1.107 0-1.643.459-2.263.99-.69.591-1.473 1.26-2.995 1.26s-2.303-.669-2.993-1.26c-.62-.531-1.155-.99-2.261-.99-1.107 0-1.642.459-2.263.99-.69.591-1.472 1.26-2.994 1.26s-2.303-.669-2.993-1.26c-.621-.531-1.156-.99-2.262-.99s-1.642.459-2.262.99c-.69.591-1.472 1.26-2.993 1.26-1.522 0-2.304-.669-2.994-1.26-.62-.531-1.156-.99-2.262-.99-1.105 0-1.64.459-2.26.99-.69.591-1.471 1.26-2.993 1.26-1.521 0-2.303-.669-2.993-1.26-.621-.531-1.156-.99-2.263-.99-1.106 0-1.641.459-2.261.99-.69.591-1.472 1.26-2.994 1.26-1.522 0-2.304-.669-2.994-1.26-.62-.531-1.156-.99-2.261-.99-1.106 0-1.641.459-2.262.99-.69.591-1.472 1.26-2.994 1.26s-2.303-.669-2.993-1.26c-.621-.531-1.156-.99-2.262-.99s-1.642.459-2.262.99c-.689.591-1.471 1.26-2.993 1.26-1.521 0-2.303-.669-2.992-1.26-.62-.531-1.156-.99-2.261-.99-1.106 0-1.642.459-2.262.99-.689.591-1.471 1.26-2.993 1.26-1.521 0-2.303-.669-2.993-1.26-.62-.531-1.155-.99-2.261-.99-1.105 0-1.64.459-2.26.99-.69.591-1.472 1.26-2.993 1.26s-2.302-.669-2.992-1.26c-.62-.531-1.155-.99-2.26-.99-1.106 0-1.642.459-2.262.99-.689.591-1.471 1.26-2.993 1.26-1.52 0-2.301-.669-2.991-1.26-.62-.531-1.155-.99-2.26-.99s-1.641.459-2.261.99c-.689.591-1.471 1.26-2.993 1.26-1.521 0-2.302-.669-2.991-1.26-.609-.521-1.136-.971-2.199-.988-1.066.017-1.595.467-2.204.988-.691.591-1.474 1.26-2.997 1.26h-.111c-1.521 0-2.303-.669-2.992-1.26-.611-.523-1.14-.974-2.21-.988-1.071.014-1.602.465-2.212.988-.69.591-1.473 1.26-2.995 1.26s-2.303-.669-2.993-1.26c-.62-.531-1.155-.99-2.261-.99-1.107 0-1.642.459-2.263.99-.69.591-1.472 1.26-2.994 1.26-1.521 0-2.303-.669-2.993-1.26-.621-.531-1.156-.99-2.262-.99s-1.642.459-2.262.99c-.69.591-1.472 1.26-2.994 1.26-1.521 0-2.303-.669-2.993-1.26-.62-.531-1.156-.99-2.262-.99-1.105 0-1.64.459-2.26.99-.69.591-1.471 1.26-2.993 1.26-1.521 0-2.303-.669-2.993-1.26-.621-.531-1.156-.99-2.263-.99-1.106 0-1.641.459-2.261.99-.69.591-1.472 1.26-2.994 1.26s-2.304-.669-2.994-1.26c-.62-.531-1.156-.99-2.261-.99-1.106 0-1.641.459-2.262.99-.69.591-1.472 1.26-2.994 1.26s-2.303-.669-2.993-1.26c-.621-.531-1.156-.99-2.262-.99s-1.642.459-2.262.99c-.689.591-1.471 1.26-2.993 1.26-1.521 0-2.303-.669-2.992-1.26-.62-.531-1.156-.99-2.261-.99-1.106 0-1.642.459-2.262.99-.689.591-1.471 1.26-2.993 1.26-1.521 0-2.303-.669-2.993-1.26-.62-.531-1.155-.99-2.261-.99-1.105 0-1.64.459-2.26.99-.69.591-1.472 1.26-2.993 1.26s-2.302-.669-2.992-1.26c-.62-.531-1.155-.99-2.26-.99-1.106 0-1.642.459-2.262.99-.689.591-1.471 1.26-2.993 1.26-1.52 0-2.301-.669-2.991-1.26-.62-.531-1.155-.99-2.26-.99-1.105 0-1.641.459-2.261.99-.689.591-1.471 1.26-2.993 1.26-1.521 0-2.302-.669-2.991-1.26-.62-.531-1.155-.99-2.26-.99-1.105 0-1.64.459-2.26.99-.689.591-1.471 1.26-2.991 1.26-1.521 0-2.303-.669-2.992-1.26-.62-.531-1.156-.99-2.261-.99-.311 0-.563-.252-.563-.562 0-.311.252-.563.563-.563 1.521 0 2.303.67 2.992 1.261.62.531 1.156.989 2.261.989 1.104 0 1.639-.458 2.259-.989.689-.591 1.471-1.261 2.992-1.261s2.302.67 2.991 1.261c.62.531 1.155.989 2.26.989 1.106 0 1.641-.458 2.261-.989.69-.591 1.472-1.261 2.993-1.261s2.303.67 2.992 1.261c.62.531 1.155.989 2.259.989 1.106 0 1.642-.458 2.262-.989.689-.591 1.471-1.261 2.993-1.261 1.521 0 2.302.67 2.992 1.261.62.531 1.155.989 2.26.989 1.105 0 1.641-.458 2.261-.989.69-.591 1.471-1.261 2.992-1.261 1.522 0 2.303.67 2.993 1.261.62.531 1.156.989 2.261.989 1.106 0 1.642-.458 2.261-.989.69-.591 1.472-1.261 2.994-1.261 1.521 0 2.303.67 2.993 1.261.62.531 1.155.989 2.26.989 1.106 0 1.642-.458 2.262-.989.689-.591 1.471-1.261 2.993-1.261s2.303.67 2.993 1.261c.621.531 1.156.989 2.262.989s1.642-.458 2.263-.989c.689-.591 1.471-1.261 2.993-1.261 1.521 0 2.303.67 2.993 1.261.62.531 1.156.989 2.262.989s1.641-.458 2.262-.989c.69-.591 1.471-1.261 2.993-1.261s2.304.67 2.994 1.261c.621.531 1.156.989 2.262.989s1.641-.458 2.261-.989c.69-.591 1.471-1.261 2.992-1.261 1.522 0 2.304.67 2.994 1.261.62.531 1.156.989 2.261.989 1.106 0 1.642-.458 2.262-.989.69-.591 1.472-1.261 2.994-1.261s2.303.67 2.993 1.261c.621.531 1.157.989 2.262.989 1.106 0 1.642-.458 2.263-.989.69-.591 1.472-1.261 2.994-1.261s2.304.67 2.993 1.261c.62.531 1.155.989 2.261.989 1.107 0 1.643-.458 2.263-.989.669-.573 1.424-1.219 2.855-1.259l.038-.002.051.001.051-.001c1.523 0 2.306.67 2.997 1.261.611.521 1.14.972 2.21.988 1.066-.016 1.594-.466 2.203-.988.689-.591 1.471-1.261 2.992-1.261l.061.001.061-.001.064.004c1.399.053 2.145.69 2.805 1.257.62.531 1.155.989 2.26.989 1.106 0 1.642-.458 2.261-.989.69-.591 1.472-1.261 2.993-1.261s2.303.67 2.992 1.261c.62.531 1.155.989 2.259.989 1.106 0 1.642-.458 2.262-.989.689-.591 1.471-1.261 2.993-1.261 1.521 0 2.302.67 2.992 1.261.62.531 1.155.989 2.26.989 1.105 0 1.641-.458 2.261-.989.69-.591 1.471-1.261 2.992-1.261 1.522 0 2.303.67 2.993 1.261.62.531 1.156.989 2.261.989 1.106 0 1.642-.458 2.261-.989.69-.591 1.472-1.261 2.994-1.261 1.521 0 2.303.67 2.993 1.261.62.531 1.155.989 2.26.989 1.106 0 1.642-.458 2.262-.989.689-.591 1.471-1.261 2.993-1.261s2.303.67 2.993 1.261c.621.531 1.157.989 2.262.989 1.106 0 1.642-.458 2.263-.989.689-.591 1.471-1.261 2.993-1.261 1.521 0 2.303.67 2.993 1.261.62.531 1.156.989 2.262.989s1.641-.458 2.262-.989c.69-.591 1.471-1.261 2.993-1.261 1.522 0 2.304.67 2.994 1.261.621.531 1.156.989 2.262.989s1.641-.458 2.261-.989c.69-.591 1.471-1.261 2.992-1.261 1.522 0 2.304.67 2.994 1.261.62.531 1.156.989 2.262.989 1.105 0 1.64-.458 2.261-.989.69-.591 1.472-1.261 2.994-1.261s2.303.67 2.993 1.261c.621.531 1.157.989 2.262.989 1.106 0 1.642-.458 2.263-.989.69-.591 1.472-1.261 2.994-1.261 1.522 0 2.304.67 2.993 1.261.62.531 1.156.989 2.261.989 1.107 0 1.643-.458 2.263-.989.691-.591 1.473-1.261 2.995-1.261 1.523 0 2.306.67 2.997 1.261.621.531 1.157.989 2.265.989s1.645-.458 2.266-.989c.69-.591 1.473-1.261 2.996-1.261.311 0 .562.252.562.563 0 .31-.251.562-.562.562z"/></svg>