<?xml version="1.0" encoding="utf-8"?>
<!-- Generator: Adobe Illustrator 18.1.1, SVG Export Plug-In . SVG Version: 6.00 Build 0)  -->
<!DOCTYPE svg PUBLIC "-//W3C//DTD SVG 1.1//EN" "http://www.w3.org/Graphics/SVG/1.1/DTD/svg11.dtd" [
	<!ENTITY st0 "fill:#070707;">
	<!ENTITY st1 "font-family:'Wisdom-Script';">
	<!ENTITY st2 "font-size:66;">
	<!ENTITY st3 "fill-rule:evenodd;clip-rule:evenodd;fill:#070707;">
]>
<svg version="1.1" id="_x31__x5F_welcome_x28_home_x29_"
	 xmlns="http://www.w3.org/2000/svg" xmlns:xlink="http://www.w3.org/1999/xlink" x="0px" y="0px" viewBox="0 0 269.291 201.26"
	 style="enable-background:new 0 0 269.291 201.26;" xml:space="preserve">
<g>
	<g>
		<path style="&st0;" d="M172.729,142.005c1.534,0.883-0.11,0.671-1.235,0.345c-3.246,1.992-6.344,4.241-9.144,6.722l-3.273,7.473
			l4.978,14.73l5.268,5.905l1.8,0.968l1.603-8.52l2.688-2.039l0.286,2.567l-0.427,9.044l6.689,6.88l11.309,4.383l1.85,0.171
			l-0.859-2.37l-2.992-12.607l1.123-2.421l7.275,12.837l4.855,2.815l10.79-0.344l-0.249-2.618l-3.401-6.62l-0.034-5.641l2.445,2.84
			l2.426,4.557l4.252,4.638l5.106,0.117l8.527-3.234l5.116-3.017l-66.075-38.362c-0.347,0.199-0.691,0.405-1.036,0.61
			C172.503,141.877,172.618,141.942,172.729,142.005z M225.514,175.77l0.101,0.054l1.006,1.235l2.125,2.182l0.184,1.848l0.002,0.003
			l-0.172,0.164l-1.097-0.112l-0.812-0.417l-0.792-1.502l-0.521-1.631l-0.151-1.7L225.514,175.77z M218.082,172.749l0.146-0.091
			l0.089,0.09l0.755,2.224l2.198,4.058l0.177,2.564l-0.174,0.131l-0.031-0.002l-1.237-0.685l-0.888-0.93l-0.791-2.358l-0.418-2.48
			L218.082,172.749z M208.429,168.436l0.176-1.92l0.46-1.936l0.16-0.071l0.069,0.088l0.004,0.025l1.498,5.34l-0.786,1.996
			l-0.007,0.006l-0.225,0.051l-0.868-0.802l-0.482-0.874L208.429,168.436z M199.419,163.117l0.464-2.98l0.158-0.064l0.068,0.136
			l0.045,2.842l0.811,5.83l0.157,2.954l1.621,11.342l-0.113,0.099l-0.07-0.031l-0.056-0.068l-2.849-5.237l-0.444-6.067
			L199.419,163.117z M164.892,148.766l1.459-1.498l1.67-1.27l1.817-1.038l1.088-0.04l1.186,0.345l0.063,0.222l-1.497,1.648
			l-5.648,1.818l-0.16-0.071L164.892,148.766z M188.017,164.095l0.591-4.248l0.9-1.994l1.333-1.835l0.188-0.001l0.038,0.076
			l-0.136,4.24l-1.731,8.021l-0.215,4.129l-0.115,0.124l-0.118-0.081l-0.748-4.163L188.017,164.095z M178.813,161.121l1.605-6.888
			l0.931-1.548l1.299-1.419l0.196,0.012l0.027,0.066l-0.198,3.609l-3.905,9.72l-0.148,0.088l-0.089-0.105L178.813,161.121z
			 M178.077,148.783l0.168,0.049l-0.002,0.113l-6.728,10.377l-2.491,5.488l-0.276,5.933l-0.09,0.144l-0.135-0.066l-0.668-6.221
			l1.966-6.113l3.292-5.527l2.285-2.292L178.077,148.783z M174.902,146.906l0.137,0.131l-0.027,0.07l-2.548,2.818l-6.054,4.004
			l-2.678,2.464l-0.172,0.02l-0.031-0.135l2.054-3.172l2.638-2.727l2.94-2.389l1.774-0.726L174.902,146.906z"/>
		<path style="&st0;" d="M169.073,142.096l1.07-0.355c-0.633-0.336-1.253-0.62-1.859-0.852c-5.03,3.099-9.709,6.805-13.466,11.045
			c-0.126,1.854-0.117,3.703,0.008,5.545c2.074-3.036,4.635-5.848,7.524-8.407l1.26-2.876L169.073,142.096z"/>
		<path style="&st0;" d="M178.288,137.477l7.039-4.093c-0.354-0.121-0.679-0.171-0.91-0.092c-4.971,1.698-10.17,4.05-15.083,6.967
			c0.726,0.327,1.436,0.678,2.126,1.044l1.36-0.451l0.605,0.352c0.896-0.514,1.8-1.007,2.71-1.482
			c-0.554-0.319-0.856-0.495-0.856-0.495L178.288,137.477z"/>
		<path style="&st0;" d="M148.334,184.111c0.352,0.879,3.426,1.408,3.288,1.066c-3.392-8.427-2.728-16.118,0.434-22.885
			c-0.412-1.854-0.725-3.723-0.902-5.573C146.05,164.527,144.176,173.776,148.334,184.111z"/>
		<path style="&st0;" d="M178.288,137.477l-3.009,1.749c0,0,0.303,0.176,0.856,0.495c0.629-0.329,1.26-0.648,1.892-0.959
			L178.288,137.477z"/>
		<path style="&st0;" d="M171.46,141.303c0.314,0.168,0.625,0.338,0.93,0.511c0.345-0.205,0.689-0.411,1.036-0.61l-0.605-0.352
			L171.46,141.303z"/>
		<path style="&st0;" d="M170.753,142.072c-0.204-0.118-0.407-0.226-0.609-0.332l-1.07,0.355l-5.463,4.1l-1.26,2.876
			c2.8-2.48,5.897-4.729,9.144-6.722C171.18,142.26,170.906,142.16,170.753,142.072z"/>
		<path style="&st0;" d="M157.518,178.026c0.396,0.876,3.423,1.367,3.288,1.067c-3.059-6.798-5.471-14.136-5.98-21.614
			c-1.058,1.549-1.992,3.152-2.77,4.814C153.342,168.074,155.568,173.693,157.518,178.026z"/>
		<path style="&st0;" d="M154.885,150.974c0.767-8.233,6.021-12.907,13.399-10.085c0.347-0.215,0.698-0.421,1.05-0.63
			c-5.725-2.578-12.36-3.576-15.972,2.892c-2.193,3.927-2.679,8.679-2.208,13.569c1.086-1.66,2.311-3.26,3.664-4.786
			C154.84,151.613,154.854,151.293,154.885,150.974z"/>
		<path style="&st0;" d="M172.729,142.005c-0.111-0.063-0.227-0.128-0.34-0.191c-0.299,0.178-0.599,0.354-0.895,0.536
			C172.619,142.676,174.263,142.888,172.729,142.005z"/>
		<path style="&st0;" d="M154.818,151.934c-1.353,1.526-2.578,3.126-3.664,4.786c0.178,1.851,0.49,3.72,0.902,5.573
			c0.777-1.662,1.712-3.266,2.77-4.814C154.701,155.637,154.692,153.787,154.818,151.934z"/>
		<path style="&st0;" d="M170.143,141.74l1.316-0.438c-0.689-0.366-1.4-0.717-2.126-1.044c-0.352,0.209-0.703,0.415-1.05,0.63
			C168.89,141.12,169.51,141.404,170.143,141.74z"/>
		<path style="&st0;" d="M170.753,142.072c0.153,0.088,0.428,0.188,0.741,0.277c0.297-0.183,0.597-0.358,0.895-0.536
			c-0.305-0.173-0.615-0.343-0.93-0.511l-1.316,0.438C170.345,141.847,170.549,141.954,170.753,142.072z"/>
		<path style="&st0;" d="M265.642,86.402l-13.962,8.403l-66.354,38.578c1.066,0.363,2.392,1.368,2.191,1.438
			c-3.112,1.064-6.319,2.386-9.491,3.941l-0.373,1.838c0.966,0.558,2.193,1.269,3.629,2.1v-0.58l0.663-1.256l1.154-1.116
			l0.295,0.074l0.893,2.763l-0.352,1.651c0.673,0.39,1.373,0.794,2.1,1.215l-0.466-2.855l0.33-2.48l0.87-2.456l0.237-0.07
			l0.064,0.076l1.53,4.713l0.3,4.733c2.777,1.607,5.797,3.357,8.883,5.146l-1.218-1.338l-4.113-7.308l-1.107-4.071l-0.394-4.251
			l0.165-0.161l0.129,0.074l7.364,14.345l3.936,5.471c5.32,3.087,10.558,6.129,14.809,8.606l0.023-0.004l2.264-1.405l-8.594-7.345
			l-0.562-4.362l3.09,1.34l9.947,6.355l12.123-3.097l12.3-9.941l1.39-1.981l-3.235-0.567l-16.199-4.8l-2.007-2.844l19.235,0.109
			l6.341-3.663l6.612-12.423l-3.124-1.416l-9.692-0.45l-6.396-3.628l4.796-0.921l6.726,0.215l8.006-1.796l3.445-5.698l1.88-11.743
			L265.642,86.402z M228.955,110.278l0.145-0.024l0.029,0.011l7.01,1.775l1.747,2.184l0.003,0.014l-0.089,0.285l-1.468,0.461
			l-1.301-0.02l-2.152-1.238l-2.056-1.445l-1.892-1.777L228.955,110.278z M209.195,145.077l-3.811-2.613l-6.749-6.284l-1.144-2.058
			l-0.764-2.392l0.14-0.215l0.095,0.013l3.951,2.57l8.457,10.727l0.002,0.221L209.195,145.077z M224.73,138.628l-5.19-1.855
			l-4.82-2.788l-4.419-3.426l-1.669-2.311l-1.208-2.699l0.118-0.215l0.112,0.009l4.705,2.903l7.942,7.168l4.533,2.918l0.064,0.213
			L224.73,138.628z M245.856,129.725l0.037,0.188l-0.083,0.061l-0.111,0.02l-7.77-0.177l-7.148-3.437l-9.764-5.918l-3.068-2.459
			l0.029-0.222l0.2,0.014l3.241,1.795l7.117,2.864l3.442,1.741L245.856,129.725z M256.219,107.861l-1.579,0.956l-1.623,0.4
			l-3.183-0.637l-3.075-1.138l-2.737-1.831l-0.008-0.225l0.16-0.045l3.003,0.591l6.016,0.148l3.016,1.466l0.035,0.283
			L256.219,107.861z M259.73,100.228l-0.999,0.647l-2.209-0.079l-2.183-0.47l-2.021-0.934l-0.056-0.225l0.125-0.079l2.053-0.332
			l3.843-0.991l2.213,0.992l0.002,0.004l0.075,0.298L259.73,100.228z"/>
		<path style="&st0;" d="M178.027,138.762c3.172-1.555,6.379-2.877,9.491-3.941c0.2-0.069-1.126-1.074-2.191-1.438l-7.039,4.093
			L178.027,138.762z"/>
	</g>
	<text transform="matrix(1.0877 -0.638 0.5059 0.8626 16.0838 206.8924)" style="&st0; &st1; &st2;">Welcome</text>
	<g>
		<path style="&st0;" d="M124.938,72.596c-0.191,0-0.384-0.048-0.561-0.15l-42.876-24.75c-0.537-0.31-0.721-0.997-0.411-1.534
			c0.311-0.538,0.998-0.722,1.534-0.411l42.876,24.75c0.537,0.31,0.721,0.997,0.411,1.534
			C125.703,72.394,125.326,72.596,124.938,72.596z"/>
		<path style="&st0;" d="M81.099,48.604c-1.01-0.583-1.355-1.874-0.773-2.883c0.582-1.01,1.874-1.355,2.882-0.773
			c1.01,0.583,1.356,1.874,0.774,2.883C83.4,48.84,82.108,49.187,81.099,48.604z"/>
		<path style="&st0;" d="M83.414,60.548c-0.419,0-0.82-0.234-1.013-0.637c-0.268-0.558-0.033-1.229,0.526-1.498l10.571-5.078
			l-1.085-11.83c-0.056-0.619,0.398-1.165,1.015-1.222c0.633-0.059,1.164,0.398,1.221,1.016l1.228,13.385l-11.979,5.753
			C83.742,60.513,83.576,60.548,83.414,60.548z"/>
		<path style="&st0;" d="M84.422,61.282c-1.05,0.504-2.312,0.062-2.815-0.989c-0.504-1.05-0.062-2.311,0.989-2.816
			c1.05-0.504,2.311-0.062,2.815,0.989S85.473,60.777,84.422,61.282z"/>
		<path style="&st0;" d="M95.642,41.314c-0.106-1.16-1.134-2.015-2.294-1.909c-1.16,0.106-2.015,1.133-1.909,2.294
			c0.106,1.16,1.133,2.015,2.295,1.909C94.894,43.502,95.749,42.475,95.642,41.314z"/>
		<path style="&st0;" d="M93.496,66.371c-0.419,0-0.82-0.235-1.013-0.636c-0.269-0.559-0.033-1.23,0.525-1.499l10.571-5.081
			l-1.084-11.832c-0.056-0.618,0.398-1.164,1.016-1.22c0.609-0.059,1.164,0.398,1.221,1.016l1.226,13.384L93.982,66.26
			C93.825,66.336,93.658,66.371,93.496,66.371z"/>
		<path style="&st0;" d="M94.505,67.104c-1.05,0.505-2.312,0.062-2.816-0.988c-0.504-1.05-0.062-2.311,0.988-2.816
			c1.05-0.504,2.312-0.062,2.816,0.988S95.555,66.599,94.505,67.104z"/>
		<path style="&st0;" d="M105.726,47.134c-0.105-1.161-1.134-2.016-2.294-1.91c-1.16,0.106-2.015,1.134-1.91,2.293
			c0.107,1.161,1.134,2.016,2.295,1.91C104.978,49.321,105.833,48.294,105.726,47.134z"/>
		<path style="&st0;" d="M103.58,72.192c-0.419,0-0.82-0.235-1.013-0.636c-0.269-0.559-0.033-1.23,0.525-1.499l10.571-5.081
			l-1.083-11.832c-0.056-0.617,0.398-1.163,1.016-1.22c0.613-0.053,1.163,0.399,1.22,1.016l1.226,13.384l-11.977,5.756
			C103.909,72.157,103.742,72.192,103.58,72.192z"/>
		<path style="&st0;" d="M104.588,72.926c-1.05,0.505-2.311,0.062-2.816-0.988c-0.505-1.051-0.062-2.312,0.988-2.816
			c1.05-0.505,2.311-0.063,2.816,0.988C106.081,71.161,105.638,72.421,104.588,72.926z"/>
		<path style="&st0;" d="M115.81,52.956c-0.108-1.16-1.134-2.015-2.295-1.909c-1.161,0.106-2.016,1.134-1.909,2.294
			c0.105,1.16,1.133,2.015,2.293,1.909C115.06,55.144,115.915,54.117,115.81,52.956z"/>
		<path style="&st0;" d="M113.664,78.014c-0.419,0-0.82-0.234-1.013-0.637c-0.269-0.558-0.033-1.229,0.525-1.498l11.277-5.418
			c0.556-0.272,1.23-0.032,1.498,0.526c0.269,0.558,0.033,1.229-0.526,1.497l-11.276,5.418
			C113.993,77.979,113.826,78.014,113.664,78.014z"/>
		<path style="&st0;" d="M114.673,78.747c-1.051,0.505-2.312,0.062-2.816-0.988c-0.504-1.05-0.062-2.311,0.989-2.816
			c1.05-0.504,2.311-0.062,2.815,0.989C116.165,76.983,115.723,78.243,114.673,78.747z"/>
		<path style="&st0;" d="M125.671,71.952c-0.001,0-0.003,0-0.004,0c-0.621-0.002-1.121-0.508-1.119-1.127l0.138-32.037
			c0.002-0.618,0.504-1.118,1.123-1.118c0.001,0,0.003,0,0.004,0c0.621,0.002,1.12,0.507,1.118,1.127l-0.138,32.037
			C126.791,71.452,126.289,71.952,125.671,71.952z"/>
		<path style="&st0;" d="M123.698,38.89c0.006-1.166,0.955-2.107,2.12-2.102c1.166,0.005,2.107,0.954,2.102,2.119
			c-0.005,1.166-0.954,2.107-2.119,2.102C124.635,41.003,123.693,40.055,123.698,38.89z"/>
		<path style="&st0;" d="M125.753,49.112l-6.893-4.914c-0.505-0.359-0.623-1.061-0.263-1.565c0.361-0.506,1.062-0.622,1.565-0.263
			l5.623,4.008l5.636-3.815c0.515-0.346,1.212-0.211,1.559,0.301c0.348,0.513,0.213,1.211-0.3,1.559L125.753,49.112z"/>
		<path style="&st0;" d="M130.781,41.804c0.965-0.654,2.276-0.4,2.93,0.564c0.653,0.965,0.401,2.277-0.564,2.931
			c-0.965,0.653-2.278,0.401-2.932-0.565C129.563,43.77,129.816,42.457,130.781,41.804z"/>
		<path style="&st0;" d="M120.822,41.626c-0.949-0.676-2.268-0.456-2.945,0.493c-0.675,0.95-0.455,2.268,0.493,2.944
			c0.95,0.676,2.268,0.455,2.945-0.493C121.991,43.62,121.771,42.302,120.822,41.626z"/>
		<path style="&st0;" d="M125.72,56.805l-6.893-4.914c-0.505-0.36-0.622-1.062-0.263-1.566c0.361-0.506,1.062-0.621,1.566-0.264
			l5.623,4.009l5.639-3.814c0.515-0.349,1.211-0.21,1.559,0.3c0.347,0.514,0.212,1.211-0.3,1.559L125.72,56.805z"/>
		<path style="&st0;" d="M130.751,49.497c0.964-0.652,2.277-0.399,2.929,0.565c0.653,0.965,0.401,2.277-0.564,2.931
			c-0.966,0.653-2.277,0.4-2.931-0.565C129.532,51.463,129.785,50.15,130.751,49.497z"/>
		<path style="&st0;" d="M120.79,49.32c-0.95-0.677-2.268-0.456-2.945,0.493c-0.676,0.95-0.455,2.267,0.494,2.943
			c0.949,0.677,2.268,0.455,2.944-0.494C121.958,51.315,121.738,49.997,120.79,49.32z"/>
		<path style="&st0;" d="M125.689,64.5l-6.895-4.915c-0.505-0.36-0.622-1.061-0.263-1.566c0.361-0.505,1.062-0.621,1.565-0.263
			l5.625,4.009l5.636-3.815c0.514-0.348,1.213-0.212,1.559,0.3c0.348,0.513,0.213,1.212-0.3,1.559L125.689,64.5z"/>
		<path style="&st0;" d="M130.718,57.192c0.965-0.653,2.276-0.4,2.93,0.564c0.653,0.965,0.401,2.277-0.563,2.931
			c-0.966,0.653-2.278,0.4-2.932-0.564C129.499,59.158,129.752,57.845,130.718,57.192z"/>
		<path style="&st0;" d="M120.757,57.014c-0.949-0.676-2.267-0.456-2.945,0.494c-0.675,0.949-0.455,2.267,0.495,2.943
			c0.948,0.677,2.266,0.455,2.944-0.493C121.926,59.008,121.705,57.691,120.757,57.014z"/>
		<path style="&st0;" d="M125.672,71.952c-0.359,0-0.714-0.172-0.931-0.494c-0.348-0.513-0.213-1.212,0.3-1.559l6.284-4.255
			c0.515-0.347,1.213-0.212,1.559,0.301c0.348,0.513,0.213,1.211-0.3,1.559l-6.284,4.255
			C126.107,71.89,125.888,71.952,125.672,71.952z"/>
		<path style="&st0;" d="M130.684,64.886c0.966-0.654,2.277-0.4,2.93,0.564c0.654,0.965,0.401,2.277-0.563,2.931
			c-0.965,0.653-2.278,0.401-2.932-0.564C129.466,66.852,129.719,65.54,130.684,64.886z"/>
	</g>
	<g>
		<path style="&st3;" d="M15.649,103.475c0.193-1.45,1.868,0.177,2.584,0.332c2.327,0.509-0.326-2.217-0.244-2.721
			c0.02-0.147,0.265-0.626,0.716-0.578c1.254,0.146,0.369,3.872,1.954,2.653c0.504-0.384,0.181,0.124,0.512-0.453
			c0.263-0.469-0.032-1.188,0.572-1.337c0.483-0.118,0.809,0.296,0.886,0.621c0.19,0.821-1.502,1.473-1.279,2.129
			c0.365,1.09,4.023,0.222,4.384,2.121c0.174,0.938-0.708,1.59-0.293,2.745c3.543-2.507,6.762-6.886,12.911-6.646
			c1.297,0.053,2.478,0.741,4.079,0.273c-0.476-1.94-2.31-3.825-1.461-5.514c0.66-1.312,3.087-0.933,3.744-2.011
			c0.164-0.261,0.416-1.514,0.345-1.654c-0.241-0.476-1.417-0.244-1.439-1.037c-0.029-0.739,0.428-0.762,0.596-0.793
			c0.974-0.146,0.963,1.378,1.678,1.467c0.344,0.043,1.108-0.442,1.231-1.031c0.085-0.438-0.304-0.781-0.057-1.091
			c0.449-0.562,1.182-0.097,1.285,0.055c0.651,0.956-0.854,1.264-0.754,1.999c0.035,0.248,0.559,0.691,0.893,0.731
			c0.302,0.032,2.459-0.83,1.737,0.583c-0.363,0.729-2.162-0.418-2.213,0.528c-0.042,0.749,1.558,0.367,1.75,0.806
			c0.129,0.298,0.057,0.834-0.269,0.997c-0.683,0.333-1.292-1.11-1.87-1.024c-1.625,0.257,1.154,2.853-0.499,2.758
			c-1.212-0.073-0.034-1.488-0.643-2.052c-0.59-0.552-1.761,0.476-2.089,0.958c-0.952,1.42,0.401,1.799,1.199,2.575
			c0.348,0.336,1.552,2.554,1.85,2.661c0.312,0.116,2.363-0.361,3.023-0.506c0.38,0.615,1.02,1.256,1.821,1.668
			c0.599,0.558,0.907,0.719,0.949,0.518c0.01,0.01,0.025,0.019,0.037,0.029c0.073,0.496,0.229,0.923,0.418,1.316
			c-1.858,1.072-3.782,1.228-4.76,3.037c-0.451,0.83-2.02,5.086,1.028,3.46c0.802-0.426,0.659-2.664,1.35-2.896
			c0.55-0.189,1.451,0.577,1.149,1.592c-0.18,0.614-1.521,0.547-1.197,1.689c0.344,1.195,1.724,0.085,2.579,0.332
			c0.668,0.192,1.367,1.725,0.22,2.069c-0.783,0.235-0.6-0.621-2.169-0.569c-0.035,1.19,1.653,0.781,1.897,1.566
			c0.235,0.736-0.45,1.257-0.79,1.235c-0.521-0.034-1.198-1.959-1.692-1.682c-0.675,0.376,0.642,2.074,0.03,2.622
			c-0.389,0.344-1.165-0.039-1.305-0.384c-0.167-0.428,0.919-2.549-0.029-2.627c-0.743-0.058,0.26,2.142-0.731,2.326
			c-1.456,0.275-0.342-2.08-0.246-2.613c-0.731,0.378-1.352,1.141-2.055,1.508c-1.602,0.815-3.02,0.899-3.368-1.072
			c-0.201-1.122,0.575-5.185,0.361-5.481c-0.23-0.314-1.248-0.226-1.612-0.153c-1.239,0.234-2.746,1.757-4.02,2.895
			c-1.841,1.642-2.996,2.804-5.812,3.298c-0.807,0.139-1.264,0.178-0.379,0.889c0.542,0.439,1.856,0.747,2.499,0.991
			c1.008,0.382,3.511,1.388,2.314,3.408c-0.944,1.6-4.007,2.138-3.981,3.553c0.004,0.695,1.497,1.219,1.387,2.126
			c-0.044,0.358-0.24,0.762-0.819,0.695c-0.882-0.109-0.542-1.976-1.61-2.23c-0.436,0.389,0.736,3.459-1.12,3.212
			c-1.833-0.246,0.08-1.961,0.202-2.412c0.079-0.306,0.304-0.924-0.378-1.081c-0.696-0.155-1.123,1.927-2.18,1.287
			c-0.136-0.079-0.794-0.937-0.082-1.634c0.186-0.185,2.764-0.431,1.746-1.382c-0.374-0.348-1.734,0.439-2.143-0.023
			c-0.236-0.272-0.311-1.053,0.15-1.32c0.891-0.503,1.649,1.164,2.387,0.67c0.951-0.636-1.049-1.606-0.66-2.376
			c0.201-0.393,0.691-0.554,1.187,0.167c0.373,0.551,0.195,1.437,0.512,1.625c1.356,0.799,2.178-1.181,3.13-1.443
			c-0.899-0.615-1.752-1.21-3.166-1.293c-0.329-0.016-0.789,0.144-1.174,0.049c-0.687-0.17-1.938-1.898-2.646-1.644
			c-0.384,0.138-0.892,2.51-1.229,3.112c-1.17,2.071-3.112,2.35-5.716,3.182c-2.046,0.652-5.623,2.492-6.546-0.502
			c-0.021-0.437-0.045-0.875-0.066-1.31c0.347-1.229,0.492-1.498,0.938-2.554c1.211-2.855,1.766-5.097,4.372-6.517
			c0.598-0.328,3.454-0.833,3.548-1.565c0.055-0.413-0.539-0.671-0.591-1.182c-0.081-0.762,1.036-2.455,0.803-2.984
			c-0.335-0.789-2.03-0.397-3.021-0.646c0.14,0.75,0.589,3-0.719,2.655c-1.344-0.354,0.511-2.18,0.062-2.954
			c-0.774-1.34-2.374,1.786-3.391,0.57c-1.057-1.258,2.372-1.239,2.462-2.066C18.142,104.157,15.471,104.838,15.649,103.475z"/>
		<path style="&st0;" d="M50.374,101.946c2.302-0.181,4.438-0.722,6.355-1.794c1.916-1.06,3.55-2.658,4.978-4.556
			c2.868-3.769,5.002-8.655,8.901-12.261c1.921-1.795,4.25-3.143,6.708-3.914c2.46-0.784,5.013-1.059,7.528-1.059
			c5.045,0.029,9.974,1.05,14.78,2.356c-4.874-0.969-9.846-1.631-14.732-1.312c-2.434,0.169-4.842,0.612-7.054,1.495
			c-2.215,0.874-4.191,2.221-5.801,3.946c-3.284,3.456-4.981,8.185-7.833,12.6c-1.427,2.201-3.267,4.327-5.61,5.849
			c-2.319,1.537-5.048,2.409-7.659,2.797L50.374,101.946z"/>
	</g>
	<g>
		<path style="&st0;" d="M69.302,25.401c0.601-0.347-40.995,23.551-40.995,23.551"/>
		<path style="&st0;" d="M69.14,25.491c0.02,0.003-0.043-0.032,0.083,0.078c0.181,0.045,0.189-0.029,0.167,0.002l-0.017,0.016
			l-0.034,0.034l-0.068,0.067l-0.137,0.135l-0.272,0.268l-0.557,0.515c-0.371,0.341-0.755,0.662-1.133,0.995
			c-0.769,0.64-1.542,1.271-2.335,1.869c-1.581,1.204-3.196,2.348-4.852,3.421c-3.282,2.199-6.939,3.744-10.437,5.568
			c-3.494,1.829-7.004,3.632-10.529,5.407c-3.542,1.747-7.057,3.54-10.621,5.247l-0.186-0.321c3.27-2.22,6.59-4.353,9.882-6.533
			c3.31-2.151,6.635-4.275,9.976-6.372c3.336-2.103,6.514-4.484,10.067-6.211c1.761-0.89,3.562-1.709,5.399-2.468
			c0.916-0.384,1.851-0.733,2.791-1.076c0.478-0.159,0.948-0.328,1.431-0.477l0.725-0.222l0.369-0.1l0.184-0.05l0.092-0.025
			l0.046-0.013l0.024-0.006c-0.016,0.027,0-0.051,0.187-0.009c0.137,0.103,0.063,0.074,0.077,0.08L69.14,25.491z"/>
	</g>
	<g>
		<path style="&st0;" d="M27.171,89.745C26.54,90.109,70.147,64.81,70.147,64.81"/>
		<path style="&st0;" d="M27.339,89.646c-0.007,0.019-0.007-0.056,0.027,0.115c-0.054,0.188-0.125,0.157-0.086,0.154l0.024-0.006
			l0.048-0.013l0.097-0.027l0.194-0.054l0.387-0.107l0.761-0.236c0.506-0.159,0.999-0.339,1.5-0.508
			c0.986-0.364,1.968-0.735,2.928-1.143c1.926-0.806,3.816-1.674,5.664-2.618c3.726-1.831,7.054-4.348,10.551-6.573
			c3.501-2.218,6.986-4.466,10.454-6.741c3.451-2.306,6.93-4.562,10.356-6.909l-0.195-0.338c-3.739,1.81-7.425,3.71-11.139,5.562
			c-3.697,1.882-7.377,3.793-11.041,5.731c-3.667,1.931-7.504,3.572-10.944,5.898c-1.735,1.135-3.427,2.344-5.083,3.617
			c-0.831,0.631-1.64,1.3-2.446,1.975c-0.395,0.351-0.796,0.691-1.186,1.052l-0.583,0.543l-0.285,0.284l-0.142,0.141l-0.071,0.071
			l-0.036,0.035l-0.018,0.019c0.033,0-0.046-0.027-0.107,0.165c0.022,0.179,0.034,0.097,0.033,0.112L27.339,89.646z"/>
	</g>
	<g>
		<path style="&st0;" d="M106.912,44.698l-0.003-0.004l-0.043-0.059c-0.264-0.347-0.493-0.726-0.753-1.076
			c-0.212-0.222-0.472-0.391-0.795-0.513l1.927-6.774l-0.982-0.247l-2.011,7.078c-0.735,0.266-1.321,0.699-1.799,1.253l-0.099,0.112
			c-0.281,0.712-0.579,1.406-0.77,2.167l-0.008,0.045l0.075,0.021l0.032-0.04c0.431-0.565,0.902-1.136,1.344-1.706
			c0.448-0.237,0.843-0.534,1.18-0.896c-0.085,0.266-0.13,0.537-0.126,0.812c0.039,0.631,0.021,1.257,0.043,1.883l0.002,0.062
			l0.001,0.008l0.58,1.901l0.009,0.047l0.094-0.018l-0.005-0.045l-0.21-1.914c0.162-0.608,0.29-1.216,0.472-1.823
			c0.089-0.339,0.098-0.687,0.041-1.04c0.071,0.101,0.143,0.196,0.227,0.283c0.348,0.28,0.721,0.532,1.062,0.815
			c0.405,0.617,0.883,1.215,1.234,1.839l0.03,0.045l0.086-0.02l-0.018-0.045C107.512,46.094,107.222,45.399,106.912,44.698z"/>
		<path style="&st0;" d="M121.815,44.737c-0.346-0.709-0.783-1.334-1.21-1.981l-0.123-0.093c-0.583-0.454-1.251-0.765-2.028-0.891
			l-3.46-6.564l-0.912,0.422l3.313,6.283c-0.287,0.178-0.509,0.397-0.667,0.648c-0.185,0.394-0.327,0.809-0.514,1.198l-0.028,0.062
			l-0.005,0.004c-0.153,0.75-0.291,1.483-0.344,2.262l-0.006,0.048l0.092,0.004l0.013-0.049c0.215-0.678,0.56-1.351,0.817-2.031
			c0.276-0.343,0.598-0.658,0.875-0.998c0.066-0.102,0.12-0.21,0.165-0.324c0.021,0.359,0.103,0.702,0.26,1.016
			c0.306,0.56,0.56,1.133,0.845,1.7l0.197,1.919l0.004,0.042l0.096,0l0.002-0.046l0.166-1.972l0.001-0.006l-0.009-0.06
			c-0.117-0.619-0.265-1.231-0.361-1.855c-0.053-0.274-0.157-0.531-0.296-0.779c0.411,0.295,0.862,0.518,1.354,0.666
			c0.551,0.478,1.132,0.948,1.672,1.422l0.041,0.034l0.071-0.036L121.815,44.737z"/>
		<path style="&st0;" d="M105.499,35.248l-1.099-4.327l2.043,4.236l-0.762,2.406l1.078,0.556l1.132-1.961
			c0,0-0.456,9.492-0.174,7.97c0,0-0.56,2.454,3.31,2.324c3.938-0.131,3.829-1.736,3.758-3.044
			c-0.078-1.311-1.408-7.825-1.408-7.825l1.323,1.672l1.219-0.536l-0.744-2.2l1.388-4.916l-0.373,4.881l0.513,1.804
			c0,0,1.413-2.886,2.064-5.756c0.649-2.873,0.746-5.575,0.751-7.31c0.008-1.736-0.58-4.252-1.148-5.993
			c-0.565-1.741-2.62-3.644-3.319-4.233c-0.703-0.598-1.873-2.079-2.393-3.308c-0.51-1.207-0.863-3.328,0.752-4.914
			c1.339-1.801,4.332-3.638,4.332-3.638s-3.435,0.68-4.438,0.834c-2.272,0.214-5.99,0.633-8.083,2.553
			c-2.321,2.131-1.191,5.557-1.191,5.557s1.366,3.278-0.166,5.037c-1.532,1.761-4.344,4.716-3.336,10.603
			c1.012,5.888,4.232,11.567,4.232,11.567L105.499,35.248z M107.424,6.323c-0.065-0.623,0.416-1.176,1.079-1.24
			c0.662-0.06,1.253,0.392,1.319,1.016c0.065,0.622-0.416,1.175-1.079,1.237C108.08,7.397,107.49,6.943,107.424,6.323z"/>
	</g>
	<g>
		<path style="&st3;" d="M139.434,19.393c1.004,0.348,1.741,2.303,1.816,3.303c0.095,1.292-0.535,3.11-1.305,4.14
			c-0.54,0.723-0.912,1.547-1.503,2.255c-0.529,0.635-2.82,4.406-3.403,3.16c-0.891-1.898-1.459-4.275-1.341-6.37
			C133.807,23.962,134.592,17.713,139.434,19.393z"/>
		<path style="&st3;" d="M136.93,14.374c1.001,0.588,2.086,1.524,2.432,2.388c0.452,1.129,0.301,2.301-0.671,3.094
			c-2.407,1.967-6.044,1.472-8.622,0.142c-0.719-0.372-1.496-0.611-2.21-0.986c-0.512-0.27-1.945-1.457-1.898-1.718
			c0.046-0.259,0.39-0.513,0.569-0.675c0.661-0.599,1.332-1.049,2.138-1.434c0.884-0.423,1.749-0.901,2.675-1.228
			c1.328-0.468,3.286-0.516,4.613-0.05C136.248,14.007,136.585,14.17,136.93,14.374z"/>
		<path style="&st3;" d="M148.875,24.53c-2.933,0.27-7.089-0.687-9.165-2.951c-0.777-0.844-1.264-1.924-0.879-3.066
			c0.802-2.382,2.61-2.924,4.948-2.763c0.065,0.005,1.007,0.337,1.497,0.415c2.002,0.718,3.079,2.397,4.106,3.827
			c0.481,1.481,1.675,2.815,1.282,4.593C149.89,24.361,149.466,24.475,148.875,24.53z"/>
		<path style="&st3;" d="M149.149,7.988c0.042-0.067,0.086-0.036,0.129,0c-0.23,2.223-0.275,6.495-3.247,8.441
			c-3.764,2.461-8.086-3.232-3.96-6.428C144.159,8.384,147.051,8.095,149.149,7.988z"/>
		<path style="&st3;" d="M133.842,6.427c-0.064-0.069-0.014-0.11,0.04-0.149c2.484,0.95,7.382,2.316,8.704,6.332
			c1.669,5.085-6.206,8.3-8.61,2.572C132.76,12.286,133.318,8.872,133.842,6.427z"/>
	</g>
	<g>
		<path style="&st0;" d="M160.735,60.7c-0.776-0.622-1.489-1.289-2.177-1.979c-0.689-0.69-1.356-1.396-1.997-2.124
			c-0.641-0.729-1.245-1.485-1.816-2.271c-0.562-0.789-1.133-1.574-1.708-2.356l-1.74-2.33l-1.723-2.346
			c-1.135-1.572-2.286-3.134-3.405-4.719l0.12-0.096c1.307,1.435,2.584,2.896,3.878,4.34l1.919,2.188l1.9,2.2
			c0.639,0.728,1.281,1.455,1.934,2.176c0.644,0.726,1.255,1.477,1.827,2.26c0.574,0.782,1.12,1.584,1.645,2.407
			c0.524,0.82,1.027,1.66,1.465,2.553L160.735,60.7z"/>
		<path style="&st0;" d="M160.885,60.557c-0.781-0.368-1.506-0.799-2.215-1.254c-0.708-0.456-1.397-0.934-2.065-1.435
			c-0.668-0.501-1.305-1.039-1.916-1.613c-0.606-0.577-1.208-1.159-1.827-1.717l-1.855-1.687l-1.839-1.704
			c-1.215-1.149-2.444-2.282-3.646-3.447l0.098-0.119c1.359,0.979,2.691,1.989,4.037,2.984l2.001,1.509l1.987,1.527
			c0.659,0.511,1.339,1.002,2.011,1.498c0.672,0.499,1.314,1.032,1.926,1.601c0.612,0.569,1.204,1.164,1.775,1.781
			c0.573,0.615,1.126,1.258,1.626,1.959L160.885,60.557z"/>
		<path style="&st0;" d="M160.92,60.587c-0.811-0.207-1.581-0.485-2.338-0.791c-0.757-0.3-1.494-0.637-2.222-0.994
			c-0.725-0.357-1.426-0.757-2.108-1.197c-0.677-0.44-1.35-0.892-2.039-1.315l-2.061-1.279l-2.049-1.301
			c-1.359-0.883-2.726-1.746-4.073-2.645l0.075-0.132c1.466,0.688,2.915,1.411,4.371,2.113l2.172,1.082l2.163,1.102
			c0.72,0.368,1.454,0.711,2.183,1.063c0.726,0.354,1.434,0.748,2.114,1.185c0.682,0.436,1.352,0.892,2.001,1.387
			c0.652,0.488,1.289,1.002,1.887,1.589L160.92,60.587z"/>
		<path style="&st0;" d="M152.748,38.854c0.796,1.771,1.554,3.56,2.334,5.338l1.142,2.677l1.122,2.687
			c0.379,0.893,0.765,1.784,1.158,2.672c0.389,0.891,0.732,1.798,1.033,2.721c0.301,0.922,0.571,1.856,0.814,2.802
			c0.243,0.943,0.457,1.899,0.594,2.884l-0.142,0.053c-0.546-0.831-1.014-1.691-1.453-2.562c-0.44-0.867-0.854-1.75-1.236-2.643
			c-0.382-0.893-0.721-1.801-1.017-2.726c-0.291-0.927-0.589-1.851-0.891-2.772l-0.929-2.759l-0.907-2.769
			c-0.587-1.85-1.194-3.695-1.763-5.552L152.748,38.854z"/>
		<path style="&st0;" d="M156.745,38.882c0.469,1.788,0.896,3.581,1.346,5.375l0.646,2.69l0.626,2.696
			c0.205,0.901,0.439,1.794,0.664,2.69c0.224,0.896,0.401,1.799,0.533,2.714c0.132,0.911,0.23,1.833,0.302,2.756
			c0.07,0.926,0.112,1.857,0.072,2.804l-0.15,0.028c-0.387-0.866-0.695-1.744-0.973-2.63c-0.277-0.885-0.528-1.774-0.746-2.672
			c-0.218-0.895-0.389-1.803-0.515-2.716c-0.125-0.915-0.24-1.831-0.383-2.744l-0.423-2.735l-0.398-2.739
			c-0.25-1.83-0.519-3.654-0.749-5.489L156.745,38.882z"/>
		<path style="&st0;" d="M160.931,41.17c0.121,1.62,0.201,3.239,0.304,4.857l0.126,2.429l0.104,2.427
			c0.032,0.811,0.092,1.62,0.144,2.429c0.048,0.809,0.052,1.62,0.007,2.429c-0.045,0.808-0.114,1.619-0.224,2.428
			c-0.107,0.81-0.241,1.619-0.46,2.429l-0.151,0c-0.218-0.81-0.354-1.619-0.46-2.428c-0.112-0.808-0.18-1.618-0.227-2.428
			c-0.043-0.809-0.041-1.619,0.008-2.429c0.05-0.809,0.111-1.619,0.145-2.429l0.103-2.427l0.124-2.429
			c0.104-1.62,0.182-3.238,0.305-4.857H160.931z"/>
		<path style="&st0;" d="M148.329,39.067c1.159,1.718,2.281,3.452,3.421,5.181l1.689,2.602l1.669,2.616
			c0.563,0.868,1.13,1.732,1.704,2.592c0.57,0.865,1.099,1.755,1.587,2.663c0.49,0.913,0.95,1.839,1.387,2.784
			c0.435,0.944,0.845,1.902,1.184,2.902l-0.13,0.077c-0.714-0.778-1.357-1.599-1.976-2.433c-0.616-0.835-1.209-1.685-1.773-2.553
			c-0.564-0.867-1.089-1.756-1.573-2.671c-0.478-0.918-0.965-1.83-1.458-2.741l-1.492-2.719l-1.47-2.732
			c-0.966-1.83-1.952-3.649-2.9-5.49L148.329,39.067z"/>
		<path style="&st0;" d="M144.227,55.705c1.385,0.261,2.757,0.561,4.137,0.84l2.06,0.448l2.055,0.469
			c0.685,0.156,1.376,0.288,2.065,0.426c0.689,0.143,1.364,0.329,2.029,0.561c0.662,0.231,1.32,0.487,1.965,0.785
			c0.648,0.291,1.289,0.608,1.904,1.007l-0.041,0.147c-0.735,0.021-1.447-0.037-2.15-0.124c-0.707-0.081-1.401-0.206-2.089-0.353
			c-0.688-0.146-1.363-0.335-2.024-0.573c-0.662-0.239-1.322-0.485-1.988-0.705l-1.999-0.668l-1.996-0.687
			c-1.323-0.478-2.653-0.934-3.973-1.428L144.227,55.705z"/>
		<path style="&st0;" d="M144.346,60.532c1.382-0.124,2.767-0.212,4.15-0.32l2.078-0.134l2.075-0.109
			c0.69-0.036,1.383-0.1,2.076-0.153c0.691-0.052,1.385-0.056,2.076-0.015c0.694,0.043,1.386,0.109,2.078,0.217
			c0.692,0.105,1.385,0.237,2.078,0.453l0.001,0.153c-0.691,0.22-1.382,0.357-2.076,0.465c-0.69,0.113-1.383,0.185-2.075,0.232
			c-0.691,0.049-1.384,0.047-2.076,0.002c-0.692-0.047-1.385-0.106-2.078-0.136l-2.076-0.096l-2.077-0.118
			c-1.385-0.097-2.77-0.17-4.154-0.287V60.532z"/>
		<path style="&st0;" d="M146.888,63.799c1.142-0.396,2.293-0.751,3.438-1.13l1.724-0.539l1.731-0.518
			c0.576-0.169,1.146-0.369,1.72-0.558c0.573-0.185,1.157-0.328,1.751-0.425c0.596-0.094,1.197-0.166,1.808-0.197
			c0.608-0.035,1.224-0.043,1.858,0.031l0.037,0.148c-0.534,0.349-1.088,0.621-1.648,0.864c-0.559,0.246-1.126,0.452-1.702,0.637
			c-0.575,0.179-1.16,0.316-1.755,0.41c-0.596,0.087-1.194,0.167-1.788,0.274l-1.777,0.317l-1.783,0.296
			c-1.192,0.177-2.381,0.378-3.578,0.538L146.888,63.799z"/>
		<path style="&st0;" d="M148.379,67.647c0.982-0.702,1.985-1.368,2.978-2.055l1.502-1.004l1.513-0.986
			c0.504-0.327,0.997-0.676,1.492-1.021c0.499-0.34,1.018-0.641,1.563-0.903c0.542-0.258,1.099-0.497,1.676-0.699
			c0.573-0.207,1.162-0.389,1.792-0.497l0.074,0.132c-0.413,0.487-0.866,0.903-1.335,1.292c-0.467,0.398-0.954,0.755-1.454,1.094
			c-0.498,0.335-1.022,0.631-1.567,0.888c-0.548,0.254-1.101,0.5-1.637,0.771l-1.616,0.807l-1.626,0.788
			c-1.093,0.506-2.176,1.036-3.279,1.526L148.379,67.647z"/>
		<path style="&st0;" d="M165.139,43.777c-0.222,1.421-0.484,2.829-0.725,4.244l-0.389,2.115l-0.411,2.109
			c-0.139,0.702-0.25,1.412-0.37,2.118c-0.123,0.708-0.289,1.405-0.503,2.089c-0.215,0.682-0.452,1.362-0.73,2.03
			c-0.271,0.67-0.574,1.333-0.956,1.977l-0.147-0.037c-0.042-0.748-0.003-1.473,0.063-2.195c0.062-0.72,0.165-1.433,0.292-2.138
			c0.126-0.707,0.301-1.401,0.518-2.083c0.219-0.684,0.448-1.364,0.65-2.05l0.612-2.062l0.632-2.056
			c0.44-1.366,0.858-2.737,1.316-4.096L165.139,43.777z"/>
		<path style="&st0;" d="M169.252,46.06c-0.579,1.263-1.197,2.502-1.792,3.755l-0.919,1.865l-0.941,1.856
			c-0.314,0.616-0.604,1.246-0.902,1.874c-0.301,0.624-0.641,1.227-1.024,1.806c-0.382,0.579-0.784,1.145-1.223,1.69
			c-0.436,0.55-0.897,1.083-1.428,1.576l-0.133-0.074c0.154-0.71,0.379-1.379,0.63-2.03c0.247-0.657,0.53-1.293,0.833-1.917
			c0.306-0.623,0.651-1.223,1.037-1.799c0.388-0.575,0.784-1.146,1.153-1.73l1.117-1.754l1.139-1.74
			c0.775-1.152,1.531-2.314,2.322-3.457L169.252,46.06z"/>
		<path style="&st0;" d="M171.315,49.788c-0.765,0.984-1.562,1.938-2.342,2.908l-1.191,1.433l-1.206,1.419
			c-0.404,0.473-0.787,0.963-1.177,1.45c-0.393,0.482-0.817,0.931-1.277,1.353c-0.46,0.417-0.937,0.819-1.444,1.192
			c-0.504,0.376-1.03,0.732-1.616,1.032l-0.11-0.106c0.27-0.6,0.599-1.142,0.95-1.665c0.345-0.525,0.724-1.022,1.116-1.503
			c0.396-0.479,0.827-0.926,1.289-1.345c0.465-0.412,0.936-0.817,1.386-1.249l1.357-1.275l1.372-1.262
			c0.929-0.826,1.842-1.668,2.783-2.485L171.315,49.788z"/>
		<path style="&st0;" d="M173.435,53.241c-0.97,0.718-1.96,1.397-2.943,2.098l-1.484,1.025l-1.496,1.008
			c-0.501,0.332-0.984,0.694-1.475,1.042c-0.492,0.346-1.007,0.655-1.544,0.924c-0.54,0.268-1.092,0.514-1.665,0.724
			c-0.57,0.216-1.155,0.405-1.781,0.523l-0.079-0.129c0.406-0.494,0.853-0.916,1.313-1.314c0.46-0.401,0.942-0.767,1.436-1.113
			c0.494-0.344,1.011-0.645,1.553-0.91c0.542-0.264,1.089-0.516,1.622-0.796l1.6-0.83l1.613-0.809
			c1.084-0.522,2.158-1.067,3.252-1.575L173.435,53.241z"/>
		<path style="&st0;" d="M218.843,27.517c-0.776-0.62-1.49-1.289-2.178-1.977c-0.688-0.689-1.356-1.395-1.997-2.125
			c-0.643-0.726-1.245-1.484-1.815-2.27c-0.562-0.79-1.134-1.575-1.709-2.355l-1.741-2.331l-1.723-2.345
			c-1.132-1.574-2.284-3.134-3.404-4.719l0.12-0.097c1.309,1.434,2.584,2.895,3.878,4.342l1.919,2.185l1.9,2.2
			c0.64,0.73,1.282,1.455,1.932,2.174c0.646,0.727,1.255,1.479,1.828,2.262c0.575,0.783,1.12,1.584,1.646,2.407
			c0.525,0.822,1.027,1.661,1.462,2.553L218.843,27.517z"/>
		<path style="&st0;" d="M218.992,27.375c-0.78-0.367-1.507-0.8-2.213-1.254c-0.708-0.455-1.399-0.933-2.065-1.435
			c-0.668-0.502-1.307-1.039-1.916-1.612c-0.607-0.576-1.209-1.157-1.828-1.718l-1.854-1.686l-1.841-1.704
			c-1.214-1.148-2.443-2.283-3.644-3.446l0.097-0.117c1.357,0.979,2.691,1.987,4.036,2.981l2.001,1.51l1.986,1.527
			c0.66,0.513,1.338,1.004,2.014,1.497c0.67,0.5,1.312,1.031,1.925,1.602c0.613,0.569,1.204,1.163,1.776,1.781
			c0.573,0.617,1.126,1.256,1.626,1.96L218.992,27.375z"/>
		<path style="&st0;" d="M219.027,27.404c-0.811-0.204-1.581-0.485-2.336-0.788c-0.759-0.3-1.497-0.638-2.223-0.994
			c-0.727-0.359-1.428-0.758-2.108-1.198c-0.678-0.442-1.353-0.891-2.039-1.316l-2.062-1.278l-2.048-1.302
			c-1.359-0.883-2.725-1.747-4.073-2.646l0.074-0.131c1.467,0.688,2.914,1.412,4.372,2.114l2.174,1.082l2.162,1.101
			c0.72,0.368,1.454,0.711,2.181,1.066c0.729,0.354,1.436,0.747,2.116,1.182c0.683,0.436,1.351,0.894,2.001,1.386
			c0.651,0.489,1.288,1.003,1.885,1.591L219.027,27.404z"/>
		<path style="&st0;" d="M210.854,5.672c0.796,1.772,1.556,3.559,2.334,5.338l1.143,2.678l1.119,2.687
			c0.383,0.891,0.766,1.784,1.162,2.671c0.387,0.89,0.731,1.797,1.032,2.718c0.301,0.925,0.571,1.859,0.812,2.804
			c0.243,0.944,0.459,1.899,0.596,2.885l-0.143,0.051c-0.545-0.83-1.014-1.689-1.454-2.56c-0.441-0.87-0.855-1.752-1.236-2.643
			c-0.382-0.892-0.722-1.802-1.018-2.726c-0.289-0.927-0.587-1.851-0.89-2.774l-0.928-2.759l-0.907-2.768
			c-0.587-1.851-1.196-3.694-1.766-5.55L210.854,5.672z"/>
		<path style="&st0;" d="M214.852,5.701c0.468,1.787,0.898,3.583,1.346,5.373l0.648,2.692l0.625,2.695
			c0.206,0.9,0.44,1.793,0.665,2.688c0.22,0.897,0.399,1.801,0.529,2.714c0.132,0.913,0.232,1.833,0.305,2.76
			c0.068,0.924,0.11,1.856,0.071,2.801l-0.149,0.029c-0.391-0.864-0.696-1.743-0.975-2.628c-0.28-0.885-0.53-1.777-0.744-2.675
			c-0.218-0.896-0.39-1.801-0.518-2.716c-0.123-0.915-0.24-1.832-0.381-2.742l-0.422-2.737l-0.402-2.738
			c-0.249-1.83-0.517-3.656-0.748-5.487L214.852,5.701z"/>
		<path style="&st0;" d="M219.039,7.99c0.121,1.617,0.2,3.238,0.303,4.857l0.126,2.426l0.103,2.429
			c0.032,0.81,0.094,1.618,0.145,2.43c0.049,0.808,0.053,1.617,0.008,2.427c-0.045,0.809-0.115,1.619-0.225,2.428
			c-0.106,0.81-0.242,1.619-0.46,2.429h-0.152c-0.217-0.81-0.353-1.62-0.46-2.428c-0.111-0.81-0.179-1.619-0.225-2.429
			c-0.043-0.811-0.041-1.619,0.007-2.428c0.052-0.811,0.112-1.619,0.144-2.428l0.103-2.428l0.125-2.43
			c0.103-1.619,0.183-3.238,0.305-4.856H219.039z"/>
		<path style="&st0;" d="M206.437,5.885c1.158,1.715,2.282,3.454,3.423,5.18l1.689,2.602l1.667,2.616
			c0.564,0.868,1.13,1.733,1.706,2.595c0.568,0.863,1.097,1.75,1.587,2.662c0.488,0.912,0.947,1.839,1.386,2.782
			c0.434,0.943,0.845,1.901,1.184,2.9l-0.131,0.08c-0.713-0.779-1.357-1.599-1.974-2.434c-0.618-0.835-1.212-1.685-1.775-2.55
			c-0.564-0.87-1.088-1.758-1.573-2.674c-0.479-0.917-0.965-1.828-1.457-2.74l-1.492-2.719l-1.471-2.732
			c-0.966-1.828-1.951-3.648-2.899-5.489L206.437,5.885z"/>
		<path style="&st0;" d="M202.334,22.524c1.384,0.261,2.758,0.561,4.136,0.842l2.061,0.445l2.054,0.469
			c0.686,0.159,1.377,0.29,2.066,0.428c0.688,0.142,1.366,0.328,2.029,0.561c0.664,0.233,1.322,0.489,1.966,0.784
			c0.647,0.291,1.288,0.61,1.903,1.009l-0.04,0.146c-0.735,0.021-1.445-0.037-2.151-0.125c-0.707-0.08-1.4-0.206-2.088-0.35
			c-0.688-0.146-1.365-0.338-2.025-0.575c-0.661-0.236-1.32-0.487-1.989-0.705l-1.999-0.667l-1.993-0.689
			c-1.325-0.477-2.654-0.931-3.974-1.427L202.334,22.524z"/>
		<path style="&st0;" d="M202.453,27.351c1.384-0.128,2.767-0.213,4.152-0.32l2.076-0.134l2.076-0.11
			c0.692-0.035,1.384-0.098,2.077-0.151c0.691-0.051,1.384-0.058,2.075-0.016c0.694,0.042,1.385,0.11,2.078,0.219
			c0.693,0.102,1.385,0.236,2.079,0.451v0.151c-0.692,0.221-1.384,0.357-2.073,0.465c-0.693,0.113-1.385,0.188-2.077,0.236
			c-0.693,0.046-1.384,0.045-2.077,0c-0.692-0.051-1.385-0.107-2.075-0.14l-2.078-0.093l-2.077-0.116
			c-1.386-0.098-2.772-0.175-4.155-0.289L202.453,27.351z"/>
		<path style="&st0;" d="M204.994,30.619c1.143-0.396,2.293-0.755,3.437-1.131l1.728-0.541l1.728-0.517
			c0.579-0.17,1.148-0.369,1.721-0.559c0.574-0.186,1.158-0.328,1.752-0.424c0.595-0.095,1.195-0.167,1.807-0.199
			c0.608-0.033,1.225-0.042,1.86,0.03l0.035,0.147c-0.535,0.353-1.088,0.624-1.647,0.865c-0.561,0.246-1.128,0.454-1.702,0.638
			c-0.575,0.181-1.159,0.319-1.756,0.409c-0.596,0.088-1.196,0.17-1.787,0.278l-1.778,0.314l-1.783,0.295
			c-1.192,0.178-2.38,0.379-3.578,0.54L204.994,30.619z"/>
		<path style="&st0;" d="M206.486,34.467c0.983-0.704,1.986-1.373,2.976-2.058l1.502-1.005l1.515-0.983
			c0.505-0.328,0.997-0.68,1.492-1.023c0.499-0.338,1.019-0.641,1.562-0.903c0.546-0.256,1.1-0.497,1.676-0.7
			c0.575-0.206,1.163-0.386,1.793-0.496l0.075,0.131c-0.413,0.488-0.868,0.904-1.337,1.295c-0.466,0.396-0.952,0.752-1.452,1.092
			c-0.499,0.337-1.022,0.633-1.569,0.889c-0.547,0.256-1.098,0.5-1.636,0.771l-1.614,0.807l-1.628,0.786
			c-1.094,0.509-2.176,1.037-3.281,1.529L206.486,34.467z"/>
		<path style="&st0;" d="M223.248,10.597c-0.223,1.417-0.485,2.827-0.726,4.242l-0.388,2.116l-0.411,2.109
			c-0.138,0.702-0.25,1.413-0.37,2.12c-0.123,0.705-0.292,1.403-0.503,2.086c-0.215,0.685-0.452,1.363-0.73,2.031
			c-0.273,0.671-0.574,1.334-0.955,1.976l-0.148-0.036c-0.042-0.745-0.003-1.473,0.064-2.194c0.062-0.723,0.166-1.432,0.291-2.138
			c0.127-0.707,0.3-1.4,0.518-2.083c0.22-0.683,0.449-1.364,0.651-2.052l0.61-2.061l0.631-2.055
			c0.441-1.365,0.859-2.738,1.315-4.097L223.248,10.597z"/>
		<path style="&st0;" d="M227.359,12.877c-0.58,1.263-1.195,2.504-1.792,3.758l-0.92,1.863l-0.939,1.854
			c-0.314,0.617-0.606,1.249-0.903,1.876c-0.301,0.625-0.64,1.225-1.024,1.806c-0.38,0.578-0.785,1.144-1.224,1.692
			c-0.435,0.547-0.895,1.083-1.427,1.575l-0.132-0.077c0.153-0.709,0.379-1.376,0.63-2.03c0.246-0.654,0.53-1.291,0.833-1.912
			c0.305-0.625,0.649-1.224,1.036-1.801c0.387-0.575,0.783-1.147,1.154-1.732l1.118-1.751l1.138-1.74
			c0.773-1.151,1.529-2.313,2.321-3.455L227.359,12.877z"/>
		<path style="&st0;" d="M229.425,16.609c-0.768,0.983-1.564,1.936-2.345,2.905l-1.188,1.436l-1.208,1.418
			c-0.405,0.471-0.786,0.961-1.177,1.446c-0.392,0.484-0.817,0.936-1.276,1.353c-0.462,0.418-0.939,0.82-1.446,1.192
			c-0.502,0.376-1.027,0.735-1.612,1.031l-0.111-0.104c0.269-0.599,0.599-1.142,0.948-1.663c0.347-0.528,0.725-1.023,1.118-1.504
			c0.396-0.481,0.826-0.927,1.287-1.343c0.466-0.413,0.936-0.82,1.388-1.249l1.355-1.276l1.372-1.262
			c0.928-0.829,1.843-1.67,2.785-2.486L229.425,16.609z"/>
		<path style="&st0;" d="M231.542,20.058c-0.97,0.718-1.961,1.399-2.941,2.1l-1.485,1.025l-1.497,1.005
			c-0.499,0.337-0.985,0.694-1.476,1.044c-0.491,0.348-1.005,0.657-1.544,0.924c-0.539,0.266-1.09,0.514-1.664,0.723
			c-0.57,0.216-1.157,0.405-1.783,0.524l-0.079-0.13c0.407-0.494,0.852-0.916,1.315-1.314c0.459-0.401,0.94-0.768,1.433-1.111
			c0.494-0.346,1.014-0.647,1.554-0.913c0.541-0.259,1.089-0.516,1.622-0.792l1.602-0.83l1.611-0.811
			c1.085-0.523,2.159-1.065,3.253-1.574L231.542,20.058z"/>
		<path style="&st0;" d="M189.467,43.82c-0.869-1.774-1.866-3.444-2.909-5.076c-1.042-1.633-2.131-3.23-3.27-4.785
			c-1.137-1.557-2.35-3.053-3.631-4.494c-1.294-1.43-2.573-2.875-3.843-4.323l-3.779-4.375l-3.816-4.346
			c-2.57-2.874-5.109-5.778-7.711-8.627l-0.235,0.189c2.226,3.153,4.513,6.255,6.769,9.384l3.425,4.661l3.461,4.63
			c1.142,1.554,2.277,3.112,3.396,4.684c1.131,1.562,2.334,3.067,3.608,4.514c1.273,1.447,2.599,2.852,3.969,4.222
			c1.372,1.371,2.787,2.702,4.331,3.933L189.467,43.82z"/>
		<path style="&st0;" d="M189.721,43.495c-0.994-1.398-2.095-2.669-3.232-3.894c-1.137-1.225-2.312-2.406-3.53-3.539
			c-1.216-1.133-2.494-2.193-3.828-3.184c-1.339-0.986-2.688-1.958-4.002-2.974l-3.95-3.037l-3.978-3.004
			c-2.676-1.974-5.323-3.98-8.024-5.926l-0.193,0.231c2.389,2.316,4.831,4.567,7.247,6.854l3.659,3.386l3.685,3.352
			c1.232,1.113,2.428,2.272,3.634,3.416c1.21,1.14,2.48,2.208,3.809,3.208c1.328,0.997,2.697,1.946,4.106,2.849
			c1.408,0.903,2.852,1.764,4.403,2.497L189.721,43.495z"/>
		<path style="&st0;" d="M189.744,43.524c-1.187-1.167-2.454-2.19-3.749-3.161c-1.29-0.98-2.623-1.89-3.977-2.759
			c-1.357-0.865-2.758-1.648-4.205-2.353c-1.45-0.7-2.91-1.383-4.339-2.116l-4.298-2.188l-4.319-2.15
			c-2.899-1.399-5.775-2.838-8.691-4.204l-0.149,0.264c2.679,1.787,5.4,3.504,8.097,5.258l4.075,2.584l4.096,2.546
			c1.367,0.845,2.707,1.737,4.057,2.614c1.353,0.873,2.747,1.669,4.19,2.381c1.444,0.709,2.91,1.378,4.418,1.975
			c1.503,0.605,3.034,1.162,4.646,1.573L189.744,43.524z"/>
		<path style="&st0;" d="M173.067,0.686c1.131,3.696,2.339,7.361,3.508,11.04l1.803,5.502l1.845,5.484
			c0.602,1.833,1.195,3.67,1.768,5.512c0.589,1.838,1.261,3.646,2.022,5.418c0.76,1.773,1.583,3.526,2.458,5.256
			c0.876,1.729,1.807,3.439,2.89,5.092l0.283-0.107c-0.273-1.957-0.698-3.856-1.183-5.734c-0.482-1.877-1.017-3.737-1.615-5.57
			c-0.597-1.838-1.282-3.639-2.051-5.409c-0.785-1.764-1.55-3.535-2.306-5.311l-2.229-5.342l-2.27-5.322
			c-1.548-3.539-3.056-7.091-4.639-10.615L173.067,0.686z"/>
		<path style="&st0;" d="M181,0.695c0.457,3.646,0.994,7.274,1.488,10.914l0.796,5.445l0.839,5.438
			c0.285,1.81,0.513,3.633,0.76,5.452c0.253,1.817,0.592,3.62,1.026,5.401c0.432,1.782,0.928,3.554,1.481,5.313
			c0.554,1.76,1.165,3.509,1.938,5.228l0.297-0.057c0.078-1.884-0.004-3.734-0.146-5.573c-0.14-1.839-0.338-3.669-0.599-5.484
			c-0.263-1.815-0.616-3.614-1.057-5.394c-0.447-1.78-0.913-3.558-1.323-5.344l-1.242-5.36l-1.284-5.351
			c-0.894-3.561-1.746-7.13-2.676-10.684L181,0.695z"/>
		<path style="&st0;" d="M189.315,5.186c-0.24,3.217-0.399,6.437-0.603,9.655l-0.25,4.829l-0.204,4.826
			c-0.064,1.61-0.185,3.219-0.288,4.828c-0.095,1.608-0.101,3.219-0.013,4.828c0.091,1.61,0.228,3.217,0.449,4.829
			c0.211,1.609,0.478,3.217,0.913,4.825l0.302,0.001c0.435-1.61,0.703-3.218,0.913-4.828c0.219-1.609,0.357-3.217,0.448-4.827
			c0.087-1.608,0.083-3.218-0.015-4.828c-0.103-1.61-0.224-3.218-0.288-4.827l-0.204-4.827l-0.251-4.828
			c-0.204-3.219-0.365-6.437-0.606-9.655L189.315,5.186z"/>
		<path style="&st0;" d="M164.307,1.162c1.887,3.655,3.842,7.273,5.763,10.913l2.926,5.43l2.966,5.407
			c0.976,1.812,1.944,3.623,2.894,5.448c0.964,1.818,2.006,3.588,3.128,5.312c1.122,1.724,2.301,3.411,3.528,5.073
			c1.229,1.661,2.505,3.291,3.926,4.839l0.262-0.155c-0.674-1.99-1.491-3.894-2.356-5.768c-0.868-1.875-1.783-3.719-2.756-5.53
			c-0.972-1.812-2.024-3.577-3.154-5.296c-1.145-1.71-2.271-3.431-3.39-5.157l-3.316-5.198l-3.356-5.172
			c-2.27-3.433-4.501-6.887-6.804-10.298L164.307,1.162z"/>
		<path style="&st0;" d="M156.329,34.373c2.621,0.983,5.265,1.889,7.896,2.838l3.962,1.367l3.976,1.325
			c1.326,0.438,2.636,0.929,3.953,1.405c1.317,0.468,2.658,0.849,4.025,1.14s2.748,0.534,4.152,0.695
			c1.399,0.174,2.815,0.292,4.274,0.251l0.082-0.292c-1.227-0.792-2.498-1.428-3.783-2.007c-1.285-0.587-2.591-1.096-3.909-1.56
			c-1.322-0.461-2.665-0.831-4.035-1.115c-1.371-0.276-2.747-0.535-4.107-0.851l-4.084-0.929l-4.099-0.887
			c-2.742-0.557-5.471-1.155-8.223-1.674L156.329,34.373z"/>
		<path style="&st0;" d="M156.647,43.981c2.755,0.232,5.506,0.38,8.259,0.573l4.128,0.236l4.13,0.186
			c1.376,0.061,2.752,0.176,4.129,0.272c1.375,0.092,2.753,0.094,4.128-0.001c1.375-0.095,2.751-0.237,4.126-0.464
			c1.374-0.215,2.751-0.489,4.124-0.926l-0.002-0.304c-1.376-0.428-2.752-0.691-4.131-0.896c-1.375-0.216-2.752-0.348-4.129-0.434
			c-1.377-0.081-2.753-0.073-4.128,0.03c-1.376,0.108-2.751,0.233-4.126,0.304l-4.127,0.22l-4.127,0.265
			c-2.752,0.213-5.503,0.385-8.254,0.637L156.647,43.981z"/>
		<path style="&st0;" d="M161.77,50.466c2.381-0.318,4.743-0.715,7.113-1.067l3.545-0.588l3.534-0.631
			c1.178-0.213,2.368-0.373,3.553-0.549c1.186-0.184,2.348-0.454,3.492-0.815c1.14-0.364,2.271-0.776,3.383-1.266
			c1.114-0.482,2.213-1.02,3.275-1.718l-0.071-0.292c-1.263-0.146-2.487-0.133-3.697-0.059c-1.213,0.062-2.409,0.206-3.59,0.392
			c-1.184,0.19-2.344,0.472-3.483,0.845c-1.14,0.374-2.274,0.77-3.421,1.108l-3.439,1.027l-3.428,1.074
			c-2.279,0.75-4.566,1.459-6.835,2.248L161.77,50.466z"/>
		<path style="&st0;" d="M164.815,58.085c2.193-0.976,4.345-2.025,6.52-3.035l3.234-1.566l3.213-1.604
			c1.068-0.536,2.164-1.026,3.253-1.531c1.085-0.51,2.123-1.099,3.117-1.77c0.992-0.671,1.96-1.385,2.886-2.17
			c0.932-0.776,1.837-1.603,2.657-2.572l-0.149-0.263c-1.253,0.218-2.424,0.578-3.564,0.99c-1.147,0.402-2.251,0.876-3.335,1.392
			c-1.079,0.517-2.113,1.116-3.102,1.794c-0.985,0.684-1.963,1.38-2.967,2.031l-3.008,1.958l-2.986,1.997
			c-1.972,1.365-3.966,2.69-5.92,4.086L164.815,58.085z"/>
		<path style="&st0;" d="M197.691,10.298c-0.912,2.708-1.743,5.432-2.617,8.147l-1.257,4.086l-1.214,4.097
			c-0.401,1.366-0.857,2.721-1.292,4.075c-0.433,1.36-0.777,2.742-1.031,4.143c-0.249,1.404-0.455,2.818-0.579,4.253
			c-0.134,1.433-0.212,2.878-0.129,4.363l0.294,0.071c0.759-1.279,1.36-2.596,1.902-3.927c0.553-1.329,1.023-2.679,1.449-4.038
			c0.425-1.361,0.756-2.745,1-4.149c0.24-1.406,0.461-2.817,0.736-4.213l0.817-4.194l0.771-4.205c0.48-2.811,1-5.614,1.442-8.434
			L197.691,10.298z"/>
		<path style="&st0;" d="M205.898,14.754c-1.574,2.27-3.076,4.58-4.615,6.87l-2.263,3.46l-2.221,3.483
			c-0.74,1.162-1.525,2.298-2.297,3.442c-0.765,1.145-1.451,2.338-2.057,3.576c-0.603,1.24-1.165,2.504-1.657,3.806
			c-0.498,1.3-0.947,2.628-1.252,4.038l0.263,0.15c1.059-0.98,1.974-2.042,2.838-3.132c0.873-1.087,1.673-2.213,2.436-3.363
			c0.757-1.15,1.434-2.349,2.03-3.592c0.594-1.245,1.17-2.5,1.797-3.727l1.867-3.685l1.83-3.707c1.186-2.49,2.41-4.96,3.563-7.468
			L205.898,14.754z"/>
		<path style="&st0;" d="M210.043,22.115c-1.872,1.618-3.688,3.296-5.533,4.94l-2.729,2.509l-2.695,2.537
			c-0.896,0.851-1.832,1.661-2.755,2.483c-0.919,0.824-1.773,1.714-2.56,2.668c-0.782,0.956-1.532,1.943-2.223,2.988
			c-0.697,1.04-1.352,2.119-1.887,3.309l0.221,0.21c1.163-0.596,2.207-1.304,3.208-2.051c1.009-0.742,1.959-1.542,2.873-2.371
			c0.913-0.833,1.759-1.731,2.536-2.691c0.777-0.962,1.538-1.938,2.341-2.875l2.399-2.822l2.366-2.851
			c1.55-1.925,3.133-3.822,4.658-5.775L210.043,22.115z"/>
		<path style="&st0;" d="M214.322,28.924c-2.175,1.008-4.308,2.086-6.465,3.129l-3.205,1.61l-3.183,1.648
			c-1.06,0.555-2.148,1.06-3.226,1.578c-1.074,0.525-2.104,1.129-3.086,1.812c-0.978,0.687-1.936,1.414-2.849,2.21
			c-0.919,0.791-1.808,1.628-2.613,2.611l0.155,0.259c1.246-0.235,2.41-0.613,3.543-1.04c1.139-0.418,2.235-0.908,3.307-1.439
			c1.071-0.532,2.094-1.144,3.072-1.837c0.973-0.697,1.938-1.41,2.931-2.072l2.976-2.001l2.95-2.04
			c1.949-1.392,3.92-2.745,5.848-4.17L214.322,28.924z"/>
	</g>
	<g>
		<path style="&st0;" d="M91.013,97.742l-0.001-0.001l0,0c0.004-0.001,0.01-0.003,0.015-0.004c0.003-0.001,0.003-0.001,0.008-0.002
			c0.003-0.001,0.009-0.001,0.013-0.002c1.722-0.432,3.622,1.124,4.258,3.501c0.637,2.376-0.229,4.676-1.937,5.162
			c-0.003,0.001-0.009,0.002-0.013,0.003c-0.004,0.002-0.006,0.001-0.008,0.002c-0.004,0.001-0.01,0.004-0.014,0.005l-0.001-0.003
			c-0.086,0.014-0.167-0.031-0.187-0.107l-2.242-8.366C90.884,97.854,90.932,97.774,91.013,97.742z"/>
		<path style="&st0;" d="M89.561,98.131c0.006-0.002,0.009-0.004,0.015-0.005c0.002,0,0.003,0,0.008-0.002
			c0.004-0.001,0.009-0.002,0.014-0.004l0,0.002c0.085-0.013,0.165,0.033,0.186,0.11l2.242,8.366
			c0.021,0.076-0.026,0.155-0.106,0.186l0.001,0.002c-0.005,0.002-0.01,0.002-0.014,0.004c-0.005,0.001-0.006,0.002-0.007,0.003
			c-0.005,0.001-0.009,0.001-0.015,0.003c-1.721,0.433-3.62-1.125-4.257-3.502C86.989,100.915,87.855,98.618,89.561,98.131z"/>
		<path style="&st0;" d="M91.962,90.071L91.96,90.07l0,0c0.002-0.003,0.006-0.009,0.008-0.013c0.001-0.002,0.001-0.004,0.003-0.007
			c0.002-0.003,0.007-0.007,0.009-0.011c0.931-1.554,3.423-1.801,5.596-0.546c2.173,1.255,3.206,3.539,2.327,5.12
			c-0.002,0.003-0.004,0.009-0.007,0.013c-0.001,0.002-0.004,0.004-0.004,0.006c-0.003,0.004-0.005,0.011-0.008,0.015l-0.003-0.003
			c-0.051,0.071-0.141,0.098-0.211,0.057l-7.651-4.417C91.949,90.243,91.927,90.152,91.962,90.071z"/>
		<path style="&st0;" d="M91.196,91.397c0.001-0.005,0.003-0.009,0.006-0.013c0.002-0.003,0.002-0.003,0.004-0.006
			c0.003-0.004,0.006-0.009,0.007-0.014l0.003,0.001c0.051-0.069,0.143-0.096,0.212-0.055l7.651,4.417
			c0.07,0.041,0.093,0.132,0.059,0.212h0.002c-0.004,0.005-0.006,0.009-0.008,0.014c-0.003,0.003-0.003,0.005-0.004,0.007
			c-0.003,0.003-0.006,0.008-0.008,0.012c-0.931,1.553-3.424,1.801-5.598,0.546C91.348,95.261,90.316,92.978,91.196,91.397z"/>
		<path style="&st0;" d="M86.467,92.514l0.001-0.001l0,0c0.004,0.001,0.009,0.004,0.014,0.007c0.002,0.001,0.003,0.002,0.006,0.003
			c0.005,0.002,0.008,0.006,0.012,0.009c1.563,0.936,1.812,3.448,0.548,5.636c-1.263,2.189-3.561,3.229-5.155,2.343
			c-0.005-0.003-0.01-0.004-0.014-0.006c-0.004-0.002-0.004-0.003-0.006-0.004c-0.005-0.002-0.011-0.005-0.014-0.008l0-0.002
			c-0.07-0.054-0.097-0.143-0.057-0.213l4.451-7.706C86.294,92.502,86.386,92.479,86.467,92.514z"/>
		<path style="&st0;" d="M85.132,91.742c0.004,0.002,0.01,0.004,0.014,0.006c0.003,0.002,0.003,0.002,0.007,0.003
			c0.003,0.002,0.009,0.004,0.013,0.008l-0.001,0.001c0.07,0.053,0.096,0.144,0.056,0.214l-4.449,7.707
			c-0.04,0.069-0.133,0.092-0.212,0.057l-0.002,0.003c-0.005-0.003-0.01-0.007-0.015-0.009c-0.003-0.002-0.004-0.001-0.007-0.003
			c-0.004-0.002-0.005-0.005-0.011-0.009c-1.564-0.937-1.813-3.447-0.549-5.637C81.24,91.896,83.539,90.857,85.132,91.742z"/>
	</g>
	<g>
		<path style="&st0;" d="M133.359,183.1c0.907-0.523-17.984,10.203-17.984,10.203"/>
		<path style="&st0;" d="M133.218,182.859l0.008-0.026l0.005-0.012c-0.066-0.121,0.573,1.017,0.303,0.538l-0.001,0.006l-0.015,0.05
			l-0.034,0.103l-0.068,0.208l-0.156,0.38c-0.105,0.251-0.229,0.473-0.342,0.711c-0.249,0.439-0.503,0.866-0.788,1.238
			c-0.551,0.781-1.177,1.428-1.846,2.001c-1.295,1.216-3.166,1.422-4.785,2.072c-1.618,0.65-3.26,1.26-4.925,1.83
			c-1.672,0.556-3.34,1.12-5.06,1.589l-0.278-0.487c1.286-1.236,2.624-2.38,3.958-3.532c1.342-1.138,2.707-2.233,4.096-3.29
			c1.388-1.055,2.524-2.557,4.234-3.045c0.834-0.282,1.712-0.487,2.665-0.56c0.468-0.052,0.964-0.05,1.468-0.04
			c0.263,0.026,0.516,0.034,0.788,0.072l0.408,0.062l0.213,0.048l0.106,0.022l0.057,0.012h0.007
			c-0.265-0.481,0.376,0.657,0.305,0.54l-0.015-0.004l-0.026-0.004L133.218,182.859z"/>
		<path style="&st0;" d="M135.021,162.99c0.906-0.523-61.812,35.511-61.812,35.511"/>
		<path style="&st0;" d="M134.778,163.127c0.029,0.004-0.064-0.048,0.124,0.117c0.273,0.068,0.285-0.044,0.253,0.002l-0.025,0.026
			l-0.051,0.05l-0.102,0.101l-0.206,0.204l-0.41,0.402l-0.84,0.777c-0.561,0.514-1.138,0.997-1.708,1.498
			c-1.16,0.965-2.324,1.919-3.521,2.819c-2.383,1.814-4.819,3.54-7.315,5.159c-4.949,3.314-10.463,5.646-15.737,8.395
			c-5.269,2.759-10.561,5.477-15.876,8.153c-5.34,2.636-10.64,5.34-16.014,7.912l-0.28-0.483c4.93-3.347,9.936-6.564,14.901-9.85
			c4.99-3.244,10.004-6.446,15.041-9.609c5.031-3.169,9.821-6.76,15.179-9.365c2.655-1.341,5.372-2.575,8.141-3.721
			c1.381-0.58,2.792-1.105,4.208-1.623c0.72-0.238,1.43-0.493,2.158-0.719l1.092-0.334l0.557-0.151l0.278-0.075l0.139-0.038
			l0.07-0.018l0.036-0.01c-0.024,0.042,0-0.076,0.282-0.014c0.207,0.157,0.096,0.113,0.116,0.123L134.778,163.127z"/>
	</g>
	<g>
		<path style="&st0;" d="M40.009,22.662c0.809,2.468,2.527,4.757,4.8,5.836c-2.49-4.363-2.225-8.518-2.156-13.252
			c-0.019-2.341,0.034-4.823-0.584-7.349c-0.536-2.483-2.055-5.127-4.417-6.114c1.305,2.159,1.585,4.279,1.622,6.487
			c-0.001,2.213-0.186,4.518-0.247,6.935C39.034,17.613,39.136,20.182,40.009,22.662z"/>
		<path style="&st0;" d="M48.472,21.753c0.641,1.911,2.076,3.657,4.026,4.444c-2.054-3.351-1.721-6.607-1.542-10.311
			c0.042-1.83,0.15-3.773-0.325-5.733c-0.402-1.929-1.655-3.961-3.684-4.673c1.079,1.657,1.27,3.308,1.247,5.033
			c-0.058,1.731-0.276,3.54-0.388,5.432C47.753,17.828,47.778,19.835,48.472,21.753z"/>
		<path style="&st0;" d="M32.74,25.968c0.641,1.911,2.077,3.657,4.024,4.445c-2.053-3.351-1.72-6.608-1.542-10.312
			c0.042-1.83,0.149-3.772-0.325-5.733c-0.403-1.929-1.656-3.96-3.684-4.672c1.08,1.656,1.271,3.307,1.247,5.033
			c-0.059,1.731-0.275,3.538-0.388,5.432C32.02,22.043,32.044,24.05,32.74,25.968z"/>
	</g>
	<g>
		<path style="&st3;" d="M78.948,28.775c0.419-0.295,1.259-0.556,1.789-0.464c2.372,0.41,3.693,4.67,0.835,5.713
			c-1.937,0.707-4.117-1.404-3.813-3.387C77.851,30.034,78.311,29.224,78.948,28.775z"/>
		<path style="&st3;" d="M86.146,25.288c0.376-0.265,1.133-0.5,1.611-0.417c2.135,0.369,3.323,4.204,0.75,5.144
			c-1.743,0.637-3.706-1.264-3.433-3.049C85.158,26.421,85.571,25.692,86.146,25.288z"/>
	</g>
	<g>
		<g>
			<path style="&st0;" d="M34.414,65.829c0.034-0.682,0.071-1.363,0.113-2.043c0.042-0.68,0.105-1.377,0.189-2.089
				c0.033-0.324,0.054-0.633,0.063-0.928c0.008-0.295,0.029-0.604,0.063-0.928c0-0.069-0.004-0.176-0.013-0.324
				c-0.009-0.146-0.009-0.295,0-0.445c0.008-0.15,0.034-0.296,0.076-0.439c0.042-0.143,0.114-0.252,0.214-0.326
				c0.185-0.126,0.378-0.24,0.58-0.341c0.202-0.101,0.382-0.169,0.542-0.203c0.16-0.034,0.29-0.02,0.391,0.045
				c0.101,0.064,0.151,0.186,0.151,0.366c0,0.208-0.004,0.426-0.013,0.653c-0.008,0.227-0.021,0.457-0.038,0.688
				c-0.067,1.344-0.139,2.686-0.214,4.027c-0.076,1.34-0.156,2.687-0.24,4.038c-0.05,0.75-0.088,1.488-0.113,2.216
				c-0.025,0.728-0.063,1.473-0.114,2.236c-0.252,0.172-0.517,0.355-0.794,0.548c-0.277,0.192-0.542,0.347-0.794,0.464
				c-0.202-0.298-0.29-0.696-0.265-1.193c0.025-0.497,0.046-0.971,0.063-1.422c0.017-0.52,0.025-1.028,0.025-1.525
				s0.017-1.003,0.05-1.519c-0.605,0.368-1.219,0.703-1.841,1.005c-0.622,0.302-1.236,0.658-1.841,1.066l-0.126,3.375
				c-0.017,0.174-0.025,0.346-0.025,0.517c0,0.171-0.017,0.355-0.05,0.552c0,0.055-0.004,0.153-0.013,0.294
				c-0.009,0.142-0.021,0.289-0.038,0.442c-0.017,0.153-0.046,0.303-0.088,0.45c-0.042,0.147-0.097,0.253-0.164,0.319
				c-0.084,0.062-0.219,0.153-0.404,0.272c-0.185,0.12-0.366,0.233-0.542,0.341c-0.177,0.108-0.336,0.196-0.479,0.264
				c-0.143,0.068-0.214,0.082-0.214,0.041c0.168-1.13,0.231-2.201,0.189-3.212c-0.042-1.01-0.038-2.04,0.013-3.09
				c0.033-0.591,0.067-1.165,0.101-1.723c0.034-0.557,0.042-1.117,0.025-1.679c0-0.531,0.013-1.06,0.038-1.585
				c0.025-0.526,0.038-1.047,0.038-1.565c0-0.095-0.009-0.216-0.025-0.363c-0.017-0.146-0.021-0.294-0.013-0.442
				c0.008-0.148,0.042-0.298,0.101-0.449c0.059-0.151,0.164-0.286,0.315-0.405c0.151-0.119,0.311-0.229,0.479-0.331
				c0.168-0.102,0.336-0.203,0.504-0.305c0.185-0.112,0.319-0.18,0.403-0.203c0.084-0.023,0.143,0.044,0.177,0.201
				c0.017,0.209,0.017,0.431,0,0.667c-0.017,0.236-0.034,0.469-0.05,0.698l-0.051,1.815c-0.017,0.612-0.029,1.214-0.038,1.807
				c-0.009,0.593,0.004,1.174,0.038,1.742c0.588-0.319,1.181-0.64,1.778-0.964C33.132,66.611,33.759,66.243,34.414,65.829z"/>
			<path style="&st0;" d="M47.151,53.626c0.101,0.622,0.13,1.283,0.088,1.983c-0.042,0.7-0.055,1.386-0.038,2.057
				c0.017,0.616,0.021,1.231,0.013,1.847c-0.009,0.616-0.021,1.241-0.038,1.876c-0.017,0.252-0.017,0.525,0,0.82
				c0.017,0.296,0.013,0.608-0.012,0.934c-0.025,0.327-0.088,0.658-0.189,0.993c-0.101,0.334-0.269,0.662-0.504,0.982
				c-0.252,0.343-0.513,0.684-0.782,1.022c-0.269,0.338-0.572,0.639-0.908,0.901c-0.37,0.282-0.748,0.541-1.135,0.776
				c-0.387,0.235-0.757,0.419-1.11,0.55c-0.135,0.049-0.286,0.1-0.454,0.154c-0.168,0.054-0.312,0.073-0.429,0.056
				c-0.135-0.007-0.265,0.001-0.391,0.024c-0.126,0.023-0.256,0.031-0.391,0.024c-0.252-0.009-0.445-0.094-0.58-0.254
				c-0.135-0.16-0.269-0.32-0.403-0.481c-0.252-0.371-0.412-0.791-0.479-1.262c-0.067-0.47-0.126-0.955-0.176-1.456
				c-0.034-0.315-0.055-0.638-0.063-0.967c-0.009-0.33-0.021-0.65-0.038-0.961c-0.017-0.283-0.034-0.566-0.05-0.849
				c-0.017-0.283-0.017-0.568,0-0.857c0.017-0.637,0.021-1.274,0.013-1.911c-0.009-0.636,0.13-1.347,0.416-2.133
				c0.336-0.831,0.815-1.65,1.438-2.46c0.353-0.465,0.761-0.891,1.223-1.276c0.462-0.386,0.929-0.721,1.4-1.006
				c0.471-0.299,0.899-0.474,1.286-0.525c0.387-0.05,0.74-0.03,1.06,0.06c0.134,0.047,0.277,0.081,0.429,0.103
				c0.151,0.022,0.269,0.086,0.353,0.191c0.117,0.129,0.206,0.288,0.265,0.48C47.021,53.25,47.084,53.439,47.151,53.626z
				 M41.426,63.806c0,0.253,0.008,0.524,0.025,0.816c0.017,0.292,0.059,0.565,0.126,0.821c0.067,0.256,0.167,0.478,0.302,0.667
				c0.135,0.189,0.328,0.302,0.58,0.34c0.135,0.021,0.319-0.008,0.555-0.088c0.235-0.079,0.479-0.191,0.731-0.336
				c0.252-0.145,0.479-0.307,0.681-0.487c0.202-0.18,0.345-0.378,0.429-0.597c0.101-0.284,0.164-0.564,0.189-0.841
				c0.025-0.276,0.054-0.537,0.088-0.783c0.033-0.175,0.067-0.353,0.101-0.536c0.034-0.182,0.05-0.358,0.05-0.527
				c0-0.141,0.013-0.283,0.038-0.426c0.025-0.142,0.054-0.293,0.088-0.455c0.084-0.657,0.117-1.282,0.101-1.874
				c-0.017-0.591-0.042-1.182-0.076-1.77c-0.017-0.259-0.017-0.538,0-0.838c0.017-0.3,0.025-0.591,0.025-0.875
				c0-0.283-0.021-0.553-0.063-0.811c-0.042-0.258-0.139-0.476-0.29-0.654c-0.101-0.151-0.265-0.223-0.492-0.213
				c-0.227,0.01-0.458,0.057-0.694,0.142c-0.37,0.152-0.693,0.357-0.971,0.615c-0.278,0.259-0.56,0.566-0.845,0.919
				c-0.101,0.313-0.206,0.629-0.315,0.947c-0.11,0.318-0.189,0.632-0.24,0.943c-0.067,0.363-0.105,0.708-0.114,1.035
				c-0.008,0.328-0.029,0.663-0.063,1.005c-0.084,0.723-0.105,1.387-0.063,1.993C41.354,62.545,41.392,63.168,41.426,63.806z"/>
			<path style="&st0;" d="M57.011,44.997c0.135-0.14,0.269-0.239,0.404-0.299c0.134-0.059,0.269-0.144,0.403-0.255
				c0.151-0.12,0.307-0.247,0.467-0.381c0.16-0.133,0.307-0.197,0.441-0.191c0,0.321,0.004,0.763,0.013,1.326
				c0.008,0.563,0.025,1.198,0.05,1.905c0.025,0.706,0.046,1.467,0.063,2.28c0.017,0.814,0.034,1.632,0.05,2.453
				c0.017,0.822,0.034,1.621,0.051,2.398c0.017,0.778,0.025,1.488,0.025,2.129c0,0.642-0.008,1.197-0.025,1.666
				c-0.017,0.47-0.042,0.794-0.076,0.973c-0.101,0.087-0.27,0.213-0.504,0.376c-0.236,0.164-0.471,0.306-0.707,0.426
				c-0.235,0.12-0.437,0.195-0.605,0.226c-0.168,0.031-0.252-0.033-0.252-0.193c0.017-0.518,0.025-1.038,0.025-1.56
				c0-0.523-0.017-1.035-0.05-1.538c0-0.087,0-0.276,0-0.566c0-0.29,0-0.631,0-1.024c0-0.392-0.004-0.803-0.013-1.233
				c-0.009-0.43-0.017-0.832-0.025-1.204c-0.009-0.372-0.017-0.687-0.025-0.943c-0.008-0.257-0.021-0.394-0.038-0.413
				c0,0.014-0.034,0.143-0.101,0.386c-0.067,0.243-0.147,0.548-0.239,0.913c-0.093,0.367-0.198,0.762-0.315,1.185
				c-0.118,0.424-0.231,0.831-0.34,1.22c-0.11,0.39-0.214,0.733-0.315,1.031c-0.101,0.297-0.177,0.49-0.227,0.577
				c-0.118,0.214-0.235,0.372-0.353,0.476c-0.118,0.105-0.24,0.19-0.366,0.256c-0.126,0.066-0.256,0.127-0.391,0.184
				c-0.135,0.057-0.277,0.136-0.429,0.239c-0.034-0.038-0.097-0.127-0.189-0.268c-0.093-0.14-0.193-0.305-0.303-0.493
				c-0.109-0.188-0.227-0.389-0.353-0.603c-0.126-0.214-0.24-0.417-0.34-0.609c-0.101-0.192-0.186-0.35-0.252-0.476
				c-0.067-0.126-0.109-0.198-0.126-0.217c-0.05-0.042-0.076-0.11-0.076-0.203c0-0.094-0.042-0.137-0.126-0.131
				c0,0.977-0.009,1.872-0.025,2.685c0,0.345-0.004,0.692-0.013,1.041c-0.009,0.349-0.017,0.673-0.025,0.972
				c-0.009,0.299-0.017,0.563-0.025,0.79c-0.009,0.228-0.021,0.389-0.038,0.484c-0.05,0.417-0.062,0.811-0.037,1.184
				c0.025,0.374-0.029,0.792-0.162,1.255c-0.283,0.234-0.615,0.437-0.997,0.613c-0.382,0.176-0.689,0.273-0.922,0.292
				c-0.034-1.009-0.038-2.028-0.013-3.057c0.025-1.028,0.029-2.052,0.013-3.071c0-0.172,0-0.5,0-0.985c0-0.485,0-1.046,0-1.682
				c0-0.635,0.008-1.304,0.024-2.007c0.017-0.702,0.038-1.354,0.062-1.955c0.025-0.6,0.054-1.111,0.087-1.531
				c0.033-0.42,0.075-0.667,0.125-0.74c0.183-0.125,0.387-0.291,0.611-0.499c0.224-0.207,0.419-0.332,0.586-0.376
				c0.133-0.024,0.229,0.023,0.287,0.137c0.058,0.116,0.112,0.209,0.162,0.279c0.05,0.085,0.146,0.264,0.288,0.537
				c0.142,0.273,0.306,0.588,0.491,0.944c0.185,0.356,0.378,0.733,0.58,1.13c0.202,0.398,0.391,0.771,0.567,1.12
				c0.177,0.349,0.328,0.642,0.454,0.877c0.126,0.236,0.214,0.367,0.265,0.395c0.017-0.024,0.042-0.082,0.076-0.175
				c0.034-0.092,0.067-0.191,0.101-0.298c0.034-0.107,0.067-0.206,0.101-0.298c0.033-0.092,0.05-0.152,0.05-0.181
				c0.017-0.024,0.084-0.219,0.202-0.585c0.118-0.366,0.261-0.819,0.429-1.36c0.168-0.541,0.353-1.129,0.555-1.764
				c0.202-0.634,0.391-1.234,0.568-1.796c0.176-0.563,0.332-1.048,0.466-1.456C56.868,45.334,56.961,45.085,57.011,44.997z
				 M51.892,54.77c0-0.043-0.009-0.066-0.025-0.071l-0.076,0.045v0.086L51.892,54.77z"/>
			<path style="&st0;" d="M68.235,51.778c0.084,0.07,0.139,0.185,0.164,0.341c0.025,0.157,0.038,0.324,0.038,0.503
				s-0.004,0.356-0.013,0.532c-0.009,0.177-0.004,0.326,0.013,0.451c-0.186,0.121-0.471,0.299-0.858,0.535
				c-0.387,0.236-0.819,0.491-1.299,0.764c-0.479,0.274-0.979,0.56-1.5,0.857c-0.521,0.298-0.995,0.561-1.42,0.79
				c-0.425,0.228-0.783,0.422-1.074,0.581c-0.291,0.159-0.445,0.236-0.461,0.23c-0.116-0.183-0.191-0.393-0.224-0.631
				c-0.033-0.237-0.058-0.476-0.075-0.716c-0.033-0.303-0.062-0.605-0.087-0.907c-0.025-0.301-0.037-0.613-0.037-0.935
				c0.033-0.693,0.046-1.375,0.038-2.045c-0.009-0.669-0.029-1.332-0.063-1.986c-0.017-0.694-0.034-1.38-0.05-2.059
				c-0.017-0.679-0.034-1.365-0.051-2.059c0-0.703,0.017-1.409,0.051-2.119c0.033-0.709,0.033-1.405,0-2.089
				c0.199-0.282,0.46-0.518,0.785-0.707c0.324-0.189,0.61-0.367,0.859-0.533l1.508-0.982c0.269-0.177,0.538-0.352,0.807-0.523
				c0.269-0.17,0.546-0.343,0.833-0.516c0.302-0.198,0.626-0.399,0.971-0.601c0.345-0.202,0.66-0.33,0.946-0.385
				c0.034,0.218,0.05,0.442,0.05,0.672c0,0.231,0.034,0.437,0.101,0.62c0.05,0.118,0.05,0.226,0,0.324
				c-0.05,0.097-0.126,0.191-0.227,0.282c-0.101,0.091-0.214,0.178-0.34,0.261c-0.126,0.084-0.249,0.161-0.366,0.232
				c-0.656,0.41-1.308,0.818-1.955,1.222c-0.647,0.405-1.291,0.822-1.93,1.251c0.017,0.446,0.004,0.921-0.038,1.425
				c-0.042,0.503-0.084,1.011-0.126,1.521c-0.042,0.511-0.072,1.011-0.088,1.499c-0.017,0.489,0,0.938,0.05,1.35
				c0.622-0.367,1.249-0.781,1.879-1.241c0.631-0.461,1.265-0.843,1.904-1.146c0.05,0.133,0.084,0.281,0.101,0.441
				c0.017,0.161,0.05,0.309,0.101,0.442c0,0.045,0.017,0.094,0.051,0.148c0.033,0.055,0.059,0.118,0.076,0.19
				c0.016,0.072,0.021,0.144,0.012,0.215c-0.008,0.072-0.046,0.142-0.113,0.211c-0.135,0.153-0.303,0.286-0.504,0.396
				c-0.202,0.111-0.37,0.213-0.504,0.307c-0.488,0.316-0.979,0.622-1.476,0.921c-0.496,0.298-0.988,0.597-1.475,0.897
				c-0.034,0.373-0.034,0.719,0,1.038c0.033,0.32,0.067,0.646,0.101,0.979c0.034,0.378,0.059,0.758,0.076,1.138
				c0.017,0.38,0.067,0.738,0.151,1.072c0.37-0.139,0.735-0.305,1.097-0.499c0.361-0.194,0.735-0.394,1.122-0.602
				c0.219-0.111,0.433-0.227,0.644-0.348c0.21-0.121,0.433-0.249,0.668-0.385c0.185-0.107,0.382-0.228,0.593-0.364
				C67.877,51.902,68.067,51.815,68.235,51.778z"/>
		</g>
	</g>
</g>
</svg>
