<svg xmlns="http://www.w3.org/2000/svg" viewBox="0 0 468.1 88.5" enable-background="new 0 0 468.1 88.5"><style type="text/css">.st0{fill:#FFFFFF;} .st1{fill:#231F20;}</style><path d="M287.1 45.4v-.9c0-1 0-2 .3-2.9v-.4c-.3-1.6-.7-3.2-.8-4.8 0-.2-.1-.4-.1-.5l-.3-1.1-.1-.7v-1.1c-.5-1.7-1.1-3.1-1.7-4.9 0-.1 0-.2-.1-.4 0-.2-.1-.5-.2-.7-.2-.5-.4-.9-.6-1.3l-.6-1.3-.8-1.2c-.2-.4-.5-.8-.8-1.2l-.7-1.3-1.1-1-.9-1.2c-.3-.4-.6-.7-.9-1 .1.2.1.6-.2.5l.1-.5c-.3-.4-.5-.8-.9-1.2-.3-.4-.6-.8-.9-1.1-.3-.3-.7-.7-1.1-1l-1.1-1-1.3-.7-1-1.1c-.4-.3-1-.4-1.4-.6l-1.2-.8c-.4-.3-.8-.6-1.2-.8-.4-.3-.9-.5-1.3-.7l-1.2-.8-1.2-.8-1.3-.7-1.3-.7-1.4-.4c-.2-.1-.3-.2-.4-.3l.1.1c-.1.3-.5.1-.5-.1.1-.1.1-.2.2-.1-.2-.2-.4-.3-.6-.4l-1.4-.5c-.5-.2-1-.1-1.5-.2-.5-.2-.9-.6-1.3-.7l-1.5-.2c-.5-.1-1-.2-1.4-.3-.5-.1-1-.2-1.4-.3-.5-.1-1-.2-1.4-.3l-1.4-.4-1.5-.2c-.3 0-.6-.1-.9-.2.2.2.2.7.2 1-.2.1-.3-.1-.5-.4l.2-.7-.5-.1c-.5-.1-.9-.3-1.4-.3-.5-.1-1-.2-1.5-.2s-1 0-1.5-.1h-1.4l-1.5-.1c-.5 0-1 .2-1.4.2-.5 0-1-.2-1.4-.2l-1.5.4-1.4-.3h-.1l-1.4.4c-.5 0-1 0-1.5.1h-.2l-1.2-.1h-.2c-.5.1-1 .2-1.5.2l-1.5.2-1.4.5-1.5.2c-.3.1-.6.1-1 .1 0 .3-.2.3-.2 0h-.2c-.5.1-1 .2-1.4.3-.5.1-1 .2-1.4.4-.3.1-.6.3-.8.5v.2c-.1 0-.2 0-.2-.1l-.3.1c-.5.2-1 .1-1.5.2-.5.2-.9.5-1.3.7l-1.4.5-.7.3v.2c-.1 0-.1 0-.1-.1l-.5.2-.4.2c.1 0 .2 0 .3-.1-.1.6-.3.3-.6.4v-.1l-.7.4-1.4.5-1.1 1c-.4.2-.9.4-1.3.7-.4.2-.9.3-1.3.6s-.7.7-1.1.9l-1.2.9c-.4.3-.9.5-1.2.8-.2.2-.5.4-.7.5.1.1.1.4 0 .6-.1 0-.2-.2-.2-.5l-.3.2c-.3.2-.6.4-.9.5 0 .2-.2.3-.2.2l-.1.1c-.4.3-.7.6-1.1 1l-.3.3c0 .1 0 .3.2.1 0 .3 0 .3-.1.5-.1 0-.2-.2-.2-.4l-.6.6-1.1.9-.8 1.3-1 1.1-.8 1.3c-.3.4-.9.6-1.1 1-.3.4-.3 1-.5 1.4-.3.4-.7.7-.9 1.2-.2.4-.3.9-.5 1.4-.2.4-.5.8-.7 1.3-.2.4-.5.8-.7 1.3-.2.5-.2 1-.3 1.4l-.5 1.4c-.1.5-.6.9-.7 1.3l-.1 1.5-.1.3-.1.3c-.5 1-.9 1.8-.7 3 0 .1 0 .2-.1.3 0 .1 0 .2-.1.4-.3.9-.5 1.9-.5 2.7 0 .1 0 .2.1.3v1.2000000000000002c.1.2.1.6-.1.9v.4c.3.9.3 1.6.2 2.3l-.1.4c.2 1.7.4 3.5.3 5.1 0 .1 0 .3.1.4.1.9.4 1.7.6 2.5l.1.5c.2 1 .2 2.2.5 3.2l.2.5 1 2.6.1.3c.1.3.2.7.4 1 .2.4.3.9.5 1.4l.7 1.3.6 1.3c.2.4.6.8.9 1.2l.9 1.2.9 1.2.9 1.2c.3.4.5.9.8 1.2.3.4.7.7 1 1l1 1c.3.3.8.6 1.2.9.4.3.7.6 1.1 1l1.1 1 1.1.9 1.1 1c.4.3.8.5 1.3.8.4.3.7.7 1.1.9.4.3.9.3 1.4.6.4.2.8.5 1.2.8l1.2.8 1.3.7c.4.2 1 .1 1.5.3l1.2.9c.4.2 1 .1 1.5.3.5.2.9.4 1.3.6.5.2 1 .2 1.4.4.5.2.8.6 1.3.7.5.1 1 0 1.5.2.5.1.9.6 1.3.7h1.5c.5.1 1 .2 1.4.2l1.4.3c.5.1 1 .2 1.4.3l1.4.4h.7c0-.2.1-.2.3-.2v.2h.5c.5.1 1 .1 1.5.1h1.5l1.5.1 1.5.1 1.5.1 1.5-.1h1.5c.5 0 1-.1 1.5-.2.5 0 1-.1 1.5-.2h.2l1.1.1h.2c.5-.1 1-.3 1.4-.3.5-.1 1-.1 1.5-.1l1.5-.1c.5-.1 1-.2 1.4-.3l1.4-.5c.5-.1.9-.2 1.4-.4h.2c0-.3.2-.1.3-.1v.1c.3 0 .7 0 1-.1l1.4-.6c.5-.1 1-.2 1.4-.4l1.4-.5c.5-.2 1-.2 1.4-.3l.5-.2-.1-.1c0-.5.4-.4.6-.6.1.2 0 .2 0 .5.2.1.1-.4.3-.2v.1h.1c.5-.2.9-.5 1.3-.7l1.4-.5 1.2-.8 1.4-.5c.4-.2.8-.5 1.3-.7.4-.2.7-.7 1.1-1 .4-.3.8-.5 1.3-.8.4-.3.9-.5 1.3-.7l1.3-.7 1.1-1c.4-.3.8-.6 1.1-.9l1.2-.9c.4-.3.7-.7 1-1.1.3-.3.6-.8 1-1.1.3-.4.6-.8.9-1.1.3-.4.7-.7 1-1l.9-1.2.7-1.3 1.1-1.1c.3-.4.3-1 .5-1.4l1-1.1c.2-.4.1-1 .3-1.5.2-.4.5-.8.7-1.3.2-.5.5-.9.7-1.3l.2-1.5c.1-.5.5-.9.7-1.3v-1.5c0-.1.1-.2.1-.4l.1-.3.6-3.5.1-.5.2-.3c.2-1.7-.2-3.3.4-5-.5-.4-.5-.5-.5-.7z"/><path class="st0" d="M285.1 45.7c0 .2 0 .3-.1.5-.1 1.2-.5 2.5-.3 3.7v.4c0 .2 0 .3-.1.5-.1 1.1-.3 2.1-.6 3l-.2.5-.3.4c-.1.2-.1.3-.1.5-.1.6-.1 1 0 1.4v.1c-.2.3-.4.7-.5 1.2-.1.5-.2 1-.2 1.3v.2c0 .1-.1.2-.1.2-.2.2-.3.6-.5.9 0 .1-.1.2-.2.3-.1.2-.3.5-.5.9-.3.5-.3 1.1-.3 1.4-.2.2-.6.6-.9 1-.3.4-.4.9-.5 1.2v.1l-.1.1c-.3.2-.6.5-.9 1-.2.3-.4.7-.5.9 0 .1.1.2.1.4-.3-.2-.2.3-.3.5-.1 0-.1-.1-.1-.2h-.1l-.6.8-.3.3-.7.7-.5.6c-.2.2-.3.4-.4.5-.2.2-.4.4-.5.6-.1.2-.3.3-.4.4-.2.2-.4.4-.5.6l-.4.4c-.1.1-.2.2-.4.3l-.7.5-.6.5c-.2.1-.3.2-.5.4s-.4.3-.5.5v.3c0-.1 0-.1-.1-.2l-.1.1-.3.3-.3.1c-.3.1-.6.3-1 .5-.1.1-.2.1-.4.2s-.5.3-.8.5c-.2.1-.4.2-.6.4-.2.1-.4.2-.6.4-.5.3-.8.6-1 .9l-.1.1c-.1.1-.3.2-.4.2l-.7.4-.3.1c-.3.1-.7.2-1.1.4-.4.2-.7.4-.9.6-.1.1-.2.2-.3.2-.1 0-.2.1-.4.1-.3.1-.6.2-1 .3-.3.1-.6.3-.9.5-.2.1-.3.2-.4.2-.3.1-.6.3-1 .4l-.3.1-.3.1c-.3.1-.6.1-1 .3-.2.1-.4.2-.6.2l-.7.3-.6.2c-.2.1-.5.1-.8.2-.4.1-.8.3-1 .5v.3c0 .1-.1.1-.2.1 0-.1 0-.2-.1-.2v-.1h-.2c-.3 0-.7 0-1.2.1l-.5.1c-.3.1-.6.2-.9.2-.5.1-.8.3-1.1.4-.1 0-.2.1-.2.1l-.7.2c-.2.1-.5.1-.7.1h-.5c-.3 0-.6 0-1 .1-.2 0-.4 0-.6.1-.2 0-.5 0-.8.1-.4 0-.7.1-1 .2l-.4.1h-1.5c-.2 0-.5 0-.7.1l-.7.1-.9.1c-.2 0-.4.1-.5.1h-3.3000000000000003l-.9-.1h-1.4c-.3 0-.5 0-.8-.1h-1.5c-.1.2-.2.4-.4.2v-.3h-.1l-1.3-.1h-1.6c-.1 0-.2-.1-.4-.1-.3-.1-.6-.2-1-.3-.2 0-.4-.1-.7-.1l-.7-.1-.9-.2c-.2 0-.4-.1-.5-.1-.3-.1-.5-.1-.8-.1l-.6-.1c-.4-.1-.7-.1-1-.1h-.4c-.3-.2-.7-.5-1.3-.7-.5-.1-1-.1-1.3-.2h-.1s-.1 0-.1-.1c-.3-.2-.7-.5-1.2-.6-.3-.1-.7-.2-.9-.2-.2 0-.3-.1-.4-.1-.1-.1-.3-.1-.5-.2s-.5-.2-.8-.3c-.5-.2-1-.2-1.3-.3h-.1c-.3-.2-.6-.6-1.2-.8-.5-.2-1-.3-1.3-.3h-.2l-.6-.3-.6-.3c-.1 0-.2-.1-.3-.2-.2-.2-.5-.4-.8-.6l-.6-.3-.6-.4c-.4-.2-.8-.4-1.1-.5-.1 0-.2-.1-.2-.1l-.3-.2c-.2-.2-.5-.4-.8-.6-.2-.2-.5-.3-.7-.4-.2-.1-.4-.2-.5-.3-.1 0-.2-.2-.3-.3-.2-.2-.4-.4-.7-.6-.2-.1-.4-.3-.6-.5-.2-.1-.3-.2-.5-.4-.2-.1-.3-.3-.5-.5-.2-.1-.3-.3-.5-.5-.4-.3-.7-.6-1-.9-.2-.2-.4-.4-.6-.5-.5.5-.8 1.2-1-.3.1-.2.3-.1.4-.2l-.5-.5v.1h-.2v-.3l-.1-.2-.5-.5-.5-.5s-.1-.2-.2-.3c-.1-.2-.3-.6-.6-.9-.2-.3-.5-.6-.8-1.1l-.8-1.1-.4-.6c-.1-.2-.3-.4-.4-.5-.2-.3-.4-.6-.6-.8-.1-.1-.2-.3-.2-.3l-.3-.6c-.1-.2-.2-.4-.3-.7l-.3-.5-.4-.7c-.1-.2-.2-.4-.2-.6l-.1-.3-.1-.3c-.5-.9-1-1.8-1.3-2.8v.2c-.1-.1-.2-.2-.1-.5-.2-.6-.3-1.2-.4-1.8l-.2-.5c-.3-.8-.5-1.7-.6-2.5l-.1-.4c-.1-.4-.1-.8-.1-1.2v-.8c0-.2 0-.3.1-.5l-.1-.5c0-.2 0-.3-.1-.5-.3-.6-.1-1.5-.1-2.1v-2c0-.2 0-.3-.1-.5-.1-1.5.2-2.9.2-4.4l.1-.5.4-1.5.1-.3v-.3c.1-1.1.3-2.2.4-3.2l.1-.6c.1-.4.1-.8.1-1.1v-.2s0-.1.1-.1c.2-.3.4-.7.6-1.2.1-.4.3-.8.4-1.3.1-.4.2-.8.3-1.1v-.3c0-.1.1-.2.2-.4s.3-.5.4-.8l.3-.6c.1-.2.2-.4.4-.6.2-.4.3-.7.4-1l.1-.3c0-.1.1-.2.2-.3.2-.2.4-.5.6-.8.3-.5.4-1 .5-1.3.3-.2.7-.5 1.1-1l.6-.9c.1-.1.1-.3.2-.3.1-.1.2-.3.4-.4.2-.2.4-.4.5-.6.3-.4.5-.8.7-1l.1-.2.3-.2c.2-.2.5-.4.8-.6l.6-.6.4-.4 1-.9.2-.1c.3-.1.6-.3 1-.6l.3-.3c.3-.2.5-.4.7-.6l.4-.3c.2-.1.5-.3.7-.5l.6-.4.6-.4c.4-.2.6-.5.8-.7l.2-.2s.1 0 .2-.1c-.1-.1-.2-.5-.2-.7.2-.1.1.7.4.5v.1c.3-.1.6-.2.9-.4l.6-.3.6-.3c.6-.3.9-.7 1.2-1 .1 0 .2 0 .2-.1h.1c0-.1-.1-.2-.1-.4.2-.3.5-.3.7 0v.2c.1 0 .2-.1.4-.2.3-.1.5-.3.7-.4.2-.1.4-.2.5-.3.1-.1.3-.1.5-.2s.5-.2.8-.3l.8-.3.5-.2c.4-.1.7-.3.9-.5l.3-.2h.2c.3 0 .8 0 1.3-.2.6-.2 1-.5 1.2-.7l.1-.1.6-.2.6-.2c.2-.1.5-.1.8-.2l.6-.1c.1 0 .3 0 .5-.1.1 0 .3 0 .4-.1 0 0-.1-.1-.1-.2l.4-.1c0 .1-.1.3-.2.3.1 0 .2 0 .3-.1l.6-.1.8-.1c.5-.1.9-.3 1.1-.4.1 0 .2-.1.2-.1l.8-.1.6-.1.6-.1c.3 0 .5-.1.7-.1h.2c.2 0 .6.1 1 .1h1.9000000000000001c.6-.1 1.1-.3 1.4-.4.3.1.8.2 1.3.2h.1v-.3l.2.3c.5-.1 1-.2 1.3-.4h.1c.3.1.7.2 1.2.2s.9-.1 1.2-.1h.3c.1 0 .3 0 .5.1l.9.1h2.9000000000000004c.1 0 .2 0 .4.1 0-.3.2-.7-.2-.5 0-.3.1-.3.3-.2.1.2.1.5.1.8.2 0 .5.1.8.1l.4.1c.3.1.6.2 1 .2.2 0 .4.1.7.1l.7.1c.3 0 .6.1.8.1.2 0 .4 0 .6.1.1 0 .3.1.5.1.3.1.6.2.9.2l.7.1c.3 0 .5.1.7.1l.6.1.8.2c.3.1.5.1.7.2.2 0 .5.1.6.1.5.1.9.1 1.2.2h.2l.1.1c.3.2.6.4 1.1.6.5.2 1 .2 1.3.2h.2c.1 0 .3.1.4.2.3.1.5.2.7.3l.1.1c.3.2.6.5 1.2.7.5.2.9.3 1.2.3h.2l.6.3.6.3.8.4c.2.1.3.2.5.2.1 0 .2.1.3.2.2.2.5.4.8.6v-.2l.1.2.3.2c.2.1.5.3.7.5.2.1.4.2.5.3.1-.1.2 0 .3.1l.2.1.2.1c.2.1.4.3.7.4l.5.3.5.3.7.5c.4.3.9.5 1.2.6h.1v.1c.2.3.5.7.9 1 .4.3.8.5 1.1.6l.2.1.6.6.3.3.3.3c.3.2.5.4.7.7.1.1.2.2.3.4l.6.7.3.3c.1.2.3.5.6.8l.4.4c.2.2.4.4.5.6l.4.6c.1.2.2.3.4.5.3.4.6.7.9.9l.2.1.1.3c.1.3.3.6.5.9l.1.2c.2.3.4.6.6 1 .2.3.3.5.5.7.1.2.2.3.3.4l.3.6c.1.2.2.4.3.7l.3.6.3.7c0 .1 0 .2.1.3.1.3.1.6.3 1 .1.2.2.5.3.6l.3.5c.2.3.3.5.3.8.1-.3.1-.7 0-1.1.1.1.1.2.2.2-.1.3.1.7 0 1.1h-.2c0 .4.1.8.3 1.1.1.2.1.4.2.5v1.4000000000000001c.1.2.2.4.2.5.1.2.1.4.2.5.2.4.4.9.6 1.4l.2.5c.4 1 .2 2 .2 3.1v2.6999999999999997c.3.9.3 1.8.2 2.6z"/><path d="M207.9 30.5v3h-.1v1c0 .2.1.3.2.5l.1.5.1.5.3.4.2.4.3.4c.1.1.2.2.4.3l.3.3c.1.1.3.2.4.2.1.1.2.2.4.3.1.1.3.1.5.2l.4.2c.2 0 .3 0 .5.1l.5.1.5.1h1c.2 0 .3 0 .5-.1.2 0 .3 0 .5-.1.2 0 .3 0 .5-.1.2 0 .3-.1.4-.2l.4-.2.4-.3.4-.2c.1-.1.2-.2.4-.3.1-.1.2-.1.2-.2l.1-.1.3-.4.3-.4.3-.4c.1-.1.1-.3.2-.5s.2-.3.2-.4v-.5l.2-.5v-4c0-.2.1-.3 0-.5v-.5l-.1-.5v-3.5l-.1-.5.1-.5v-1l.1-.5v-1l-.1-.5v-2l-.1-.5c0-.2 0-.3-.1-.5v-1c0-.2-.1-.3-.2-.5 0-.2 0-.3-.1-.5l-.1-.5c0-.2-.1-.3-.2-.4-.1-.2-.1-.3-.1-.5-.1-.1-.2-.2-.3-.4l-.2-.4-.3-.4-.4-.3-.4-.3c-.1-.1-.3-.1-.5-.2l-.5-.1-.5-.1-.5.1c-.2 0-.3.1-.5.2l-.5.1c-.2.1-.3.2-.4.3l-.5.2-.4.3c-.1.1-.3.1-.5.2l-.4.3-.4.3-.3.4c-.1.1-.2.2-.3.4-.1.1-.2.2-.3.4l-.3.4c-.1.1-.2.3-.2.4l-.3.4c-.1.1-.2.3-.2.4l-.2.5c0 .1-.1.2-.1.4l.1.1-.1.1-.1.4c-.1.2-.1.3-.1.5l-.1.5-.1.5-.1.5v1l-.1.5v1.5l-.1.5v5l-.1.5c-.1.4-.1.6-.1.7z"/><path class="st0" d="M210.9 20.3l.1-.5c0-.1.1-.3.2-.4.1-.1.1-.3.2-.5.1-.1.1-.3.2-.5.1-.1.1-.3.2-.5.1-.1.2-.3.2-.4l.3-.4.3-.3h-.2c0-.1.2-.1.3-.2l.2-.2v-.1h.1c.1-.1.2-.2.4-.3l.4-.3.5-.1h.5c.2 0 .3.1.4.2l.4.3c.1.1.2.3.2.4.1.1.1.3.2.5l.2.5v.5c0 .1.1.3.2.5 0 .2-.1.3 0 .5l.1.5v3.5l-.1.5v.5l.1.5v3.5l.1.5-.1.5v1l-.1.5v1l.1.5v2c0 .1.1.3.1.5v.5l-.1.5-.1.5c0 .2 0 .3-.1.5s-.2.3-.3.4l-.3.4c-.1.1-.2.2-.4.3-.1.1-.3.1-.5.1-.2.1-.3.2-.4.2h-1c-.2 0-.3.1-.5 0-.1 0-.3-.1-.4-.2l-.4-.3c-.1-.1-.2-.2-.4-.3-.1-.1-.2-.3-.2-.4l-.3-.4c-.1-.1-.2-.3-.2-.4-.1-.1-.1-.3-.1-.5s-.1-.3-.2-.5v-.4c-.2.1-.4-.6-.1-.5v-.1l.1-.5v-.7l-.1-.5v-9.5l.1-.5v-.5c0-.2 0-.3.1-.5l.1-.5v-.4z"/><path d="M274.1 50.8s-.3-.2-.7-.3h-.9c-.4-.1-.8-.3-1.3-.4-.2-.1-.5-.3-.7-.3-.2-.1-.5-.2-.8-.2l-.9-.1c-.1 0-.6.1-1.1.3-.4.2-.8.5-.9.6l-.1.1v1.7999999999999998c0 .4.1.4 0 .8l-.1.8c0 .4.1.4.1.9v1.8c0 .4.2.4.2.7.1-.1.4-.1.5 0 0 .2-.3.1-.5.1 0 .4-.1.4-.1.9l-.1.8.2.8-.1.9c0 .3.1.6.2.9l.1.9-.1.9.1.9c0 .6.2.9.2.9 0 .2-.1.6 0 1 0 .4.1.7.1 1 .1 0 .1.1.1.1.1.3 1 .3 1.1.2.1-.1.4-.5.8-.8.4-.4.5-.3.9-.6s.4-.4.9-.7c.4-.3.7-.6.9-.7.3-.2.4-.4.3-1-.6-.3-1.1 0-1.4.2-.1.1-.5.3-.9.4-.5.2-.5.2-.9.4-.5.3-.4.4-.9.8 0-.3.2-.8.3-1.1v-1c0-.4.2-.7.2-1 0-.4-.1-.7-.1-1 0-.6.1-.5.1-1l-.1-1.2h.2c.3 0 .7 0 .9-.2.3-.2.5-.5.7-.7.3-.1 1-.4 1.2-.5.4-.2.7-.4.7-.4l.7-.3c.6-.5.3-.8 0-.8-.4 0-.5 0-1.1.1l-.8.1c-.2 0-.9.4-1.2.5-.3.1-.6.1-1 .2h-.3c-.1-.5 0-.5 0-1l-.1-1 .2-1v-1.1c0-.5-.4-.6-.1-1.1.2-.3.3-.1.7-.2.4 0 .9-.1 1.4-.1.2 0 .5.1.8.1.3 0 .6.1.8.2h1.2s1.3-.1.9-.4c-.1-.6-.4-.9-.4-.9zM236.8 67.3l.1-1v-1l-.1-1 .1-1v-.7c-.1-.1-.3-.1-.3-.1.1-.2.2-.3.3-.3l-.1-.9v-2c0-.5-.1-.5-.2-1 0-.5.1-.5 0-1l-.1-1 .1-1v-1l-.1-1v-2.1c0-.5.2-.5.2-1.1 0-.1-.2-.2-.2-.2-.3-.3-.5-.5-.7-.6-.4-.2-.6 0-.9.2-.3.2-.6.3-.7.6-.1.1 0 .1 0 .2v1.1c0 .4-.1.5-.1.8.1.1.1.2-.1.3 0 .4.1.5.1.8h.1c.1.1.1.2.1.3-.1 0-.1-.1-.2-.2v.1c0 .5-.1.5-.1 1.1l.1 1c0 .5-.1.5 0 1v1l.2 1-.1 1 .1 1v1l-.1 1-.1 1c0 .5 0 .5.1 1l.1 1v1l-.1 1c0 .5 0 .5.1 1v.3l.2-.2c.2.1.3.2.3.4l-.5-.1v1.6c0 .3.2.6.2 1 0 .3.1.6.1 1 0 .3.1.6.1 1v1c0 .4-.1.7 0 1 .1.6.2 1 .3.9v1c.1.4.2.7.2 1 .1.5.2.9.4 1 .1.1.3-.3.5-.9.1-.3 0-.6 0-1 0-.3.2-.6.2-1v-.9l.2-.9.1-.9v-.9l.1-.9c0-.4-.1-.7-.1-.9 0-.6.1-.5.1-.9v-1.2c.2-1.2.1-1.2.1-1.8zM275 44.5l-1.2-.6-1.3-.4-1.2-.4-1.3-.3-1.2-.5-1-.2-1-.3-1.4-.2h-1.1l-1.1-.3-1.2-.2-1.2-.2h-.2c-.2.1-.4.1-.5 0h-.5l-1.2-.3-.6-.1-.7.1-1.3-.2-1.4-.3h-1.4l-1.2-.1-1.2-.2h-2.4l-1.2.1-1.2-.2-1.2.1h-1.2l-1.2.1-1.2.1-1.3.2-1.3.1-1.3.2-1.3.2-1.3.3h-.6l.1.1c-.1-.1-.3 0-.4-.2h-.3l-1.3.1-1.2.1-1.2.1-1.1.4h-1.2l-1.2.2-1.1.2-1.2.1-1.1.2-1.1.2-1.6.1-.8.2-.4-.1-.4.1-1.5.2-1.5.2-1.2.3-1.2.1-1.2-.1h-2.3c0 .2-.2.2-.4.2l.2-.2h-1.1l-1.2-.1h-1.2l-1.2-.2-1.2-.1-1.2-.1-1.2-.2h-.3v.1l-.1-.1-.7-.1-1.2-.4-1.4-.3-1.4-.2-1.4-.3-.2.2-.9 1 .6 1.3.1.1 1.4.2 1.4.3 1.4.2.9.2-.1.1.1 1.3-.1 1.3-.1 1.3v1.3l.1 1 .1 1.2v1.2l.1 1.2.1 1.2.2 1.2v2.4l.2 1.2.2 1.1.2 1.2.2 1.2.1.4c.2 0 .3.2.2.4-.1 0-.1 0-.2-.1l.1.4.6-1v-1.2l.1-.4c-.1-.1-.1-.1 0-.2l.1-.6.2-1.3.2-1.3v-.6h-.1l.1-.2v-.6l.2-1.3.1-1.3v-.4h-.1c-.2-.1 0-.2 0-.2v-3.0999999999999996c-.1-.1-.3-.1-.5-.1 0-.2.5-.2.2-.4.1 0 .2.1.2.2v-1.1l.1-1.2v-.3c-.1 0-.3 0-.2-.1l.3-.1v-1.7999999999999998l-.2-1.2 1.3.1 1.2.1 1.2.2 1.2.1 1.2-.1 1.2.1h2.4l1.2.1 1.2-.1 1.2-.1 1-.3h1.1l1.1-.1.7-.3.8.1 1.6-.2 1.2-.4 1.3-.1 1.2-.3 1.3-.1 1.3-.1 1.2-.2 1.2-.3 1.2-.3h1.3l1.2-.2 1.2-.3h1.2l1.2-.2 1.2-.2h1.2000000000000002l1.2-.1 1.2-.1 1.2-.1 1.5-.3h1.2l1.2.1 1.2-.1 1.2.1h3.5999999999999996l1.2.1 1.2.2 1.2.2h.7l.6.2 1.2.1 1.1.1 1.1.3 1.3.3 1.3.3 1.4.1 1.1.4 1.1.3h1.2l1.1.1 1.1.3 1.1.1 1.1.3h1.1l1.5.2 1.5-.1-1.1-.8-1.5-.3zM266.8 28.9c0 .1.1.3.1.5v1.5l.1.5-.1.5.1.5v.3c.1 0 .2 0 .3.1-.1 0-.2 0-.3.1v.6l-.1.5c0 .2.1.4.1.5v.5c0 .2 0 .3.1.5 0 .1.1.3.2.4.1.1.2.2.3.4l.2.4s.4.1.5.3c.1.1.3.2.4.4l.5.3.5.3.5.1c.2 0 .3.2.5.3h.5c.1 0 .3.1.4.2h.4c.2 0 .3.2.4.2l.4.1h.4c.3.1.3 0 .3 0s.3.1.7.1c.2 0 .4 0 .6.1.2 0 .3-.2.3-.3 0-.1-.1-.3-.2-.4l-.4-.3c-.1-.1-.3-.1-.5-.1-.1-.1-.2-.2-.4-.2-.1-.1-.2-.2-.4-.2l-.4-.2-.4-.1c-.1-.1-.2-.1-.4-.2-.1-.1-.3-.1-.4-.1-.1 0-.2-.3-.4-.4l-.5-.1-.4-.3-.5-.3c-.2-.1-.3-.2-.4-.3-.2-.1-.3-.2-.5-.2-.2-.1-.4-.2-.4-.3 0 0-.1-.2-.1-.3 0-.1.1-.2.1-.2 0-.1-.1-.3-.1-.5 0-.1.1-.3.1-.5v-.5c-.1-.1-.1-.1-.1-.2h.1v-.3l.1-.5v-.5l-.1-.5v-1c0-.2-.1-.3-.1-.4.2.2.4.2.6.3.1.1.2.3.4.3.2.1.3.2.4.3l.4.2.4.2c.1.1.3.2.4.2.2.1.4.3.4.3s.1.1.3.2c.1.1.2.2.4.3.1 0 .1.1.2.2.2 0 .3 0 .3.2.1.1.2.1.2.2.2.1.4.2.5.2.2 0 .2-.2.2-.4 0-.1 0-.3-.1-.5s-.3-.4-.3-.4-.2-.1-.4-.3l-.3-.4-.4-.3c-.1-.1-.3-.1-.4-.3l-.3-.4-.4-.3c-.1-.1-.1-.2-.3-.4l-.4-.3-.3-.4-.4-.2-.3-.3-.4-.2c-.1 0-.1-.1-.2-.2l-.1-.5v-.5l.1-.5v-2l.1-.5c0-.2-.1-.3-.1-.4l.5.3c.3.2.3.1.5.3.2.1.1.2.4.3l.4.2.4.2.4.2c.2.1.2.3.3.3.1.1.3.1.5.2.1.1.2.3.4.3.1 0 .3-.1.5-.1.1-.1.2-.2.2-.3.1-.2 0-.3 0-.4l-.3-.3-.3-.3-.3-.4s-.1-.1-.2-.1v.1c-.1-.1-.2-.1-.2-.2h-.1l-.3-.4-.3-.3c-.2-.2-.2-.1-.3-.3l-.4-.3-.2-.4-.4-.2-.3-.4-.3-.3c-.1-.1-.2-.3-.3-.3-.1-.1-.3-.1-.5-.1s-.3 0-.5.1c-.1 0-.2.1-.3.3-.1.2-.2.3-.2.4l-.2.4c-.1.1-.2.3-.2.4l.1.5c0 .1-.1.3-.1.5 0 .1.1.3.1.5l-.1.5.1.5v1l-.1.5v.5c0 .1 0 .3.1.4h.1c-.2.2 0 .1.1.2 0 .1-.1.1-.2.1v.7l-.1.5c-.1.2-.2.2-.2.5zM262.7 65.3l-.1-.5c0-.3-.1-.6-.2-.9l-.3-.9c-.2-.4-.4-.6-.4-.6s-.1-.2-.4-.5c-.1-.1-.3-.4-.5-.5-.3-.3-.7-.6-1.2-.8-.2-.1-.5-.2-.7-.2l-.8-.2c-.3 0-.6.2-.8.2h-.8c-.3 0-.6-.1-.9 0 .3-.3.6-.7.9-1.1.2-.3.4-.6.5-1 .1-.3.3-.7.4-1.1.1-.3.2-.5.2-.8v-.8c0-.3-.1-.6-.1-.8 0-.3 0-.6-.1-.9l-.4-.8c-.1-.3-.2-.6-.3-.8-.2-.3-.3-.5-.5-.7l-.6-.7-.7-.6c-.2-.2-.4-.4-.7-.5-.2-.1-.5-.2-.8-.4l-.8-.3c-.3-.1-.6-.5-1-.5-.4-.1-.7-.2-1.1-.2-.4-.1-.8.1-1.1 0l-1.1-.3h-2.2c-.4 0-.8-.1-1.1 0-.5.1-.9.1-1.1.2-.1 0-.2.1-.2.1-.1 0-.1.2-.1.2h-.1c-.4.1-.8.3-.9.6-.1.1 0 .1 0 .2l.1 1v.1c0 .4-.2.5-.2 1l.2 1c0 .5-.2.5-.2 1.1v2l.1 1-.1 1v2l.1 1-.1 1v1l.1 1-.1 1 .1 1s-.2.5-.2 1v1l.2 1c0 .5-.1.4 0 1 0 .3.1.6.1 1v3c0 .4.2.7.2 1v1c0 .4.2.7.3 1 .1.4.1.7.1 1 .1.6.3.9.4.8l.4.4c.1.1.1 0 .2 0 0 0 .4-.1 1.1-.1.3 0 .7.1 1.1 0 .3 0 .7-.1 1.1-.1.3-.1.7-.1 1.1-.2.3-.1.6-.1 1-.2.3-.1.6-.1 1-.2l.9-.3.9-.4c.3-.1.6-.1 1-.2.3-.1.6-.1.9-.3l.9-.3c.3-.1.6-.3.8-.4.3-.1.5-.5.7-.6l.8-.5c.3-.2.6-.3.8-.4l.7-.7.6-.7.8-.6c.2-.2.3-.6.4-.8.2-.3.4-.5.5-.8l.3-.9.2-.8.2-.8c0-.3.2-.5.3-.8v-.5l.1-.3v-.7c.4-.9.2-.8.2-.9z"/><path class="st0" d="M245.4 55.1v-1.1c0-.2 0-.4.1-.5-.1 0-.2-.1-.1-.2h.2v-.3l-.1-1-.1-1v-1s.2.1.3 0l.9-.2c.3-.1.6-.2.9-.2l.9.2c.3 0 .6-.1.9 0 .3 0 .6 0 .9.1l.9.2c.3.1.6.2.8.4.3.1.5.4.8.6.3.2.7.3.9.5.2.2.4.4.6.7.2.2.3.5.4.8l.3.8c.1.3.1.6.1.8 0 .3.3.6.2.8 0 .3-.1.6-.1.8l-.4.9c-.1.3-.3.6-.5.8-.2.3-.4.5-.6.7-.4.4-.7.7-1 .9-.3.2-.4.2-.4.2s-.3.3-.8.7l-.9.7c-.3.2-.7.4-1 .5-.3.2-.6.5-.9.6-.4.2-.7.3-1 .4-.6.3-1 .5-.9.5-.4.2-.9.3-1.2.5-.2-.4 0-.5 0-1l.1-1v-1l-.1-1 .2-1v-1l-.2-1 .2-1c0-.4-.1-.5-.1-.8l-.5-.1c-.2.2.2.2.3.3zM260.2 65.7s-.1.1-.1.2c0 .2.1.5.1.8 0 .3 0 .6-.1.9-.1.3-.1.6-.3.9-.1.3-.3.6-.5.9l-.2.3h.1c0 .1-.1.1-.2 0-.1.1-.3.2-.4.4-.2.3-.3.7-.6 1-.3.3-.6.5-.9.7l-.8.5-.8.5c-.3.2-.6.3-.9.4l-.8.6-.9.3-.9.2c-.3.1-.6.2-.9.2l-.9.2c-.3.1-.6.2-.9.2l-.9.1c-.3.1-.7.2-1 .2-.4.1-.7.1-1 .2h-1c-.5 0-1 .1-1.1.1l.1-.7.1-.9.1-.9.1-.9c0-.3.1-.6.2-.9v-1.8c0-.6.3-.5.3-.9v-1.2l-.2-1.2c0-.6 0-.6.2-1.2.4 0 .8-.1 1.3-.2.3 0 .6-.1.9-.2l.9-.1c.3-.1.6-.2.8-.3l.8-.4c.3-.1.6-.2.8-.3.4-.2.9-.2 1.2-.3.7-.3 1-.6 1-.6s.1-.2.3-.4c.3 0 .6.2.9.1l1-.2 1 .3.9.1.9.3c.5.2.8.4 1 .6.2.2.2.4.2.4s.1.1.2.3c.1.2.3.6.4 1.2l.1.3c.5.1.4.1.4.2z"/><path d="M237.2 25.3c.1-.1.4-.2.3.1-.2-.1-.2.1-.3.1 0 .2.1.2.1.5v.5c0 .1 0 .3.1.5l.1.5v1.5l.1.5v1l.1.5v.5c0 .2-.1.4 0 .5 0 .3.1.5.1.5v.5l.1.5v.5l.1.5c0 .2 0 .4.1.5.1.2.2.4.3.4.1 0 .2-.1.3-.3 0-.1.1-.3.1-.5v-.5l.1-.5.1-.5v-1l.1-.5v-1.5c0-.2 0-.3.1-.5l.1-.5v-.5l.1-.5.1-.5v-1l.1-.5v-.5s.1-.2.1-.5v-1.5c0-.3.1-.3.1-.5v-2c0-.3-.1-.3-.1-.5v-.3c-.1 0-.2-.1-.2-.2.1.1.1 0 .2 0v-.5c0-.3-.2-.3 0-.5l.4.2s.2-.1.4-.1c.1 0 .3.1.5.1h2.5c.2 0 .3 0 .5.1.1 0 .3.1.5.1.1 0 .3-.1.5-.1.1 0 .3 0 .4-.1.2 0 .3 0 .5-.1.2 0 .3-.1.4-.1.2 0 .3-.1.4-.1.2-.1.3-.2.4-.2.1-.2.1-.3.1-.5v-.5c0-.1 0-.1-.1-.1 0 0-.2 0-.5-.1-.1 0-.3-.1-.4-.2-.1 0-.3-.1-.5-.1l-.5-.1-.5-.1h-1.5c-.2 0-.3 0-.5-.1l-.5-.1h-1l-.5-.1h-.5s-.3 0-.6.1c-.1-.2 0-.2 0-.4v-1.3c0-.2-.1-.2-.1-.5 0-.2.1-.2.1-.5v-.8h-.1c0-.1 0-.1.1-.2v-.1c-.2 0-.4-.1-.5 0-.1-.1.2-.2.4-.3 0 .1-.1.1-.1.3 0-.1.1-.1.2-.1v-.3c0-.2-.2-.3 0-.5.2.1.4.1.4.1s.2.1.5.1h.2v-.1c.1.1.2.1.3.1.1 0 .3-.1.4 0 .1 0 .3.1.5.1h1c.2 0 .3 0 .5.1l.5.1c.2 0 .3 0 .5.1h.5l.5.1c.2 0 .3.1.5.2l.5.1h.6c.3.1.5.2.6.2v-.2l.3-.4.2-.4c.1-.2.2-.3.2-.4v-1.1s-.2 0-.4-.1l-.4-.1c-.1 0-.3 0-.4-.1l-.4-.1-.4-.1h-.4l-.4-.1-.4-.1h-.5l-.5-.1h-.5l-.5-.1h-.5l-.5-.1h-.5l-.5-.1h-.5s-.3 0-.6.1h-.6c-.2 0-.4.2-.5.2l-.6.1-.5.2c-.2.1-.3.2-.4.3-.1.1-.2.3 0 .5-.1.1 0 .1 0 .2v.5c0 .2-.1.2-.1.5v1c0 .2-.1.2-.1.5v.5c0 .2.1.2.1.5v.5c0 .2-.1.2-.1.5l.1.4v.8l.1.4-.1.4h.1c0 .2-.1.2-.1.5v6.5c0 .3-.1.3-.1.5v-.1zM228.1 59.7l.1-.7-.2-.9-.2-.9c-.1-.3-.3-.6-.5-.8-.1-.3-.2-.6-.4-.8-.2-.3-.4-.5-.6-.7l-.4-.4h-.3c0-.1 0-.1.1-.1l-.1-.1-.6-.6c-.2-.2-.5-.2-.8-.4l-.7-.4-.9-.3-.9-.3-.9-.4c-.3-.1-.7-.1-1-.1h-.3c-.1 0-.1.1-.3.1l-.4-.1h-1.2999999999999998s-.3.1-.8.1v.1l-.5-.1v-.2l-.7-.1-.8.1c-.3 0-.6.1-.8.1-.4.1-.8.1-1.1.2-.4.1-.8.2-1.1.3-.7.2-1.1.3-1.1.3l-1 .2-.9.5c-.4.2-.8.3-.9.4-.1.1 0 .2.2.2v3.2c0 .5-.1.5-.1 1.1l.1 1-.1 1 .1 1v1.3c.5.1.9.3 1.2.2-.2.2-.8.1-1.1.3l-.1-.2v.8c.1-.1.2-.1.2-.2.3 0-.1.2.1.3 0 .1-.2.1-.4.1v.8h.3c-.1.4.7 0 .6.5h-.9v.1c0 .3.1.6.2 1v1c0 .4.1.7.2 1 0 .6.1 1 .1 1v1c.1.4.2.7.3 1 .1.5.2.9.3 1 .1.1.4-.2.5-.9l.1-1c0-.3.1-.6.1-1 0-.3.1-.6.2-.9 0-.3.1-.6.2-.9l.1-.9v-.9l.2-.9c0-.4.1-.7.1-.9 0-.6-.1-.5-.1-1 0-.6 0-.6.1-1.3.2.1.5.3.7.5.2.1.5.3.8.4l.7.6.7.2.5.7.6.7c.3.3.3.3.6.7.3.3.4.2.7.6.3.3.3.3.6.7l.6.7c.3.3.2.4.5.8.3.3.3.3.6.7l.7.6.5.7.6.8c.3.4.3.4.7.7.3.4.3.3.7.7.2.2.5.4.7.7.2.2.4.5.6.8l.7.7c.2.2.5.4.7.7.3.3.4.6.6.8.4.4.8.6.8.5.3.2.5.5.7.7l.8.6.2.1c.1 0 .2 0 .2.2.2.2.3.3.4.2.1 0 0-.3-.3-.9-.1-.2-.2-.6-.4-.9-.2-.2-.4-.5-.6-.8l-.5-.8c-.2-.3-.4-.5-.5-.8-.2-.3-.3-.6-.5-.8l-.6-.8c-.2-.3-.3-.6-.5-.8l-.6-.7c-.3-.5-.2-.4-.5-.8-.4-.5-.3-.5-.6-1-.4-.4-.5-.4-.8-.8-.3-.4-.3-.4-.6-.7-.3-.4-.3-.4-.6-.7-.3-.4-.3-.4-.6-.7-.3-.4-.2-.4-.6-.8-.3-.4-.5-.3-.7-.7l.8.2.8.1h.9l.9.2.9-.2 1-.1 1-.2.9-.5c.2-.1.6-.1.8-.3l.6-.6.6-.6c.2-.2.2-.6.3-.8.1-.2.3-.5.3-.7.1-.3.1-.5.1-.8v-.4l.1-.2c0-.1.1-.1.1-.1l-.2-.2z"/><path class="st0" d="M225.6 59.9c0 .3 0 .7-.1.9-.1.3-.3.5-.5.7-.2.2-.4.4-.7.5-.3.2-.6.4-.9.5-.3.1-.7.1-1 .1l-.9.1c-.3 0-.6 0-.9-.1-.3 0-.6 0-.9-.1l-.9-.1-.9-.4c-.4-.1-.7-.1-1.1-.3l-.5-.2h-.5l-.8-.4-.1-.1-.2-.1s-.1.1-.1 0l-.5-.4c-.3-.2-.6-.3-.8-.5-.3-.2-.6-.4-.8-.5l-.4-.3c-.1 0-.2 0-.2-.1l-.2-.2c-.6-.4-1-.6-1-.6h-.1s0-.1.1-.1c-.1 0-.2-.1-.2-.2.1 0 .2 0 .2.1 0-.4-.1-.4-.1-.9s.1-.5.1-1.1v-1c0-.5-.1-.5-.1-1.1v-.2h.3c.3 0 .7 0 1.1-.1.3 0 .7.1 1.1.1.4 0 .7-.1 1-.1l1.1.1c.4 0 .8-.1 1.1-.1.7 0 1.1.1 1.1.1h1c.3 0 .6 0 1 .1l.2.1.4-.1c.3 0 .5.1.8.2l.9.1.8.3c.3.1.5.3.8.5.3.1.6.2.8.4.2.2.4.4.6.7.2.2.4.5.5.7.2.3.4.5.5.9.1.3.2.6.2 1v.5l-.1.1v.1s.1 0 .1.1c-.2.4-.3.4-.3.4z"/><path d="M251.7 22.6v.3l.3.1-.1.2c-.1 0-.2 0-.2-.1 0 .2-.1.2-.1.5v.5c0 .3-.1.3-.1.5v.5c0 .2 0 .2.1.5v1c0 .2 0 .3.1.5v.5l.1.5v1.5l.1.5c0 .2 0 .3.1.5v1c0 .3.1.5.1.5l.1.5v.5c0 .2 0 .3.1.5v.5c0 .2.1.3.1.4 0 .2.1.3.2.4.1.2.2.2.3.1.1 0 .3.1.5.1h.5c.1 0 .3.1.5.1h.2v.1h1.3l.5.1c.2 0 .3 0 .5.1h.5c.2 0 .3 0 .5.1l.5.1c.2 0 .3.1.4.2.2 0 .4.1.5.1.3.1.5.1.5.1h1c.2 0 .3 0 .5.1.3 0 .5.1.5.1.2 0 .4.1.5.1.2 0 .4-.1.5-.2.1-.1.1-.2.1-.4 0-.1-.1-.2-.2-.4l-.3-.3-.3-.4-.4-.3-.4-.3-.3-.3c-.2-.1-.4-.1-.4-.1s-.2-.1-.6-.2l-.6-.2-.5-.1-.5-.1-.5-.1h-.5c-.2 0-.3 0-.5-.1h-.1c0 .1-.1.3-.3.2v-.3h.1-.3c-.2 0-.4 0-.5-.1l-.5-.1h-1.5v-.2l.1-.5.1-.5c0-.2 0-.3.1-.5l.1-.5v-1l.1-.5v-1l.1-.5v-.5c0-.2.1-.4.1-.5 0-.3.1-.3.1-.5v-.5c0-.2-.1-.2-.1-.5 0-.2.1-.2.1-.5v-.5c0-.2-.1-.2-.1-.5v-1.2c.1 0 .2.1.3.2.1 0 .2 0 .4.1l.4.2c.1.1.2.2.4.3l.4.2c.1.1.3.1.4.1.1.1.2.2.4.3.1.1.3.1.5.1l.5.1h.5l.5.1c.2 0 .3 0 .5-.1l.5-.1c.2 0 .4 0 .5-.1l.5-.2c.2-.1.3-.2.4-.3h-.1v-.1c-.1-.1-.2-.1-.4-.3l-.4-.3c-.1-.1-.3-.1-.5-.2l-.4-.3-.4-.3c-.1-.1-.3-.1-.5-.2s-.3-.2-.4-.3c-.1-.1-.3-.1-.5-.2-.1-.1-.3-.2-.4-.2l-.4-.2c-.2-.1-.3-.2-.4-.3l-.5-.2c-.2-.1-.4-.2-.5-.2-.3-.1-.5-.2-.5-.2h-.4l-.3-.1c-.1-.3-.1-.3-.1-.5l.1-.6v-2c-.2.1-.2-.1-.3-.3.1 0 .2.1.3.2v-.9c.1 0 .1.1.1.1s.1.1.4.2c.1 0 .2.1.4.2.1.1.2.1.4.2l.4.2.4.2c.1.1.3.2.4.2l.4.2c.1.1.3.2.4.2l.4.2.5.2c.2.1.3.2.4.3l.5.2c.2.1.3.2.4.3.2.1.3.2.5.2l.5.2.4.3c.3.2.4.2.5.2 0 0 .1 0 .1-.1l.4-.3.4-.3c.1-.1.2-.3.2-.4.1-.2.2-.3.2-.4.1-.2.1-.4.1-.5v-.1l-.4-.2c-.1-.1-.2-.2-.4-.3-.1-.1-.3-.2-.4-.2-.1-.1-.3-.2-.4-.2l-.4-.2c-.1-.1-.3-.2-.4-.2-.1-.1-.2-.2-.4-.3-.1-.1-.3-.1-.5-.2-.1-.1-.2-.2-.4-.3l-.4-.2c-.1-.1-.3-.2-.4-.2l-.4-.2c-.1-.1-.3-.2-.4-.2-.2-.1-.3-.1-.4-.2-.2-.1-.3-.2-.4-.2l-.4-.2c-.2-.1-.3-.1-.4-.2-.3-.1-.4-.2-.4-.2h-.4l-.4-.1-.4-.1h-1.2000000000000002c-.1 0-.3-.1-.4 0-.2 0-.3.1-.4.1-.2.1-.3.1-.3.2-.1.1-.1.2 0 .4-.1.1 0 .1 0 .2v.5c0 .2.1.2.1.5.1.1.1.1.1.2-.1 0-.1 0-.1.1v.7c0 .2.1.2.1.5 0 .2-.1.2-.1.5v1.5c0 .2.1.2.1.5v.5c0 .2-.1.2-.1.5v.3c0-.1.1-.2.3-.2.1.2-.1.2-.3.3v2c0 .2-.1.2-.1.5-.9-.4-.9-.4-.9-.2zM222.6 25.8v.5c0 .2.1.2.1.5v.5s-.1.3-.1.5v.2c.1 0 .1 0 .3.1 0 .1-.2.2-.3.1v.1c0 .1.1.3.1.5v1l.1.5v.5l.1.5v1l.1.5v.5c0 .2 0 .3.1.5v.5c0 .3.1.5.1.5 0 .2 0 .3.1.5v.5l.1.5.1.5c0 .2 0 .4.1.5.1.2.2.4.3.4.1 0 .2-.1.3-.4 0-.1 0-.3.1-.5 0-.1.1-.3.1-.5 0-.1.1-.2.1-.4 0 0-.1-.1-.1-.2h.1v-.4c0-.2 0-.3.1-.5l.1-.5v-.5l.1-.5v-.5l.1-.5v-.5l.1-.5v-.5l.1-.5v-1c0-.2.1-.4.1-.5 0-.3-.1-.3-.1-.5s.1-.2.1-.5v-.5s-.1-.2-.1-.5c0-.2.1-.2.1-.5 0-.2-.1-.2-.1-.5v-.5c0-.2.1-.2.1-.5v-5c0-.2-.2-.3 0-.5h.7s.2-.1.5-.2h.5c.1 0 .3-.1.5-.1.1 0 .3-.1.4-.2h.5l.5-.1.5-.1.5-.1c.1 0 .3 0 .5-.1.1 0 .3-.1.4-.2v-.1h.2c.1 0 .2 0 .3-.1.1-.1.3-.2.4-.2.1-.1.3-.2.4-.2l.4-.3.4-.2.2-.2c0-.2 0-.3-.1-.5 0-.2-.2-.3-.2-.4.1 0 .4-.1-.3-.1h-.5c-.1 0-.3-.1-.5-.1l-.4.1h-.4l-.4.1h-.5c-.2 0-.3 0-.5.1h-.5l-.5.1c-.2 0-.3 0-.5.1l-.5.1-.5.1h-.7v.1c-.1 0-.1 0-.1.1 0 0-.1 0-.1-.1s-.2.1-.4.1c-.1-.3 0-.3 0-.6v-.6c0-.2.1-.2.1-.5v-1c0-.3.1-.3.1-.5v-.5c0-.3-.1-.3-.1-.5 0-.3-.1-.3 0-.5h1.1c.1 0 .3-.1.5-.1.1 0 .3-.1.4-.2h.5c.1 0 .3 0 .5-.1.2 0 .3 0 .5-.1l.5-.1.5-.1c.2 0 .3 0 .5-.1h.5c.2 0 .3 0 .5-.1h2.2s.1 0 .1-.1c.1-.2.1-.3.1-.5v-.5l.1-.5-.1-.5c0-.2 0-.4-.1-.5 0-.1-.1-.1-.1-.1h-1.2000000000000002c-.1 0-.3 0-.5.1h-.5l-.4.1h-.9l-.4.1-.5.1-.5.1h-1l-.5.1-.5.1-.5.1c-.3.1-.4 0-.4 0l-.6.2c-.2.1-.4.1-.5.2l-.5.3c-.3.1-.5.2-.5.2l-.5.4c-.1.1-.2.1-.2.2l.1.1c-.1.1-.2.1-.2.1v4l-.1.4c.1.1 0 .2 0 .3v.3c0 .2.1.2.1.5 0 .2-.1.2-.1.5v3c0 .2.1.2.1.5 0 .2-.1.2-.1.5v.5c0 .2.1.2.1.5 0 .2-.1.2-.1.5v1c0 .2.1.2.1.5v1c-.4.7-.4.7-.4.9zM194.8 34l.1.4.1.4.1.3h.1v.1c.1.1.2.2.2.4l.3.3.3.3.3.3c.1.1.3.2.4.2l.4.2c.1.1.3.2.4.2.1.1.3.1.4.1.2 0 .6.1.7.1h.8999999999999999l.6.1h1.1c.2 0 .2.1.5.1h1c.2 0 .2 0 .5.1h.4l.4.1h.4c.1 0 .1-.1.1-.2s-.1-.3-.3-.5l-.4-.3c-.1-.1-.3-.2-.5-.2-.1-.1-.3-.1-.5-.2-.1-.1-.3-.1-.5-.1l-.5-.2-.5-.2c-.1 0-.3-.1-.5-.1-.1.1-.2.1-.4.1v-.2c-.1 0-.1 0-.2-.1-.2-.1-.3-.1-.5-.1l-.5-.2c-.3-.1-.5-.1-.5-.1-.1-.1-.2-.2-.4-.3l-.3-.3-.3-.3c-.1-.1-.1-.3-.1-.4-.1-.1-.2-.3-.2-.5v-1.5l.1-.5.1-.5.2-.5c.1-.1.2-.3.2-.4.1-.1.1-.3.2-.5l.3-.4c.1-.1.2-.3.2-.4.1-.1.2-.3.2-.4.1-.1.2-.3.2-.4l.3-.4.3-.4c.1-.1.2-.2.3-.4l.3-.4.3-.4.3-.4.4-.3.3-.4c.1-.1.2-.2.3-.4l.3-.4c.1-.1.2-.2.3-.4l.3-.3.3-.4.4-.3.3-.4.4-.3c.1-.1.2-.2.4-.3l.2-.4.2-.4c0-.1.1-.3.1-.5 0-.1-.1-.3-.2-.4-.1-.1-.3-.2-.4-.2h-.5c-.2 0-.3 0-.5.1h-.2s-.2.1-.4.3l-.4.4-.4.3c-.1.1-.2.2-.4.3l-.4.3c-.1.1-.2.2-.4.3l-.3.3c-.1.1-.2.2-.4.3l-.3.3-.3.4-.4.3-.3.4-.3.4c-.1.1-.3.2-.4.4l-.3.4-.3.4-.3.4-.3.4c-.1.1-.2.2-.3.4l-.3.4c-.1.1-.1.2-.2.2v.2s-.1 0-.1-.1l-.2.4-.2.4-.3.4c-.1.1-.2.3-.2.4-.1.1-.1.3-.1.4-.1.2-.1.3-.2.4-.1.2-.1.3-.2.4-.1.3-.1.4-.1.4s-.1.2-.1.5v.5l-.1.5v.4l.1.4c.3 1.1.3 1.2.3 1.4zM167.1 43.1v.5l-.1.1-.1.2-.3.3c-.2.2-.4.4-.6.5-.4.3-.8.5-1.2.6-.8.3-1.6-.2-2.4-.4-.8-.2-1.6-.3-2.4-.6-.8-.2-1.6-.5-2.4-.8v-.4c.8-.3 1.6-.6 2.3-.8.8-.2 1.6-.5 2.4-.6.8-.2 1.6-.7 2.4-.4.4.1.8.3 1.2.6.2.1.4.3.6.5l.3.3.1.2.1.1.1.1v.4-.4zM9.4 61.8v.4h-.1l-.1.1-.3.1-.6.2-1.2.4c-.8.2-1.6.5-2.4.6-.7.2-1.5.7-2.3.4-.4-.1-.8-.3-1.2-.6-.4-.3-.8-.6-1.2-1.2v-.4c.4-.6.8-.9 1.2-1.2.4-.3.8-.5 1.2-.6.8-.3 1.6.2 2.4.4.8.2 1.6.3 2.4.6l1.2.4.6.2.3.1.1.1v.4-.4zM167.4 18.5c-13.9-1.4-27.9 0-41.6 2.9-13.7 2.8-27.1 6.7-40.7 10-13.6 3.4-27.4 6.4-41.4 7.4-7 .5-14.1.7-21.1.4-3.5-.2-7-.4-10.5-.7-3.5-.4-7-.8-10.4-1.4v-.3l10.5.4c3.5.1 7 .1 10.4 0 7-.2 13.9-.5 20.8-1.3 13.8-1.4 27.5-3.7 41.1-6.8 13.6-3.1 27.1-6.7 41-9.2 6.9-1.2 13.9-2.1 20.9-2.4 7-.3 14-.1 21 .8v.2zM167.4 63.7c-3.5-.2-7-.3-10.5-.2-3.5.1-6.9.3-10.4.6-6.9.7-13.8 1.8-20.6 3.2-13.6 2.8-27.1 6.3-40.8 9.3-13.7 3.1-27.5 5.6-41.5 6.7-14 1.1-28.1.7-42-1v-.3c13.9 1.3 27.9 1.3 41.8-.1 13.9-1.4 27.6-4.2 41.1-7.5 13.5-3.4 26.9-7.5 40.8-9.9 6.9-1.2 13.9-2.1 21-2.3 3.5-.1 7-.1 10.6.1 3.5.3 7 .6 10.5 1.2v.2zM84 22.1l-8.2.8c-2.7.2-5.5.5-8.2.6l-4.1.4c-1.4.1-2.7.1-4.1 0-1.4-.1-2.7-.3-4.1-.6-1.4-.3-2.7-.6-4.1-1.2v-.4c1.4-.6 2.7-.9 4.1-1.2 1.4-.3 2.7-.5 4.1-.6 1.4-.1 2.7-.1 4.1 0l4.1.4c2.7.2 5.5.3 8.2.6l8.2.8v.4z"/><path class="st1" d="M29.7 69.1h.6c.2 0 .4.1.6.2.2.1.2.3 0 .6-.2.2-.3.4-.4.6l-.9 1.2c-.3.4-.6.7-1 1.1-.4.3-.8.6-1.2.8-.4.2-.9.4-1.5.5-.9.2-1.8.1-2.7-.2-.9-.3-1.7-.7-2.4-1.3-.7-.5-1.1-1.1-1.4-1.7-.3-.6-.5-1.3-.6-2-.1-.7-.1-1.4-.1-2.2 0-.7 0-1.4.1-2.2v-5c0-.8.1-1.7.2-2.5s.3-1.7.5-2.5c.2-.6.4-1.2.7-1.8.3-.6.6-1.1 1.1-1.6.4-.5 1-.9 1.5-1.2.6-.3 1.3-.5 2.1-.6.6 0 1.3 0 2 .2s1.4.5 2 .8c.6.4 1.1.8 1.5 1.4.4.5.6 1.1.6 1.7l-1.4.6c-.5.3-1 .4-1.6.4-.2-.4-.4-.7-.5-1.1-.1-.4-.4-.7-.8-.9-.4-.2-.9-.3-1.3-.3-.5 0-.9.2-1.3.5-.5.3-.8.7-1.1 1.1-.3.4-.5.9-.6 1.3l-.3 1.4-.1 1.5-.1 3.6v5.1c0 .5 0 1 .1 1.6.1.5.2 1 .4 1.5s.4.9.8 1.2c.3.3.7.5 1.1.6.4.1.9.1 1.3 0s.8-.4 1.1-.7c.3-.4.5-.7.7-1 .1-.2.2-.4.4-.5.2-.1.4-.1.6-.1h.7c.1-.1.4-.1.6-.1zM33.5 52.7c.4-.9.9-1.7 1.6-2.4.7-.7 1.6-1.2 2.6-1.6.5-.2 1-.3 1.5-.3s1.1 0 1.6.1 1 .2 1.5.4.9.4 1.3.7c.4.2.7.6 1 1 .3.4.5.8.6 1.3.2.4.3.9.4 1.4.1.5.1.9.1 1.4.1 1.2 0 2.3 0 3.5-.1 1.1-.1 2.3-.2 3.5 0 .5-.1 1-.2 1.5s-.2 1-.2 1.5c0 .6-.1 1.2-.1 1.7s-.1 1.1-.2 1.7c-.2.8-.6 1.6-1 2.3-.5.7-1.1 1.3-1.9 1.8-.4.3-.9.5-1.4.7-.5.2-1 .3-1.6.4-.5.1-1 .1-1.6 0-.5-.1-1-.2-1.4-.5-.4-.2-.7-.4-.9-.7-.3-.3-.5-.6-.7-1-.2-.4-.4-.8-.7-1.3-.2-.5-.3-1-.3-1.4 0-.6 0-1.2-.1-1.8-.1-.6-.2-1.2-.2-1.8-.1-.7-.1-1.3 0-2v-4l.1-1.9c0-.7.1-1.4.1-2 .1-.8.1-1.5.3-2.2zm3.8-.9c-.4.4-.6.8-.7 1.2-.1.5-.3.9-.4 1.3-.2.5-.2 1-.2 1.5v7.5c0 .5 0 1-.1 1.5v1.5l.1.6c.1.2.1.4.1.6l.2.7c.1.2.1.5.3.7.2.4.5.6.9.8.4.2.8.3 1.2.3.4 0 .9 0 1.3-.2.4-.1.9-.3 1.2-.6.4-.3.6-.6.7-.9l.4-1.1c.2-.5.3-1.1.4-1.6l.2-1.6c0-1 .1-2 .2-3s0-2-.1-2.9c-.1-.5-.1-1-.1-1.5l.1-1.5v-1.5c-.1-.5-.2-1-.5-1.4-.2-.3-.5-.6-.8-.8-.3-.2-.7-.4-1.2-.5-.4-.1-.9-.1-1.3-.1s-.8.2-1.2.4l-.3.2c-.2.3-.3.3-.4.4zM49.2 47.4c.8-.1 1.7-.3 2.6-.5.9-.2 1.7-.4 2.5-.6l1.4-.3c.5-.1 1-.2 1.4-.2h.6c.2 0 .3.1.3.3.1.3.2.6.3 1 .1.4 0 .7-.2 1.1-.3.1-.7.2-1.3.3-.6.1-1.2.2-1.9.3-.7.1-1.2.2-1.8.3-.5.1-.9.2-1 .3-.1.5-.1.9-.1 1.3s.1.8.1 1.3v1.2c0 .4 0 .8-.1 1.2l-.3 2.4c-.1.8-.1 1.6 0 2.4.3 0 .7 0 1.1-.1l1.1-.3 1.1-.3c.4-.1.7-.1 1 0 .1.4.1.8 0 1.2 0 .4-.2.8-.5 1-.6.2-1.2.4-1.9.5-.7.1-1.3.3-1.9.4-.1 1.2-.2 2.4-.2 3.5l-.1 3.5c0 .4 0 .8-.1 1.3 0 .4-.1.9-.3 1.3-.1.2-.1.3-.2.3s-.2.1-.4.1c-.4 0-.7.1-1 .1-.3.1-.7.1-1 .1-.1-.1-.1-.3-.1-.5v-5.8c0-1 0-1.9.1-2.9l.3-4c.1-1.3.1-2.6.2-4v-3.8c0-.6.1-1.2.1-1.9v-.9c-.2-.1-.1-.4.2-.6zM64.4 67v1c0 .4 0 .7-.2 1-.3.1-.6.2-.9.2l-.9.3c-.4.1-.6.1-.9.1-.2 0-.3-.2-.3-.6v-2.3c0-1.6 0-3.2.1-4.8l.1-1.7.1-1.7c0-.7.1-1.3 0-2v-2c.1-1.5.1-2.9.1-4.3s0-2.9.2-4.3c.2-.3.4-.5.7-.7.3-.2.7-.3 1.1-.4.4-.1.8-.2 1.2-.2.4 0 .7-.1 1-.1l2.7-.5 1.3-.3c.5-.1.9-.1 1.3-.1 0 .1 0 .3.1.5l.1.5v.5c0 .2-.1.3-.2.5-.1.1-.2.2-.4.3l-.6.2-.6.1c-.2 0-.4.1-.5.1-.8.2-1.6.4-2.3.6-.3.1-.6.1-1 .2-.4 0-.7.1-.9.3.1.7.2 1.4.1 2.2 0 .7 0 1.5-.1 2.2v2.3c.1.8 0 1.5-.1 2.3.2.1.5.1.8 0 .3-.1.6-.1.8-.2l1.1-.2c.3-.1.7-.1 1-.1.2 0 .3.1.3.4 0 .2-.1.5-.2.8l-.3.9c-.1.3-.2.5-.2.5-.1 0-.3.1-.6.2s-.6.1-1 .2l-1 .2c-.3.1-.6.1-.8.1-.1.3-.1.6-.1 1s0 .9-.1 1.4c0 .5 0 1-.1 1.6 0 .5 0 1-.1 1.5.2.8.2 1.5.2 2.3zM84.8 61.9l.3.6.1.8v1.5c-.3.1-.7.2-1.3.3-.6.1-1.2.3-2 .5-.7.2-1.5.3-2.3.5-.8.2-1.5.3-2.2.4-.6.1-1.2.2-1.6.3-.4.1-.7.1-.7.1-.2-.4-.3-.7-.3-1.1-.1-.4-.1-.8-.1-1.2-.1-.5-.1-1-.1-1.5l-.1-1.5c0-1.1.1-2.1 0-3.2l-.1-3.2-.1-3.3-.1-3.3c0-1.1 0-2.2.1-3.3v-3.3c.3-.3.7-.5 1.2-.6.5-.1.9-.2 1.3-.3l2.3-.6 1.2-.3c.4-.1.8-.2 1.3-.3l1.5-.3c.5-.1 1-.1 1.4 0 .1.4.1.7.1 1.1 0 .4.1.7.2 1 .1.2.1.4 0 .5l-.3.3-.5.2c-.2.1-.4.1-.6.1l-3 .7c-1 .2-2 .5-2.9.8v2.2l-.2 2.3c-.1.8-.1 1.5-.1 2.3 0 .8 0 1.5.1 2.1.9-.2 1.9-.5 2.9-.8 1-.3 1.9-.6 2.9-.7l.2.7c0 .3.1.5.2.7 0 .1 0 .2.1.3.1.1.1.2.1.3v.3c0 .1-.1.2-.2.3-.2.2-.5.3-.8.3-.7.4-.9.4-1.1.5l-2.2.6c-.8.2-1.5.3-2.2.5v1.6c.1.5.1 1 .2 1.6.1.6.1 1.2.1 1.8 0 .6.1 1.2.2 1.8l1.7-.1 1.7-.3c.3 0 .7-.1 1-.2l1-.2.9-.2c.2-.2.5-.2.8-.1zM97.1 39.3c-.1.3-.2.4-.5.5l-.7.1c-.9.2-1.8.4-2.7.5-.9.1-1.8.3-2.7.6-.1.4-.2.7-.1 1.1 0 .3.1.7.1 1.1.1.4.1.8.1 1.3v3.7c0 .8.1 1.6.2 2.4l1.9-.6c.6-.2 1.3-.4 2-.5.1.1.2.2.2.5.1.3.1.6.1.9 0 .3 0 .6-.1.9-.1.3-.2.4-.3.5-.6.3-1.3.5-1.9.6-.7.1-1.3.3-1.9.6-.1 1.3-.1 2.5-.1 3.7 0 1.2.1 2.3.1 3.2.5.1 1.1 0 1.8-.2s1.3-.3 1.8-.4l.6-.1.8-.2c.3 0 .5-.1.7 0 .2 0 .3.1.4.3.1.3.1.5.1.9l-.1.9c-.1.5-.4.8-.7.9l-1.2.4c-.6.2-1.3.4-1.9.5-.6.1-1.3.2-2 .3-.5.1-1.1.3-1.7.4-.6.2-1.2.2-1.7.1-.2-.2-.3-.4-.3-.7 0-.3-.1-.6 0-.9 0-.3 0-.6.1-.9l.1-.9v-17.6l-.1-1.2c-.1-.4-.1-.8-.1-1.2 0-.3 0-.6.1-1 .1-.3.3-.6.7-.8.5-.2 1-.4 1.6-.5.6-.1 1.1-.2 1.6-.3 1.1-.3 2.1-.5 3.1-.8 1-.3 2.1-.4 3.1-.5.1.1.1.3.1.5v.6c0 .2-.1.4-.2.7-.3.3-.4.5-.4.6zM99.9 55.5c-.2-.6-.3-1.3-.2-2 .1-.7.3-1.4.6-2.1.3-.7.6-1.4 1-2.1.4-.7.8-1.3 1.2-1.9-.2-.4-.4-.7-.6-1l-.6-1c-.2-.3-.3-.7-.4-1.1-.1-.4-.1-.8 0-1.3.1-.4.2-.8.5-1.2.3-.4.6-.7 1-1.1.4-.3.8-.6 1.2-.8.4-.2.9-.3 1.3-.4.7 0 1.2.1 1.6.3.4.2.6.6.8 1 .2.4.2.9.2 1.4 0 .5-.2 1.1-.4 1.6s-.4 1.1-.7 1.6c-.3.5-.6.9-1 1.3.2.3.5.7.9 1.3l1.1 1.5c.4.6.9 1.2 1.3 1.9.1-.2.1-.6.2-1.1v-1.5c0-.5-.1-1-.1-1.4-.1-.4-.1-.7-.2-.8.1 0 .3-.1.5-.2l.6-.2.6-.1c.2 0 .3.1.4.1.1.1.2.5.3 1 .1.5.1 1.2.1 1.9s0 1.5-.1 2.2c-.1.8-.3 1.5-.6 2.1.1.2.3.3.4.6l.5.7.5.7c.2.2.3.4.5.5l.3.3c.1.1.1.2.2.2 0 .1 0 .2-.1.2-.1.1-.2.2-.5.3-.4.2-.7.4-1 .5-.3.1-.5 0-.8-.3-.3-.3-.6-.5-.8-.8-.2-.2-.4-.5-.6-.9-.3.2-.6.4-.8.5-.2.2-.5.4-.8.6-.3.2-.6.4-1 .6-.4.2-.7.3-1.1.3-1.4.3-2.5.2-3.4-.2-.9-.2-1.5-.8-2-1.7zm2.3-.7c.1.3.3.5.5.7.2.2.5.3.8.4.3.1.6.1 1 .1.3 0 .7-.1 1-.2.4-.2.8-.4 1.2-.7.4-.3.7-.6.9-.9-.5-.9-1-1.7-1.5-2.4l-.6-.9c-.2-.3-.4-.6-.6-.8l-.5-.6c-.1-.2-.3-.3-.4-.3l-.5.9c-.2.5-.5 1-.7 1.6l-.6 1.8c-.1.4-.1.9 0 1.3zm3.4-12.7c-.1-.1-.1-.2-.3-.3-.1-.1-.3-.2-.5-.2h-.6c-.2 0-.4.1-.5.3-.3.3-.5.6-.6.9-.1.3-.1.7-.1 1 .1.3.2.6.4.9.2.3.5.5.8.6.1 0 .2-.2.4-.4s.4-.5.5-.9c.2-.3.3-.7.4-1 .2-.3.2-.6.1-.9zM117.1 35.4c-.4.1-.8.1-1.3.2-.3.1-.6.2-1 .3-.4.1-.7.1-.9-.1.1-.2.1-.3.1-.5s0-.3-.1-.5v-.5c0-.2 0-.3.1-.5.1-.1.1-.2.1-.2 0-.1.1-.1.2-.2.2-.1.4-.2.6-.2l.6-.1c.5-.1.9-.1 1.4-.1.4 0 .9-.1 1.3-.2l1.8-.3 1.8-.3c.9-.1 1.8-.3 2.6-.6.2 0 .3 0 .3.1.1.1.1.3.1.5v1c.1.4 0 .7-.1.9-.1.2-.4.3-.9.4l-1.1.3-1.2.3-.1 2.9c0 .9 0 1.9-.1 2.9l-.1 2.9c0 1 0 1.9-.1 2.9 0 1 0 1.9-.1 2.9v2.8c.1.5.1 1 0 1.5l-.1 1.5c0 .5-.1.9 0 1.3v1.3c-.5.1-1 .2-1.6.3l-1.5.1c-.1-.4-.1-.8-.1-1.2 0-.4 0-.8.1-1.2l.1-1.2v-1.2c-.1-.5-.1-.9 0-1.4 0-.5 0-.9.1-1.4 0-.5 0-.9.1-1.4v-.8c0-.1 0-.1.1-.1 0-.6-.1-1.1-.1-1.5v-3.4000000000000004l-.1-1.7c-.1-1.1-.1-2.2-.1-3.3v-3.3c-.3.1-.5.1-.8.1zM136.8 33c-.1.3-.2.4-.5.4-.2 0-.5 0-.7.1-.9.1-1.8.2-2.7.2-.9 0-1.8.1-2.7.4-.1.4-.2.7-.1 1.1 0 .3.1.7.1 1.1.1.4.1.8.1 1.3v3.7c0 .8.1 1.6.2 2.4l1.9-.4c.6-.2 1.3-.3 2-.3.1.1.2.3.2.5.1.3.1.6.1.9 0 .3 0 .6-.1.9-.1.3-.2.4-.3.5-.6.2-1.3.4-1.9.4s-1.3.2-1.9.4c-.1 1.3-.1 2.5-.1 3.7 0 1.2.1 2.3.1 3.2.5.1 1.1.1 1.8 0s1.3-.2 1.8-.2c.2 0 .4 0 .6-.1l.8-.1c.3 0 .5 0 .7.1.2.1.3.2.4.3.1.3.1.6.1.9l-.1.9c-.1.4-.4.7-.7.8-.4.1-.8.2-1.2.2l-1.9.3c-.6 0-1.3.1-2 .1-.5.1-1.1.2-1.7.3-.6.1-1.2.1-1.7 0-.2-.2-.3-.5-.3-.7 0-.3-.1-.6 0-.9 0-.3 0-.6.1-.9l.1-.9v-17.6l-.1-1.2c-.1-.4-.1-.8-.1-1.2 0-.3 0-.6.1-1 .1-.3.3-.6.7-.7.5-.2 1-.3 1.6-.4.6 0 1.1-.1 1.6-.1 1.1-.2 2.1-.3 3.1-.5s2.1-.2 3.1-.1c.1.1.1.3.1.5v.6c0 .2-.1.4-.2.7-.3.1-.3.3-.4.4zM146.4 36.4c.1.7.2 1.3.4 2 .1.7.2 1.3.4 2 .2.8.4 1.5.5 2.3l.6 2.3c.3 1 .5 1.9.7 2.9.2 1 .5 2 .8 2.9.1.3.1.6.2 1 .1.3.2.6.3 1 .1.4.3.8.5 1.2.2.4.4.8.4 1.2-.1.1-.3.2-.6.2h-2.5c-.4-1-.8-2.1-1.1-3.2-.3-1.1-.5-2.2-.7-3.3-.6 0-1.4 0-2.1-.1-.8 0-1.5 0-2.2.2-.3 1.1-.6 2.3-.8 3.4l-.2.8c-.1.2-.1.5-.2.8-.1.2-.1.5-.1.8 0 .3-.1.5-.3.7-.3.1-.7.2-1.2.2-.4.1-.9.1-1.2.1-.2-.1-.2-.3-.2-.6 0-.4.1-.8.2-1.2l.3-1.3c.1-.4.2-.7.2-.8l.7-2.9c.3-1 .5-1.9.7-2.9l.7-2.8c.2-.8.3-1.6.5-2.3.2-.8.3-1.6.5-2.3.3-1.3.5-2.5.8-3.7l.9-3.7c.4-.1.8-.2 1.2-.2.5 0 .9.1 1.2.1.2.8.3 1.6.4 2.6 0 .8.1 1.7.3 2.6zm-2.8 5.5c-.2.8-.3 1.5-.5 2.2-.2.7-.3 1.4-.4 2.1h1.5c.6 0 1-.1 1.5-.3-.3-1.2-.6-2.3-.7-3.5-.2-1.2-.4-2.3-.7-3.5-.3 1.1-.5 2.1-.7 3z"/><path d="M134.6 74.7l8.2-.8 8.2-.6c1.4-.1 2.7-.2 4.1-.4 1.4-.1 2.7-.1 4.1 0 1.4.1 2.7.3 4.1.6 1.4.3 2.7.6 4.1 1.2v.4c-1.4.6-2.7.9-4.1 1.2-1.4.3-2.7.5-4.1.6-1.4.1-2.7.1-4.1 0l-4.1-.4-8.2-.6-8.2-.8v-.4zM301 43.5v-.5l.1-.1.1-.2.3-.3c.2-.2.4-.4.6-.5.4-.3.8-.5 1.2-.6.8-.3 1.6.3 2.4.4l2.4.6c.8.3 1.6.5 2.3.8v.4l-2.4.8-2.4.6c-.8.2-1.6.7-2.4.4-.4-.1-.8-.3-1.2-.6-.2-.1-.4-.3-.6-.5l-.3-.3-.1-.2-.1-.1.1-.1v-.4.4zM458.7 62.2v-.4h.1l.1-.1.3-.1.6-.2 1.2-.4 2.4-.6c.8-.2 1.6-.7 2.4-.4.4.1.8.3 1.2.6.4.3.8.6 1.2 1.2v.4c-.4.6-.8.9-1.2 1.2-.4.3-.8.5-1.2.6-.8.3-1.6-.3-2.4-.4l-2.4-.6-1.2-.4-.6-.2-.3-.1-.1-.1h-.1v-.4.4zM301.2 18.2c6.9-.9 14-1.1 21-.8 7 .3 14 1.2 20.9 2.4 13.8 2.5 27.3 6.1 41 9.2 13.6 3.1 27.3 5.4 41.1 6.8 6.9.7 13.8 1.1 20.8 1.3 3.5.1 7 .1 10.4 0 3.5 0 7-.2 10.5-.4v.3c-3.5.6-6.9 1-10.4 1.4-3.5.3-7 .6-10.5.7-7 .3-14.1.1-21.1-.4-14.1-1-27.9-4-41.4-7.4-13.6-3.4-27-7.3-40.7-10-13.6-2.8-27.6-4.3-41.6-2.9v-.2zM301.2 63.4c3.5-.6 7-1 10.5-1.2 3.5-.2 7-.2 10.6-.1 7 .2 14.1 1.1 21 2.3 13.9 2.4 27.3 6.6 40.8 9.9 13.5 3.4 27.2 6.2 41.1 7.5 13.9 1.4 27.9 1.5 41.8.1v.3c-13.9 1.7-28 2.1-42 1s-27.8-3.6-41.5-6.7-27.2-6.5-40.8-9.3c-6.8-1.4-13.7-2.5-20.6-3.2-3.5-.3-6.9-.5-10.4-.6-3.5-.1-7 0-10.5.2v-.2zM390.2 20.4l6.6-.8 6.6-.6c1.1-.1 2.2-.2 3.3-.4 1.1-.1 2.2-.1 3.3 0 1.1.1 2.2.3 3.3.6 1.1.3 2.2.6 3.3 1.2v.4c-1.1.6-2.2.9-3.3 1.2-1.1.3-2.2.5-3.3.6-1.1.1-2.2.1-3.3 0l-3.3-.4-6.6-.6-6.6-.8v-.4zM301.6 74.7c1.4-.6 2.7-.9 4.1-1.2 1.4-.3 2.7-.5 4.1-.6 1.4-.1 2.7-.1 4.1 0l4.1.4 8.2.6 8.2.8v.4l-8.2.8-8.2.6c-1.4.1-2.7.2-4.1.4-1.4.1-2.7.1-4.1 0-1.4-.1-2.7-.3-4.1-.6-1.4-.3-2.7-.6-4.1-1.2v-.4z"/><path class="st1" d="M333.3 50.2l.6.1c.2 0 .4.1.5.3.2.2.2.4 0 .6-.1.2-.3.4-.4.5-.3.4-.5.7-.8 1l-.9.9c-.3.3-.7.5-1.1.7-.4.2-.9.3-1.4.3-.9.1-1.7-.1-2.6-.4-.8-.3-1.6-.8-2.2-1.3-.6-.5-1.1-1.1-1.4-1.7-.3-.6-.5-1.3-.6-2-.1-.7-.1-1.4-.1-2.1 0-.7 0-1.4.1-2.1v-4.8c0-.8.1-1.6.2-2.4.1-.8.2-1.6.5-2.4l.6-1.8c.3-.6.6-1.1 1-1.5.4-.4.9-.8 1.4-1.1.6-.3 1.2-.4 1.9-.5.6 0 1.2.1 1.9.4.7.2 1.3.6 1.9 1 .6.4 1 .9 1.4 1.5.4.6.5 1.2.5 1.8-.4.1-.9.2-1.3.4-.5.2-1 .2-1.5.1-.2-.4-.4-.7-.5-1.1-.1-.4-.4-.7-.7-1-.4-.3-.8-.4-1.3-.4-.4 0-.8.1-1.2.4-.4.3-.8.6-1 1-.2.4-.4.8-.6 1.3-.1.4-.2.9-.3 1.4l-.1 1.4-.1 3.5v4.9c0 .5 0 1 .1 1.5s.2 1 .3 1.4c.2.5.4.9.8 1.2.3.3.6.5 1 .7.4.2.8.2 1.2.1.4-.1.7-.3 1-.6.2-.3.5-.6.6-.9.1-.2.2-.3.4-.4.2-.1.4-.1.6-.1l.6.1c.6 0 .8.1 1 .1zM336.9 35c.3-.8.8-1.5 1.5-2s1.5-.9 2.4-1c.5-.1.9 0 1.4.1.5.1 1 .3 1.5.5s1 .5 1.4.8c.4.3.8.6 1.2 1 .4.3.7.7.9 1.2l.6 1.4c.2.5.3 1 .4 1.4.1.5.1.9.1 1.4.1 1.1 0 2.3 0 3.3l-.2 3.3c0 .5-.1 1-.2 1.4l-.2 1.4c0 .6-.1 1.1-.1 1.6s-.1 1-.2 1.5c-.2.7-.5 1.3-1 1.9-.4.6-1 1-1.7 1.3-.4.2-.8.3-1.3.3-.5.1-1 .1-1.5 0-.5 0-1-.2-1.5-.3-.5-.2-.9-.4-1.3-.7l-.9-.9c-.2-.3-.5-.7-.7-1.1-.2-.4-.4-.9-.6-1.4-.2-.5-.3-1-.3-1.4 0-.6 0-1.2-.1-1.7-.1-.6-.2-1.2-.2-1.8-.1-.6-.1-1.3 0-2v-3.8l.1-1.8c0-.6.1-1.3.1-2 .2-.6.3-1.3.4-1.9zm3.6-.1c-.3.3-.6.6-.7 1l-.4 1.2c-.1.4-.2.9-.2 1.4v7.300000000000001c0 .5 0 1-.1 1.4v1.4l.1.6.1.6.1.8c0 .2.1.5.3.8.2.4.5.7.8 1 .3.3.7.4 1.1.6.4.1.8.2 1.2.1.4 0 .8-.1 1.2-.3.3-.2.6-.4.7-.7.1-.3.2-.6.3-1 .2-.5.3-.9.3-1.4l.2-1.5c0-.9.1-1.9.2-2.8.1-1 0-1.9-.1-2.9-.1-.5-.1-1-.1-1.5l.1-1.5v-1.5c0-.5-.2-1-.4-1.5-.2-.4-.5-.7-.8-1-.3-.3-.7-.5-1.1-.7-.4-.2-.8-.3-1.2-.4-.4-.1-.8 0-1.1.2l-.3.1c-.1.1-.2.1-.2.2zM351.6 33.8c.8.2 1.6.3 2.4.4l2.4.3c.4.1.9.2 1.3.2l1.3.3c.2 0 .4.1.5.2.2.1.3.2.3.4.1.3.2.7.2 1.1.1.4 0 .7-.2 1-.3 0-.7-.1-1.3-.2-.6-.1-1.2-.2-1.8-.4-.6-.1-1.2-.2-1.7-.3-.5-.1-.8-.1-1-.1-.1.4-.1.8 0 1.2 0 .4.1.8.1 1.3v2.3c-.1.8-.2 1.5-.3 2.2-.1.7-.1 1.5 0 2.3.3.1.6.2 1 .3l1 .1 1 .1c.3.1.6.2.9.4.1.4.1.8 0 1.2 0 .4-.2.7-.5.8-.6 0-1.1-.1-1.7-.2l-1.8-.3c-.1 1.1-.2 2.2-.2 3.3 0 1.1-.1 2.2-.1 3.4 0 .4 0 .8-.1 1.2 0 .4-.1.8-.2 1.2 0 .1-.1.2-.2.2s-.2 0-.4-.1c-.3-.1-.7-.2-1-.2-.3 0-.6-.1-.9-.2-.1-.1-.1-.3-.1-.6v-5.6c0-.9 0-1.9.1-2.8l.3-3.7c.1-1.3.1-2.5.1-3.8v-3.6c0-.6.1-1.2.1-1.7v-.8c.2-.4.3-.6.5-.8zM365.7 58.2v1c0 .4 0 .7-.2.9l-.9-.1c-.3 0-.6-.1-.8-.1-.3-.1-.6-.1-.8-.2-.2-.1-.3-.3-.3-.7v-2.2c0-1.5 0-3 .1-4.5l.1-1.6c0-.5.1-1 .1-1.6 0-.6.1-1.3 0-1.9v-1.9c.1-1.4.1-2.8.1-4.1 0-1.4 0-2.7.1-4.1.1-.2.4-.3.7-.3.3 0 .7 0 1 .1l1.1.3c.4.1.7.2.9.3l2.6.7c.4.1.8.2 1.3.3.4.1.8.3 1.2.5 0 .1 0 .3.1.5 0 .2.1.4.1.5v.5c0 .2-.1.3-.2.4-.1.1-.2.1-.4.1s-.3 0-.5-.1c-.2 0-.4-.1-.6-.2-.2-.1-.3-.1-.4-.1-.7-.1-1.5-.2-2.2-.4-.3-.1-.6-.2-1-.3-.4-.1-.7-.2-.9-.1.1.7.1 1.4.1 2.1 0 .7 0 1.4-.1 2.1v2.2c.1.8 0 1.5-.1 2.2.2.2.5.3.8.4.3.1.6.1.8.2.3.1.7.2 1 .2.3.1.6.2 1 .3.2.1.2.2.2.5l-.1.7-.3.7-.2.4c-.1 0-.3 0-.6-.1l-.9-.2c-.3-.1-.6-.2-1-.2-.3-.1-.6-.2-.8-.2 0 .2-.1.6-.1 1s0 .8-.1 1.3v2.9c.2.5.1 1.2.1 1.9zM384.7 62.6c.1.2.2.4.2.7l.1.8v1.5c-.3 0-.7-.1-1.2-.2s-1.2-.3-1.8-.4l-2.1-.6c-.7-.2-1.4-.4-2-.6-.6-.2-1.1-.3-1.5-.4l-.7-.2c-.2-.4-.3-.8-.3-1.2l-.1-1.2-.1-1.5-.1-1.5c0-1 .1-2 0-3.1l-.1-3.1-.1-3.2-.1-3.2c0-1.1 0-2.1.1-3.1v-3.2c.3-.2.7-.2 1.1-.1.5.1.9.2 1.2.3l2.1.4c.4.1.8.2 1.2.2l1.2.3c.4.1.9.2 1.4.3.5.1.9.3 1.3.6l.1 1.1c0 .3.1.7.1 1.1.1.2.1.4 0 .5-.1.1-.2.1-.3.1h-.5c-.2 0-.4-.1-.5-.1-.9-.2-1.9-.4-2.8-.7l-2.7-.6v2.1l-.2 2.1c-.1.7-.1 1.4-.1 2.2 0 .7 0 1.4.1 2.1.9.2 1.8.4 2.7.5.9.1 1.8.3 2.7.7.1.3.1.5.1.8l.1.8c0 .1 0 .2.1.3l.1.4v.3c0 .1-.1.2-.2.2-.2.1-.4.1-.7 0-.3-.1-.5-.1-.7-.2-.7-.1-1.4-.3-2.1-.5l-2.1-.5v1.6c0 .5.1 1.1.2 1.6.1.6.1 1.2.1 1.8 0 .6.1 1.2.2 1.8.5.2 1 .4 1.6.6.5.2 1 .3 1.6.5l.9.3c.3.1.6.2 1 .2l.8.2c.2.1.5.2.7.4zM396.1 46.3c-.1.2-.2.3-.4.3l-.6-.2c-.8-.2-1.6-.4-2.5-.7-.8-.3-1.7-.5-2.5-.6-.1.3-.2.6-.1 1 0 .3.1.7.1 1.1l.1 1.2v3.5c0 .8 0 1.6.2 2.4.6.1 1.2.2 1.7.2.6 0 1.2.2 1.8.4.1.1.2.3.2.6l.1.9c0 .3 0 .6-.1.8-.1.2-.2.3-.3.4-.6 0-1.2-.1-1.8-.3-.6-.2-1.2-.3-1.7-.2-.1 1.2-.1 2.3-.1 3.5 0 1.1.1 2.2.1 3.1.5.3 1 .5 1.6.6.6.1 1.2.3 1.7.4.1 0 .3.1.6.1.2 0 .5.1.7.2.3.1.5.2.7.3.2.1.3.3.4.4.1.3.1.6.1.9 0 .3-.1.6-.1.8-.1.4-.3.6-.7.6-.3 0-.7-.1-1.1-.1-.6-.1-1.2-.2-1.8-.4-.6-.2-1.2-.4-1.8-.5-.5-.1-1-.2-1.6-.3-.6-.1-1.1-.3-1.6-.6l-.3-.8c0-.3-.1-.6 0-.9 0-.3 0-.6.1-.8 0-.3.1-.6 0-.8v-16.8l-.1-1.2c-.1-.4-.1-.8-.1-1.2 0-.3 0-.6.1-.9.1-.3.3-.4.7-.4.5 0 .9.1 1.5.2.5.2 1 .3 1.5.4 1 .2 2 .4 2.9.6 1 .2 1.9.5 2.9.9.1.2.1.3.1.5v.6l-.1.6c-.4-.1-.4.1-.5.2zM399.5 62.7c-.2-.7-.3-1.3-.2-2 .1-.6.3-1.2.5-1.8.3-.6.6-1.1 1-1.6s.7-.9 1.1-1.3l-.6-1.2-.6-1.2c-.2-.4-.3-.8-.4-1.2-.1-.4-.1-.8 0-1.2.1-.4.2-.7.5-.9.2-.3.5-.5.9-.6.3-.1.7-.2 1.1-.2.4 0 .8 0 1.2.2.6.2 1.1.5 1.5.9.4.4.6.8.8 1.3.1.5.2.9.2 1.4 0 .5-.1 1-.3 1.4-.2.5-.4.9-.7 1.2-.3.4-.6.7-.9.8.2.4.5.9.8 1.6l1 1.9c.4.7.8 1.5 1.2 2.3.1-.2.1-.5.1-1v-1.5c0-.5-.1-1-.1-1.4-.1-.4-.1-.7-.2-.8h.4l.6.1c.2 0 .4.1.6.2.2.1.3.2.4.3.1.2.2.5.3 1.1.1.5.1 1.2.1 1.9s0 1.4-.1 2.1c-.1.7-.3 1.3-.5 1.8.1.2.3.4.4.7.2.3.3.6.5.8.2.3.3.6.5.8.2.3.3.5.4.7l.3.4c.1.1.1.2.1.3 0 .1 0 .1-.1.2s-.2.1-.4.1c-.4.1-.7.1-.9.1-.2 0-.5-.2-.8-.6-.3-.4-.6-.8-.8-1.1-.2-.3-.4-.7-.6-1.1-.3.1-.5.1-.7.2-.2.1-.5.2-.7.2l-.9.2c-.3 0-.7 0-1-.1-1.3-.3-2.3-.8-3.2-1.6-.9-.9-1.5-1.8-1.8-2.8zm2.1.2c.1.3.2.6.4.9.2.3.5.5.7.7.3.2.6.4.9.5.3.1.6.2 1 .2s.7-.1 1.1-.2c.4-.2.6-.3.8-.5-.5-1.1-1-2.1-1.4-2.9l-.6-1.1c-.2-.4-.4-.7-.5-1-.2-.3-.3-.6-.5-.8-.1-.2-.2-.4-.3-.4-.1.1-.2.3-.4.6-.2.4-.4.8-.7 1.3-.2.5-.4 1-.5 1.5-.1.4-.1.8 0 1.2zm3.1-10.8c-.1-.1-.1-.3-.3-.4l-.4-.4c-.2-.1-.3-.2-.5-.2h-.5c-.3.1-.5.3-.6.6-.1.3-.1.6-.1.9.1.3.2.7.4 1 .2.3.4.6.7.9.1 0 .2-.1.3-.3l.5-.6c.2-.2.3-.5.4-.8.2-.1.2-.4.1-.7zM415 50c-.4-.1-.8-.2-1.2-.2-.3 0-.6 0-1-.1-.4 0-.7-.2-.9-.5 0-.1.1-.3.1-.5s0-.3-.1-.5v-.5c0-.2 0-.3.1-.4l.1-.2c0-.1.1-.1.2-.1h.5l.6.1c.4.1.9.2 1.3.4l1.2.3 1.7.3 1.7.3c.8.2 1.7.2 2.4.2.1 0 .2.1.3.2.1.1.1.3.1.5v.9c0 .4 0 .7-.1.8-.1.1-.4.2-.8.2-.3 0-.7 0-1-.1l-1.1-.1-.1 2.7c0 .9 0 1.8-.1 2.7l-.1 2.8c0 .9 0 1.9-.1 2.8 0 .9 0 1.8-.1 2.7v2.8c.1.5.1.9 0 1.4l-.1 1.4c0 .4-.1.9 0 1.3v1.3c-.5 0-1-.1-1.5-.2s-1-.3-1.4-.4c-.1-.4-.1-.8-.1-1.2 0-.4 0-.7.1-1.1l.1-1.1v-1.1c0-.5-.1-.9 0-1.3 0-.4 0-.9.1-1.3 0-.4 0-.9.1-1.3v-.8c0-.1 0-.1.1-.1 0-.6 0-1.1-.1-1.4v-3.3000000000000003c0-.5-.1-1.1-.1-1.7-.1-1.1-.1-2.1-.1-3.2v-3.2c-.2-.1-.4-.2-.7-.2zM433.3 71.9c.1.2.2.4.2.7l.1.8v1.5h-1.2c-.6 0-1.2-.1-1.8-.2-.7-.1-1.4-.2-2.1-.2-.7-.1-1.4-.2-2-.3-.6-.1-1.1-.2-1.5-.3-.4-.1-.6-.1-.7-.1-.2-.4-.3-.8-.3-1.2l-.1-1.2-.1-1.5-.1-1.5c0-1 .1-2 0-3.1 0-1-.1-2-.1-3.1l-.1-3.2c0-1-.1-2.1-.1-3.2s0-2.1.1-3.2v-3.2c.3-.2.7-.3 1.1-.2.5.1.9.1 1.2.2l2.1.2 1.2.1 1.2.1c.4 0 .9.1 1.4.1.5.1.9.2 1.3.4l.1 1.1.1 1c.1.2.1.4 0 .5-.1.1-.2.2-.3.2h-1c-.9-.1-1.9-.2-2.8-.2-.9-.1-1.8-.2-2.7-.2v2.1c-.1.7-.1 1.4-.2 2.2-.1.7-.1 1.4-.1 2.2 0 .7 0 1.4.1 2.1.9.1 1.8.2 2.7.1.9 0 1.8.1 2.7.3.1.3.1.5.1.8l.1.8c0 .1 0 .2.1.3 0 .1.1.2.1.4v.3c0 .1-.1.2-.2.2-.2.1-.4.1-.7.1-.3 0-.5-.1-.7-.1-.7 0-1.4-.1-2.1-.2-.7-.1-1.4-.2-2.1-.2v1.6c.1.5.1 1 .2 1.6l.1 1.8c0 .6.1 1.2.2 1.8.5.2 1 .3 1.6.4.5.1 1 .2 1.6.3.3.1.6.1.9.1.3 0 .6.1 1 .1.3 0 .5 0 .8.1.2-.1.5-.1.7 0zM445.1 71.1l.3 1.5c.1.5.2 1 .2 1.5 0 .3-.1.5-.3.7h-1.2c-.5 0-.8 0-1.1-.2 0-.1-.1-.4-.2-.7-.1-.3-.2-.7-.3-1.2-.1-.4-.2-.9-.3-1.4-.1-.5-.2-.9-.3-1.3-.1-.4-.2-.8-.2-1.1-.1-.3-.1-.5-.1-.6-.6-.1-1.2-.1-2-.2-.7-.1-1.4-.1-2 0-.2.4-.3.9-.4 1.4-.1.5-.2 1-.3 1.4-.1.3-.2.5-.2.8l-.2.8c-.1.3-.1.6-.2 1 0 .3-.2.6-.4.9h-1.2c-.5-.1-.9-.1-1.1-.2 0-.5 0-1 .1-1.6.1-.5.2-1 .4-1.6l.5-1.5c.2-.5.3-1 .4-1.5l.9-4.2c.3-1.4.6-2.8.8-4.2l.7-3 .7-3 .3-1.2c.1-.4.2-.8.4-1.1.1-.2.2-.4.4-.5.2-.1.4-.1.6-.1l.7.1c.2.1.5.1.7.1.1.2.2.5.3 1.1.1.5.2 1.1.3 1.7.1.6.2 1.2.2 1.8.1.5.1.9.1 1.1l.4 2.5c.1.8.3 1.7.5 2.5l.6 2.8c.2.9.4 1.9.7 2.8.2.6.3 1.2.5 1.9 0 .8.1 1.4.3 2zm-7-5.1c.5.1 1 .1 1.5.1h1.5c0-.1 0-.4-.1-.8s-.1-.9-.2-1.4c-.1-.5-.2-1.1-.3-1.7-.1-.6-.2-1.1-.3-1.6-.1-.5-.2-.9-.3-1.2-.1-.3-.2-.5-.2-.5s-.1.3-.2.8-.2 1.1-.4 1.8l-.4 2.2c-.3 1-.5 1.7-.6 2.3zM428.5 15.7c.1 0 .2-.1.3 0h.3c.1 0 .3 0 .4-.1.1 0 .3 0 .4.1v2.5c0 .5 0 1.1.1 1.8v6.6000000000000005c0 .3 0 .6-.1.7-.1 0-.2 0-.4.1h-.6c-.2 0-.4 0-.5-.1-.1-.1-.2-.1-.2-.3v-6.4s0 .1-.1.2l-.2.6c-.1.2-.2.5-.3.8l-.3.8c-.1.2-.2.5-.3.6-.1.2-.1.3-.2.3-.1.1-.2.2-.3.2h-1s-.1-.1-.2-.3l-.3-.5-.3-.6-.3-.6c-.1-.2-.2-.4-.2-.5-.1-.1-.1-.2-.1-.2l-.1-.2c0-.1 0-.1-.1-.2v4.6000000000000005c0 .3-.1.6 0 .9 0 .3 0 .6-.1.9-.2.1-.5.1-.8 0-.3 0-.6-.1-.8-.2v-8.399999999999999c0-.5 0-1 .1-1.5 0-.5 0-.8.1-1.1 0-.3.1-.5.1-.5.2 0 .3 0 .5-.1s.3-.1.5 0c.1 0 .2.1.2.2l.1.3c0 .1.1.3.2.5.1.3.3.6.4 1l.5 1.1c.2.4.3.8.5 1.1l.4.9.2.4.1-.1.1-.2.1-.2v-.1s.1-.1.2-.4c.1-.2.2-.5.4-.8.1-.3.3-.7.5-1.1.2-.4.3-.8.5-1.1l.4-.9.2-.5zm-4.2 5.2zM437.8 16.3c0 .1-.1.2-.3.2h-3.1999999999999997c-.1.2-.1.3-.1.5s0 .3.1.5v2.4c0 .4 0 .8.1 1.2l1-.1c.3-.1.7-.1 1.1 0 .1 0 .1.1.1.3v.4c0 .1 0 .3-.1.4 0 .1-.1.2-.2.2-.3.1-.7.1-1.1.1-.4 0-.7 0-1 .1-.1.6-.1 1.2-.1 1.8 0 .6 0 1.1.1 1.6.3.1.6.1 1 .1h1.7000000000000002c.1 0 .3 0 .4.1.1 0 .2.1.2.2.1.1.1.3.1.4 0 .2 0 .3-.1.4-.1.2-.2.3-.4.4-.2 0-.4.1-.7.1h-3c-.3 0-.6 0-.9-.1-.1-.1-.1-.2-.2-.4v-9.600000000000001c0-.2 0-.4-.1-.6 0-.2 0-.4-.1-.6 0-.2 0-.3.1-.5 0-.2.2-.3.4-.3.3-.1.5-.1.8-.1h.9c.6 0 1.1 0 1.7-.1.6 0 1.1 0 1.7.1l.1.2v.3c0 .1 0 .2-.1.3.1-.1.1 0 .1.1zM444.9 20.9c.1.2.1.3.2.4l.3.4c0 .1.1.2.2.4s.2.3.3.3c0 0 0-.2.1-.6v-6c0-.4.1-.6.1-.7.1 0 .2-.1.3 0h1.1c.1 0 .2.1.2.2v6.6c0 .6 0 1.3-.1 1.9 0 .6 0 1.2-.1 1.6 0 .5-.1.9-.1 1.1 0 .3-.1.4-.1.4h-1.4c-.1-.2-.2-.5-.4-.9s-.4-.8-.6-1.3c-.2-.5-.4-1-.7-1.5-.2-.5-.4-1-.7-1.4l-.5-1c-.1-.3-.2-.4-.3-.5 0 0-.1-.1-.1-.2l-.1-.2-.1-.2c0-.1-.1-.1-.2-.1 0 0 0 .1-.1.2v2c0 .3-.1.6-.1.8l-.1 1.9c0 .6 0 1.3-.1 2-.2 0-.4.1-.8.1h-.8c-.1 0-.1-.2-.1-.5v-1.3c0-.5 0-1.2.1-1.8l.1-2.1.1-2.1c0-.7.1-1.3.1-1.8s.1-1 .1-1.3c0-.3.1-.5.1-.5.1-.1.3-.2.5-.2s.4 0 .6-.1c.1.1.2.3.3.6.1.3.3.6.5 1l.6 1.2.6 1.2c.2.4.4.7.5 1 .5.7.6.9.6 1zM451.3 15.3v1l-.1 1c0 .6 0 1.3-.1 1.9v2c0 .7 0 1.3.1 2l.1.9.3.9.3.4.4.3c.2.1.3.2.5.2h.6c.2 0 .3-.1.4-.1l.4-.3c.1-.1.2-.2.3-.4.1-.1.1-.3.1-.4 0-.2 0-.4.1-.6v-8.9l.1-.2h1.1c.1 0 .1.1.3.1.1.1.1.1.1.2v8.5c0 .3 0 .5-.1.8-.1.3-.1.5-.3.7-.2.4-.5.7-.9 1.1-.4.3-.9.5-1.4.6h-.8c-.3 0-.5-.1-.8-.2-.3-.1-.5-.2-.7-.3l-.6-.4c-.4-.3-.7-.7-.9-1.2l-.4-1.3c-.1-.5-.2-1.1-.1-1.6v-1.7c0-.6 0-1.1.1-1.7.1-.6.1-1.1.1-1.7v-1.2c0-.1 0-.2.1-.4v-.4c.1 0 .2-.1.4 0h.9c.1.3.3.3.4.4zM18.5 16.7c.1 0 .2-.1.3 0h.3c.1 0 .3 0 .4-.1.1 0 .3 0 .4.1v2.5c0 .5 0 1.1.1 1.8v6.6000000000000005c0 .3 0 .6-.1.7-.1 0-.2 0-.4.1h-.6c-.2 0-.4 0-.5-.1-.1 0-.2-.1-.2-.3v-6.4s0 .1-.1.2l-.2.6c-.1.2-.2.5-.3.8l-.3.8c-.1.2-.2.5-.3.6-.1.2-.1.3-.2.3-.1.1-.2.2-.3.2h-1s-.1-.1-.2-.3c-.1-.1-.2-.3-.3-.5l-.3-.6-.3-.6c-.1-.2-.2-.4-.2-.5-.1-.1-.1-.2-.1-.2l-.1-.2c0-.1 0-.1-.1-.2v4.6000000000000005c0 .3-.1.6 0 .9 0 .3 0 .6-.1.9-.2.1-.5.1-.8 0-.3 0-.6-.1-.8-.2v-8.399999999999999c0-.5 0-1 .1-1.5 0-.5 0-.8.1-1.1 0-.3.1-.5.1-.5.2 0 .3 0 .5-.1s.3-.1.5 0c.1 0 .2.1.2.2l.1.3c0 .1.1.3.2.5.1.3.3.6.4 1l.5 1.1c.2.4.3.8.5 1.1l.4.9.2.4.1-.1.1-.2.1-.2v-.1s.1-.1.2-.4c.1-.2.2-.5.4-.8.1-.3.3-.7.5-1.1.2-.4.3-.8.5-1.1l.4-.9.2-.5zm-4.2 5.2zM27.8 17.3c0 .1-.1.2-.3.2h-3.1999999999999997c-.1.2-.1.3-.1.5s0 .3.1.5v2.4c0 .4 0 .8.1 1.2l1-.1c.3-.1.7-.1 1.1 0 .1 0 .1.1.1.3v.4c0 .1 0 .3-.1.4s-.1.2-.2.2c-.3.1-.7.1-1.1.1-.4 0-.7 0-1 .1-.1.6-.1 1.2-.1 1.8 0 .6 0 1.1.1 1.6.3.1.6.1 1 .1h1.7000000000000002c.1 0 .3 0 .4.1.1 0 .2.1.2.2.1.1.1.3.1.4 0 .2 0 .3-.1.4-.1.2-.2.3-.4.4-.2 0-.4.1-.7.1h-3c-.3 0-.6 0-.9-.1-.1-.1-.1-.2-.2-.4v-9.600000000000001c0-.2 0-.4-.1-.6 0-.2 0-.4-.1-.6 0-.2 0-.3.1-.5 0-.1.2-.3.4-.3.3-.1.5-.1.8-.1h.9c.6 0 1.1 0 1.7-.1.6 0 1.1 0 1.7.1l.1.2v.3c0 .1 0 .2-.1.3.1-.1.1 0 .1.1zM34.9 21.9c.1.2.1.3.2.4l.3.4c0 .1.1.2.2.4s.2.3.3.3c0 0 0-.2.1-.6v-6c0-.4.1-.6.1-.7.1 0 .2-.1.3 0h1.1c.1 0 .2.1.2.2v6.6c0 .6 0 1.3-.1 1.9 0 .6 0 1.2-.1 1.6 0 .5-.1.9-.1 1.1 0 .3-.1.4-.1.4h-1.4c-.1-.2-.2-.5-.4-.9s-.4-.8-.6-1.3c-.2-.5-.4-1-.7-1.5-.2-.5-.4-1-.7-1.4l-.5-1c-.1-.3-.2-.4-.3-.5 0 0-.1-.1-.1-.2l-.1-.2-.1-.2c0-.1-.1-.1-.2-.1 0 0 0 .1-.1.2v2c0 .3-.1.6-.1.8l-.1 1.9c0 .6 0 1.3-.1 2-.2 0-.4.1-.8.1-.3 0-.6.1-.8 0-.1 0-.1-.2-.1-.5v-1.3c0-.5 0-1.2.1-1.8l.1-2.1.1-2.1c0-.7.1-1.3.1-1.8s.1-1 .1-1.3c0-.3.1-.5.1-.5.1-.1.3-.2.5-.2s.4 0 .6-.1c.1.1.2.3.3.6.1.3.3.6.5 1l.6 1.2.6 1.2c.2.4.4.7.5 1 .5.7.6.9.6 1zM41.3 16.3v1l-.1 1c0 .6 0 1.3-.1 1.9v2c0 .7 0 1.3.1 2l.1.9.3.9.3.4.4.3c.2.1.3.2.5.2h.6c.2 0 .3-.1.4-.1l.4-.3c.1-.1.2-.2.3-.4.1-.1.1-.3.1-.4 0-.2 0-.4.1-.6v-8.9l.1-.2h1.1c.1 0 .1.1.3.1.1.1.1.1.1.2v8.5c0 .3 0 .5-.1.8-.1.3-.1.5-.3.7-.2.4-.5.7-.9 1.1-.4.3-.9.5-1.4.6h-.8c-.3 0-.5-.1-.8-.2-.3-.1-.5-.2-.7-.3l-.6-.4c-.4-.3-.7-.7-.9-1.2l-.4-1.3c-.1-.5-.2-1.1-.1-1.6v-1.7c0-.6 0-1.1.1-1.7.1-.6.1-1.1.1-1.7v-1.2c0-.1 0-.2.1-.4v-.4c.1 0 .2-.1.4 0h.9c.1.3.3.3.4.4z"/></svg>